<svg width="154" height="174" viewBox="0 0 154 174" fill="none" xmlns="http://www.w3.org/2000/svg">
<path d="M108.115 103.115C111.81 123.6 128.708 140.138 136.086 146.477C144.089 153.36 152.726 152.194 153.534 138.249C154.159 127.479 152.177 115.221 148.3 104.27C144.907 94.6651 139.167 85.5323 131.024 79.695C128.989 78.2382 126.608 77.3541 124.153 77.113C117.873 76.5001 112.036 80.1672 109.817 86.1352C107.846 91.44 107.092 97.438 108.115 103.115Z" fill="url(#paint0_linear_492_764)"/>
<path d="M45.8846 103.115C44.6244 110.087 41.8349 116.618 38.4099 122.425C38.0868 122.981 37.7529 123.53 37.4083 124.073C30.903 134.522 22.5451 142.499 17.9139 146.477C9.91147 153.36 1.27362 152.194 0.465837 138.249C-0.158845 127.479 1.82291 115.221 5.70025 104.27C5.84385 103.855 5.99464 103.443 6.1526 103.034C6.41109 102.344 6.68035 101.661 6.96038 100.985C10.4392 92.6155 15.7706 84.8692 22.9759 79.695C25.0116 78.2382 27.3918 77.3541 29.8475 77.113C36.1266 76.5001 41.9641 80.1672 44.1828 86.1352C46.1538 91.44 46.9077 97.438 45.8846 103.115Z" fill="url(#paint1_linear_492_764)"/>
<path opacity="0.1" d="M38.4095 122.425C38.0864 122.981 37.7525 123.53 37.4079 124.072C25.0758 119.913 14.6177 112.87 6.15222 103.034C6.41071 102.344 6.67997 101.661 6.96 100.984C11.6667 106.621 17.0195 111.373 22.9648 115.151C27.7038 118.155 32.8628 120.586 38.4095 122.425Z" fill="#131E2E"/>
<path opacity="0.1" d="M115.59 122.425C115.913 122.981 116.247 123.53 116.591 124.072C128.923 119.913 139.382 112.87 147.847 103.034C147.589 102.344 147.319 101.661 147.039 100.984C142.333 106.621 136.98 111.373 131.034 115.151C126.295 118.155 121.136 120.586 115.59 122.425Z" fill="#131E2E"/>
<path d="M129.054 105.757C129.054 113.081 127.858 120.586 125.693 127.82C99.963 148.869 59.6818 148.125 29.1908 127.79C27.0152 120.566 25.8304 113.071 25.8304 105.757C25.8304 73.5162 48.9329 68.2314 77.4421 68.2314C105.951 68.2314 129.054 73.5162 129.054 105.757Z" fill="url(#paint2_linear_492_764)"/>
<path d="M125.693 127.82C118.283 152.435 99.478 173.855 77.4418 173.855C55.3948 173.855 36.5897 152.425 29.1904 127.79C30.3105 127.75 31.4307 127.659 32.5508 127.518C41.0163 126.433 49.0295 122.495 54.7593 116.597C58.4859 112.759 61.2539 108.178 65.1312 104.481C65.1599 104.454 65.1922 104.424 65.2281 104.39C71.7227 98.2716 82.3423 98.2716 88.8368 104.39C88.8727 104.424 88.905 104.454 88.9338 104.481C92.8111 108.178 95.5791 112.759 99.2949 116.597C105.035 122.495 113.049 126.433 121.514 127.518C122.893 127.689 124.293 127.79 125.693 127.82Z" fill="url(#paint3_linear_492_764)"/>
<path d="M18.2585 52.2064C10.6007 52.2064 4.39697 46.118 4.39697 38.6128C4.39697 31.1077 10.6007 25.0293 18.2585 25.0293V52.2064Z" fill="url(#paint4_linear_492_764)"/>
<path d="M135.805 52.2064C143.462 52.2064 149.666 46.118 149.666 38.6128C149.666 31.1077 143.462 25.0293 135.805 25.0293V52.2064Z" fill="url(#paint5_linear_492_764)"/>
<path d="M139.023 40.9961C139.023 69.399 111.031 76.5123 76.5116 76.5123C41.9925 76.5123 14.0002 69.399 14.0002 40.9961V35.6612C14.0002 7.2583 41.9925 0.14502 76.5116 0.14502C111.031 0.14502 139.023 7.2583 139.023 35.6612V40.9961Z" fill="url(#paint6_linear_492_764)"/>
<path d="M126.75 44.5202C126.75 60.284 104.487 64.2224 77.0335 64.2224C49.5798 64.2224 27.3174 60.284 27.3174 44.5202V41.5664C27.3174 25.8127 49.5798 21.8643 77.0335 21.8643C104.487 21.8643 126.75 25.8127 126.75 41.5664V44.5202Z" fill="url(#paint7_linear_492_764)"/>
<path d="M63.5602 46.0978C63.8726 47.213 62.774 48.2177 61.5785 47.9264C58.8428 47.2633 56.0317 46.9217 53.2207 46.9217C50.4096 46.9217 47.5985 47.2633 44.8521 47.9264C43.6566 48.2177 42.5688 47.213 42.8703 46.0978C44.0551 41.7977 48.234 38.6128 53.2207 38.6128C58.1966 38.6128 62.3863 41.7977 63.5602 46.0978Z" fill="url(#paint8_radial_492_764)"/>
<path d="M90.4963 46.0978C90.1947 47.213 91.2933 48.2177 92.478 47.9264C95.2245 47.2633 98.0356 46.9217 100.847 46.9217C103.658 46.9217 106.469 47.2633 109.215 47.9264C110.4 48.2177 111.499 47.213 111.197 46.0978C110.012 41.7977 105.833 38.6128 100.847 38.6128C95.8707 38.6128 91.681 41.7977 90.4963 46.0978Z" fill="url(#paint9_radial_492_764)"/>
<path opacity="0.8" d="M126.75 41.5664V44.5202C126.75 44.6944 126.746 44.8685 126.739 45.0427C126.254 29.721 104.186 25.863 77.0335 25.863C49.8813 25.863 27.8128 29.721 27.3282 45.0427C27.321 44.8685 27.3174 44.6944 27.3174 44.5202V41.5664C27.3174 25.8127 49.5798 21.8643 77.0335 21.8643C104.487 21.8643 126.75 25.8127 126.75 41.5664Z" fill="#131E2E"/>
<path d="M104.883 2.57409C101.9 5.25664 99.9291 8.88361 99.0028 13.5454C98.712 15.0223 97.3226 16.0773 95.7178 16.0773H58.28C56.6752 16.0773 55.2858 15.0223 54.995 13.5454C54.0688 8.88361 52.0978 5.25664 49.1144 2.57409C57.5045 1.02686 66.9825 0.434082 76.9989 0.434082C87.0154 0.434082 96.4933 1.02686 104.883 2.57409Z" fill="url(#paint10_radial_492_764)"/>
<path d="M104.883 2.57422C101.9 5.25677 99.9291 8.88374 99.0028 13.5455C98.712 15.0225 97.3226 16.0774 95.7178 16.0774H58.28C56.6752 16.0774 55.2858 15.0225 54.995 13.5455C54.0688 8.88374 52.0978 5.25677 49.1144 2.57422C53.1425 4.80465 55.4904 6.70354 56.3521 11.074C56.6213 12.4605 57.9353 13.4551 59.4432 13.4551H94.5546C96.0625 13.4551 97.3765 12.4605 97.6457 11.074C98.5074 6.70354 100.941 3.75977 104.883 2.57422Z" fill="#49DA66"/>
<path d="M90.4567 121.923C90.4567 128.835 84.4469 134.441 77.0368 134.441C69.6268 134.441 63.6169 128.835 63.6169 121.923C63.6169 115.011 69.6268 109.404 77.0368 109.404C84.4469 109.404 90.4567 115.011 90.4567 121.923Z" fill="url(#paint11_linear_492_764)"/>
<path d="M87.7634 121.923C87.7634 127.449 82.9599 131.93 77.0361 131.93C71.1124 131.93 66.3088 127.449 66.3088 121.923C66.3088 116.397 71.1124 111.916 77.0361 111.916C82.9599 111.916 87.7634 116.397 87.7634 121.923Z" fill="url(#paint12_radial_492_764)"/>
<path opacity="0.1" d="M87.7634 121.923C87.7634 122.244 87.7491 122.559 87.7204 122.867C87.2034 117.794 82.6152 113.815 77.0361 113.815C71.4571 113.815 66.8689 117.794 66.3519 122.867C66.3232 122.559 66.3088 122.244 66.3088 121.923C66.3088 116.397 71.1124 111.916 77.0361 111.916C82.9599 111.916 87.7634 116.397 87.7634 121.923Z" fill="#131E2E"/>
<defs>
<linearGradient id="paint0_linear_492_764" x1="138.925" y1="75.1804" x2="110.543" y2="78.7804" gradientUnits="userSpaceOnUse">
<stop stop-color="#E6E6E6"/>
<stop offset="1" stop-color="#A5B0B5"/>
</linearGradient>
<linearGradient id="paint1_linear_492_764" x1="8.91111" y1="77.0463" x2="40.2976" y2="77.0463" gradientUnits="userSpaceOnUse">
<stop stop-color="#E6E6E6"/>
<stop offset="1" stop-color="#A5B0B5"/>
</linearGradient>
<linearGradient id="paint2_linear_492_764" x1="46.0493" y1="118.951" x2="46.0493" y2="79.1456" gradientUnits="userSpaceOnUse">
<stop stop-color="#E6E6E6"/>
<stop offset="1" stop-color="#A5B0B5"/>
</linearGradient>
<linearGradient id="paint3_linear_492_764" x1="44.7856" y1="151.097" x2="44.7856" y2="104.121" gradientUnits="userSpaceOnUse">
<stop stop-color="#E6E6E6"/>
<stop offset="1" stop-color="#A5B0B5"/>
</linearGradient>
<linearGradient id="paint4_linear_492_764" x1="4.39708" y1="25.0285" x2="18.254" y2="25.0285" gradientUnits="userSpaceOnUse">
<stop stop-color="#E6E6E6"/>
<stop offset="1" stop-color="#A5B0B5"/>
</linearGradient>
<linearGradient id="paint5_linear_492_764" x1="135.806" y1="25.0285" x2="149.663" y2="25.0285" gradientUnits="userSpaceOnUse">
<stop stop-color="#E6E6E6"/>
<stop offset="1" stop-color="#A5B0B5"/>
</linearGradient>
<linearGradient id="paint6_linear_492_764" x1="14.0006" y1="0.140699" x2="139.023" y2="0.140699" gradientUnits="userSpaceOnUse">
<stop stop-color="#E6E6E6"/>
<stop offset="1" stop-color="#A5B0B5"/>
</linearGradient>
<linearGradient id="paint7_linear_492_764" x1="87.4027" y1="26.6434" x2="87.4027" y2="61.6536" gradientUnits="userSpaceOnUse">
<stop stop-color="#304059"/>
<stop offset="1" stop-color="#131E2E"/>
</linearGradient>
<radialGradient id="paint8_radial_492_764" cx="0" cy="0" r="1" gradientUnits="userSpaceOnUse" gradientTransform="translate(53.2153 43.2944) scale(10.5251 4.7398)">
<stop stop-color="#82FF8F"/>
<stop offset="1" stop-color="#0EB33C"/>
</radialGradient>
<radialGradient id="paint9_radial_492_764" cx="0" cy="0" r="1" gradientUnits="userSpaceOnUse" gradientTransform="translate(100.845 43.2944) scale(10.5287 4.7398)">
<stop stop-color="#82FF8F"/>
<stop offset="1" stop-color="#0EB33C"/>
</radialGradient>
<radialGradient id="paint10_radial_492_764" cx="0" cy="0" r="1" gradientUnits="userSpaceOnUse" gradientTransform="translate(76.995 8.25457) scale(28.2272 7.91771)">
<stop stop-color="#82FF8F"/>
<stop offset="1" stop-color="#0EB33C"/>
</radialGradient>
<linearGradient id="paint11_linear_492_764" x1="77.0591" y1="97.6343" x2="101.333" y2="122.155" gradientUnits="userSpaceOnUse">
<stop stop-color="#E6E6E6"/>
<stop offset="0.195" stop-color="#A5B0B5"/>
<stop offset="0.366" stop-color="#CCD1D3"/>
<stop offset="0.571" stop-color="#B5BEC2"/>
<stop offset="0.744" stop-color="white"/>
<stop offset="1" stop-color="#A5B0B5"/>
</linearGradient>
<radialGradient id="paint12_radial_492_764" cx="0" cy="0" r="1" gradientUnits="userSpaceOnUse" gradientTransform="translate(77.0346 121.921) scale(10.8591 10.1298)">
<stop stop-color="#82FF8F"/>
<stop offset="1" stop-color="#0EB33C"/>
</radialGradient>
</defs>
</svg>
