<svg width="163" height="159" viewBox="0 0 163 159" fill="none" xmlns="http://www.w3.org/2000/svg">
<g clip-path="url(#clip0_328_273)">
<rect width="163" height="159" rx="23" fill="#F5F6FE"/>
<mask id="mask0_328_273" style="mask-type:alpha" maskUnits="userSpaceOnUse" x="0" y="0" width="163" height="159">
<rect width="163" height="159" rx="23" fill="#E2F6F8"/>
</mask>
<g mask="url(#mask0_328_273)">
<path d="M117.371 109.462C171.244 49.1193 203.291 61.7729 222.609 81.1916L212.169 168.67L-52.4906 176.834L-61.9526 113.095C-17.9392 140.726 69.9095 162.623 117.371 109.462Z" fill="#4865FF" fill-opacity="0.07"/>
</g>
<path d="M98.2585 143.747L98.0958 143.683C102.784 131.653 103.039 125.233 103.056 125.17L103.235 125.176C103.23 125.242 102.96 131.683 98.2585 143.747Z" fill="#992B2B"/>
<path d="M98.772 143.877L98.6093 143.812C103.298 131.782 103.553 125.362 103.57 125.3L103.747 125.31C103.743 125.371 103.478 131.814 98.772 143.877Z" fill="#992B2B"/>
<path d="M97.3487 143.361L97.186 143.297C101.876 131.263 102.29 124.718 102.295 124.653L102.472 124.662C102.467 124.728 102.051 131.297 97.3487 143.361Z" fill="#992B2B"/>
<path d="M93.06 141.199L92.8921 141.154C92.9287 141.017 97.9836 127.792 102.437 124.67L102.537 124.814C98.1329 127.891 93.1123 141.067 93.06 141.199Z" fill="#992B2B"/>
<path d="M93.3449 141.276L93.177 141.231C93.2136 141.094 98.2646 127.868 102.722 124.746L102.821 124.89C98.414 127.966 93.3972 141.143 93.3449 141.276Z" fill="#992B2B"/>
<path d="M93.7465 141.886L93.5838 141.821C98.4865 128.664 102.95 124.677 102.994 124.635L103.113 124.771C103.088 124.815 98.6317 128.778 93.7465 141.886Z" fill="#992B2B"/>
<path d="M94.1568 142.167L93.985 142.121C98.8915 128.965 103.36 124.959 103.399 124.936L103.515 125.067C103.475 125.09 99.042 129.059 94.1568 142.167Z" fill="#992B2B"/>
<path d="M96.926 143.361L96.7644 143.293C96.8226 143.153 102.697 129.277 102.453 124.984L102.632 124.973C102.877 129.308 97.171 142.791 96.926 143.361Z" fill="#992B2B"/>
<path d="M97.5794 143.704L97.4128 143.638C97.4525 143.49 103.072 129.499 102.741 125.22L102.917 125.205C103.253 129.527 97.8119 143.117 97.5794 143.704Z" fill="#992B2B"/>
<path d="M94.6295 142.105L94.4679 142.037C94.7374 141.406 101.057 126.615 102.593 125.134L102.717 125.264C101.206 126.717 94.6959 141.952 94.6295 142.105Z" fill="#992B2B"/>
<path d="M96.3495 142.888L96.185 142.815C96.2349 142.707 101.212 131.679 102.688 125.499L102.856 125.544C101.38 131.737 96.3994 142.78 96.3495 142.888Z" fill="#992B2B"/>
<path d="M96.0694 142.809L95.9088 142.737C95.9597 142.625 100.933 131.596 102.409 125.416L102.577 125.461C101.101 131.654 96.1203 142.697 96.0694 142.809Z" fill="#992B2B"/>
<path d="M95.5349 142.633L95.367 142.588C97.6641 136.577 103.047 124.502 103.105 124.38L103.265 124.452C103.216 124.56 97.8299 136.629 95.5349 142.633Z" fill="#992B2B"/>
<path d="M95.2498 142.556L95.0818 142.511C97.3789 136.5 102.766 124.427 102.82 124.303L102.98 124.376C102.93 124.484 97.5487 136.554 95.2498 142.556Z" fill="#992B2B"/>
<path d="M98.5385 143.827L98.3651 143.755C103.198 131.764 103.309 125.305 103.324 125.247L103.508 125.25C103.512 125.313 103.386 131.797 98.5385 143.827Z" fill="#BC4646"/>
<path d="M97.5324 143.411L97.359 143.339C102.191 131.352 102.302 124.893 102.318 124.831L102.502 124.834C102.504 124.901 102.379 131.385 97.5324 143.411Z" fill="#BC4646"/>
<path d="M92.7659 141.125L92.5915 141.057C92.6281 140.92 97.8363 127.732 102.641 124.704L102.742 124.86C97.9833 127.855 92.8181 140.992 92.7659 141.125Z" fill="#BC4646"/>
<path d="M93.0784 141.208L92.9079 141.142C92.9445 141.005 98.1527 127.817 102.954 124.787L103.054 124.944C98.2958 127.939 93.1306 141.076 93.0784 141.208Z" fill="#BC4646"/>
<path d="M93.4659 141.777L93.2915 141.709C98.3319 128.585 103.131 124.672 103.176 124.646L103.292 124.79C103.244 124.827 98.4829 128.709 93.4659 141.777Z" fill="#BC4646"/>
<path d="M93.8634 142.059L93.689 141.991C98.7284 128.871 103.532 124.955 103.577 124.929L103.692 125.077C103.635 125.104 98.8707 128.98 93.8634 142.059Z" fill="#BC4646"/>
<path d="M97.1872 143.465L97.0187 143.39C97.077 143.251 103.161 129.435 102.78 125.109L102.964 125.091C103.35 129.464 97.44 142.896 97.1872 143.465Z" fill="#992B2B"/>
<path d="M97.7902 143.76L97.6208 143.69C97.6595 143.545 103.459 129.603 102.971 125.286L103.156 125.264C103.648 129.632 98.0345 143.177 97.7902 143.76Z" fill="#BC4646"/>
<path d="M94.3083 141.961L94.1399 141.886C94.4173 141.257 100.972 126.529 102.617 125.074L102.743 125.212C101.13 126.643 94.3864 141.81 94.3083 141.961Z" fill="#BC4646"/>
<path d="M96.5777 143.021L96.4103 142.943C96.4417 142.825 101.636 131.86 103.089 125.673L103.265 125.72C101.813 131.92 96.6287 142.909 96.5777 143.021Z" fill="#BC4646"/>
<path d="M95.6605 142.679L95.4952 142.593C95.5511 142.478 101.235 131.154 102.694 124.96L102.873 125.008C101.414 131.206 95.7185 142.556 95.6605 142.679Z" fill="#BC4646"/>
<path d="M95.5193 142.628L95.3487 142.562C97.7112 136.572 103.306 124.551 103.363 124.432L103.53 124.51C103.477 124.63 97.8846 136.644 95.5193 142.628Z" fill="#BC4646"/>
<path d="M94.8943 142.461L94.7237 142.394C97.0912 136.402 102.685 124.385 102.738 124.265L102.905 124.343C102.852 124.463 97.2596 136.477 94.8943 142.461Z" fill="#BC4646"/>
<g style="mix-blend-mode:multiply">
<path d="M128.794 57.2966C129.097 57.269 129.391 57.1761 129.655 57.0242C129.919 56.8724 130.147 56.6653 130.323 56.4171C130.291 56.5938 130.281 56.7738 130.293 56.953C130.311 57.2295 130.384 57.4997 130.507 57.7477C130.631 57.9958 130.803 58.2167 131.012 58.3976C131.222 58.5786 131.466 58.7159 131.73 58.8016C131.993 58.8872 132.271 58.9196 132.547 58.8966C132.995 58.8617 133.42 58.6815 133.756 58.3834C133.599 58.7197 133.531 59.0908 133.56 59.461C133.577 59.7372 133.65 60.0072 133.773 60.2551C133.896 60.503 134.068 60.7238 134.277 60.9047C134.487 61.0856 134.73 61.2229 134.994 61.3085C135.257 61.3942 135.535 61.4265 135.81 61.4035C135.874 61.3997 135.931 61.3899 135.992 61.3811C135.934 61.608 135.914 61.8429 135.931 62.0764C135.949 62.3527 136.022 62.6227 136.145 62.8706C136.268 63.1185 136.439 63.3393 136.649 63.5202C136.859 63.7011 137.102 63.8383 137.365 63.924C137.629 64.0096 137.906 64.0419 138.182 64.019C138.331 64.0099 138.479 63.9834 138.622 63.9401C138.393 64.161 138.215 64.4299 138.102 64.7275C137.989 65.025 137.943 65.3438 137.968 65.6612C138.003 66.1875 138.235 66.6811 138.619 67.0432C139.002 67.4052 139.509 67.6089 140.036 67.6134C139.721 67.8276 139.469 68.1209 139.303 68.4639C139.138 68.8068 139.066 69.1873 139.094 69.567C139.112 69.8435 139.185 70.1137 139.309 70.3617C139.432 70.6098 139.604 70.8307 139.814 71.0116C140.024 71.1926 140.267 71.3299 140.531 71.4155C140.794 71.5012 141.072 71.5335 141.349 71.5106C141.909 71.4552 142.425 71.1826 142.786 70.7512C143.147 70.3198 143.325 69.764 143.281 69.203C143.246 68.6769 143.014 68.1835 142.63 67.822C142.246 67.4606 141.739 67.2578 141.212 67.2546C141.528 67.0402 141.781 66.7463 141.947 66.4026C142.112 66.0589 142.184 65.6775 142.155 65.2971C142.137 65.0211 142.064 64.7514 141.941 64.5037C141.818 64.2561 141.646 64.0355 141.437 63.8547C141.227 63.6739 140.984 63.5366 140.721 63.4507C140.458 63.3649 140.181 63.3322 139.905 63.3546C139.756 63.3656 139.608 63.392 139.465 63.4335C139.694 63.2125 139.871 62.9436 139.984 62.6461C140.098 62.3485 140.143 62.0297 140.119 61.7124C140.101 61.4361 140.029 61.1661 139.905 60.9182C139.782 60.6703 139.611 60.4495 139.401 60.2686C139.192 60.0878 138.948 59.9505 138.685 59.8648C138.422 59.7792 138.144 59.7469 137.868 59.7698C137.807 59.7741 137.745 59.7829 137.685 59.7962C137.743 59.5679 137.764 59.3318 137.747 59.0969C137.723 58.7065 137.588 58.3309 137.36 58.0133C137.132 57.6958 136.818 57.4491 136.456 57.3017C136.093 57.1544 135.697 57.1122 135.312 57.1802C134.926 57.2482 134.568 57.4235 134.278 57.686C134.437 57.3492 134.506 56.9771 134.48 56.6056C134.461 56.3293 134.388 56.0594 134.264 55.8117C134.14 55.5639 133.969 55.3432 133.759 55.1623C133.549 54.9815 133.306 54.8442 133.042 54.7583C132.779 54.6724 132.501 54.6397 132.225 54.662C131.922 54.6904 131.629 54.7837 131.365 54.9354C131.101 55.0872 130.873 55.2939 130.696 55.5416C130.73 55.3651 130.741 55.1848 130.727 55.0056C130.709 54.7293 130.636 54.4594 130.513 54.2115C130.39 53.9636 130.219 53.7427 130.009 53.5619C129.8 53.381 129.556 53.2437 129.293 53.1581C129.03 53.0724 128.752 53.0401 128.476 53.063C127.915 53.1164 127.398 53.3885 127.036 53.8204C126.675 54.2523 126.497 54.8092 126.543 55.3707C126.564 55.6454 126.638 55.9133 126.762 56.159C126.887 56.4047 127.058 56.6234 127.268 56.8025C127.477 56.9815 127.719 57.1174 127.981 57.2022C128.244 57.287 128.52 57.3191 128.794 57.2966Z" fill="#FFE6BD"/>
<path d="M120.587 57.1486C121.143 57.0946 121.656 56.826 122.017 56.3999C122.379 55.9738 122.559 55.4238 122.522 54.8665C122.65 55.3338 122.938 55.7416 123.335 56.0192C123.732 56.2969 124.214 56.427 124.697 56.387C125.257 56.3326 125.774 56.0603 126.136 55.6286C126.497 55.197 126.675 54.6406 126.63 54.0794C126.612 53.8031 126.54 53.5331 126.416 53.2852C126.293 53.0373 126.122 52.8165 125.912 52.6356C125.703 52.4548 125.459 52.3175 125.196 52.2318C124.933 52.1462 124.655 52.1139 124.379 52.1368C123.823 52.1899 123.309 52.4582 122.948 52.8845C122.587 53.3108 122.406 53.8614 122.445 54.4189C122.318 53.9499 122.03 53.5404 121.632 53.2623C121.233 52.9841 120.75 52.8549 120.266 52.8974C119.705 52.9508 119.187 53.2226 118.825 53.6541C118.463 54.0856 118.285 54.6423 118.329 55.204C118.347 55.481 118.42 55.7516 118.544 56C118.667 56.2484 118.839 56.4697 119.05 56.6508C119.26 56.8319 119.504 56.9692 119.768 57.0547C120.032 57.1402 120.311 57.1721 120.587 57.1486Z" fill="#FFE6BD"/>
<path d="M122.511 93.7139C122.488 93.3887 122.39 93.0731 122.225 92.7921C122.06 92.5111 121.832 92.2722 121.559 92.0942C122.079 91.9949 122.543 91.7072 122.864 91.2864C123.185 90.8655 123.338 90.3411 123.296 89.8137C123.266 89.3832 123.104 88.9724 122.832 88.6373C122.56 88.3022 122.191 88.0592 121.776 87.9413C122.095 87.7275 122.351 87.432 122.518 87.0857C122.684 86.7394 122.755 86.3549 122.722 85.9721C122.688 85.4544 122.462 84.9679 122.09 84.6072C121.717 84.2466 121.223 84.0375 120.704 84.0207C120.959 83.7992 121.159 83.5214 121.287 83.2093C121.416 82.8971 121.47 82.5593 121.446 82.2226C121.412 81.7265 121.203 81.2585 120.856 80.9025C120.509 80.5464 120.046 80.3255 119.551 80.2791C119.734 79.9216 119.816 79.5206 119.786 79.1199C119.75 78.5787 119.505 78.0729 119.102 77.71C118.699 77.3472 118.17 77.1559 117.628 77.1769C117.824 76.8133 117.912 76.4015 117.883 75.9895C117.849 75.4681 117.621 74.9785 117.243 74.6171C116.866 74.2556 116.367 74.0486 115.845 74.0368C116.04 73.6726 116.127 73.2604 116.096 72.8484C116.064 72.3811 115.876 71.938 115.563 71.5899C115.249 71.2418 114.828 71.0089 114.367 70.9283C114.724 70.4967 114.898 69.9423 114.852 69.3839C114.825 68.9957 114.691 68.6225 114.465 68.3061C114.238 67.9897 113.929 67.7424 113.57 67.592C113.764 67.3753 113.913 67.1216 114.007 66.8461C114.101 66.5706 114.138 66.279 114.116 65.9887C114.082 65.4868 113.868 65.0138 113.515 64.6555C113.793 64.5352 114.043 64.3577 114.248 64.1345C114.453 63.9114 114.609 63.6476 114.705 63.3603C114.801 63.073 114.836 62.7687 114.807 62.467C114.778 62.1654 114.686 61.8733 114.536 61.6097C115.07 61.5309 115.554 61.254 115.892 60.8341C116.23 60.4143 116.398 59.8823 116.361 59.3443C116.357 59.2658 116.347 59.1876 116.332 59.1104C116.486 59.132 116.643 59.136 116.798 59.1222C117.359 59.0688 117.876 58.7967 118.238 58.3648C118.599 57.9329 118.776 57.376 118.731 56.8145C118.713 56.5382 118.64 56.2683 118.517 56.0204C118.394 55.7725 118.223 55.5516 118.013 55.3707C117.803 55.1899 117.56 55.0526 117.297 54.9669C117.033 54.8813 116.756 54.849 116.48 54.8719C115.919 54.9263 115.403 55.1987 115.041 55.6303C114.68 56.062 114.502 56.6184 114.547 57.1796C114.553 57.2586 114.564 57.3371 114.58 57.4146C114.425 57.3921 114.267 57.3878 114.111 57.4018C113.754 57.4378 113.412 57.5622 113.116 57.7637C112.82 57.9652 112.578 58.2374 112.414 58.5557C112.249 58.8739 112.166 59.2282 112.173 59.5865C112.18 59.9448 112.276 60.2957 112.452 60.6075C111.915 60.6887 111.429 60.9702 111.092 61.3955C110.754 61.8207 110.59 62.3581 110.633 62.8995C110.668 63.4004 110.882 63.872 111.235 64.2288C110.818 64.4068 110.468 64.7114 110.234 65.0995C110 65.4876 109.894 65.9394 109.932 66.3911C109.959 66.7797 110.093 67.1532 110.32 67.4698C110.548 67.7864 110.858 68.0337 111.218 68.184C111.023 68.4014 110.874 68.6557 110.78 68.9318C110.686 69.208 110.648 69.5002 110.67 69.7912C110.702 70.2585 110.89 70.7016 111.203 71.0496C111.516 71.3977 111.938 71.6306 112.399 71.7112C112.044 72.1439 111.87 72.6975 111.914 73.2557C111.948 73.777 112.177 74.2667 112.554 74.6281C112.931 74.9896 113.43 75.1966 113.953 75.2084C113.756 75.5718 113.668 75.9837 113.697 76.3958C113.734 76.9376 113.98 77.4439 114.383 77.8075C114.787 78.171 115.316 78.3634 115.858 78.3437C115.662 78.707 115.573 79.119 115.603 79.5311C115.635 80.0277 115.844 80.4966 116.191 80.853C116.539 81.2094 117.002 81.4298 117.498 81.4745C117.314 81.8321 117.233 82.2331 117.262 82.6338C117.296 83.1516 117.521 83.6383 117.895 83.9985C118.268 84.3588 118.763 84.5666 119.281 84.5813C119.026 84.8032 118.826 85.0817 118.697 85.3945C118.568 85.7073 118.514 86.0459 118.539 86.3833C118.569 86.8138 118.731 87.2246 119.003 87.5597C119.275 87.8947 119.644 88.1378 120.059 88.2557C119.742 88.471 119.487 88.7667 119.32 89.1126C119.154 89.4585 119.083 89.8423 119.113 90.2249C119.136 90.55 119.235 90.8652 119.401 91.1458C119.567 91.4263 119.796 91.6645 120.07 91.8416C119.549 91.9408 119.083 92.2286 118.762 92.65C118.44 93.0714 118.285 93.5967 118.327 94.1251C118.358 94.547 118.514 94.9503 118.775 95.2831C118.469 95.152 118.135 95.0985 117.804 95.1274C117.253 95.1846 116.746 95.4518 116.387 95.8734C116.029 96.295 115.846 96.8386 115.878 97.3911C115.914 97.8795 116.117 98.3407 116.454 98.6964C116.245 98.512 116.001 98.3719 115.737 98.2845C115.472 98.1971 115.193 98.1643 114.916 98.188C114.355 98.2414 113.838 98.5135 113.476 98.9453C113.114 99.3772 112.937 99.9342 112.983 100.496C113.019 101.007 113.24 101.487 113.604 101.847C113.26 101.667 112.871 101.589 112.484 101.622C111.924 101.676 111.407 101.949 111.046 102.38C110.684 102.812 110.507 103.368 110.552 103.93C110.588 104.487 110.845 105.008 111.265 105.377C111.013 105.299 110.749 105.271 110.487 105.294C109.927 105.347 109.409 105.619 109.048 106.051C108.686 106.483 108.509 107.04 108.555 107.602C108.582 108.006 108.726 108.394 108.969 108.718C109.212 109.042 109.543 109.289 109.924 109.429C109.88 109.428 109.836 109.429 109.793 109.432C109.233 109.486 108.716 109.759 108.355 110.19C107.993 110.622 107.816 111.178 107.86 111.74C107.895 112.205 108.083 112.645 108.395 112.992C109.502 112.941 110.598 112.77 111.703 112.707C111.963 112.314 112.088 111.848 112.059 111.379C112.032 110.975 111.887 110.588 111.644 110.264C111.401 109.94 111.07 109.694 110.689 109.555L110.821 109.548C111.381 109.493 111.897 109.22 112.258 108.789C112.619 108.357 112.797 107.802 112.754 107.241C112.716 106.683 112.459 106.163 112.04 105.794C112.291 105.873 112.556 105.901 112.818 105.876C113.223 105.836 113.608 105.682 113.929 105.431C114.25 105.181 114.493 104.845 114.63 104.462C114.767 104.078 114.793 103.664 114.704 103.267C114.616 102.87 114.416 102.506 114.129 102.218C114.473 102.397 114.862 102.475 115.249 102.442C115.809 102.388 116.326 102.116 116.688 101.684C117.049 101.252 117.227 100.696 117.182 100.135C117.146 99.6463 116.943 99.1851 116.606 98.8294C116.815 99.014 117.059 99.1545 117.323 99.2426C117.587 99.3306 117.866 99.3643 118.144 99.3418C118.526 99.303 118.892 99.1625 119.202 98.9347C119.512 98.7069 119.756 98.4003 119.907 98.0466C120.059 97.6929 120.113 97.305 120.064 96.9234C120.015 96.5417 119.865 96.1801 119.629 95.8761C119.935 96.0028 120.267 96.0545 120.597 96.0268C121.155 95.9676 121.668 95.6924 122.025 95.2602C122.383 94.8279 122.557 94.2729 122.511 93.7139Z" fill="#FFE6BD"/>
<path d="M140.149 80.0176C140.306 80.0399 140.465 80.0445 140.623 80.0314C141.183 79.976 141.699 79.7034 142.06 79.272C142.421 78.8406 142.599 78.2848 142.555 77.7238C142.523 77.2495 142.33 76.8004 142.009 76.4503C141.687 76.1002 141.256 75.8698 140.786 75.7972L140.883 75.7939C141.444 75.7395 141.96 75.4671 142.322 75.0355C142.683 74.6038 142.861 74.0475 142.816 73.4862C142.798 73.21 142.726 72.94 142.603 72.6921C142.479 72.4442 142.308 72.2233 142.099 72.0425C141.889 71.8616 141.645 71.7243 141.382 71.6387C141.119 71.553 140.841 71.5207 140.565 71.5436C140.005 71.5981 139.488 71.8704 139.127 72.3021C138.765 72.7337 138.588 73.2901 138.633 73.8513C138.665 74.3256 138.858 74.7747 139.18 75.1248C139.501 75.4749 139.932 75.7053 140.402 75.7779L140.305 75.7812C139.744 75.8347 139.227 76.1065 138.864 76.538C138.502 76.9695 138.324 77.5261 138.368 78.0878C138.39 78.3974 138.481 78.6983 138.632 78.9691C138.784 79.2398 138.994 79.4737 139.246 79.6542C139.091 79.6317 138.933 79.6274 138.777 79.6414C138.346 79.6844 137.938 79.8564 137.607 80.1348C137.275 80.4133 137.036 80.7852 136.919 81.2021C136.802 81.6189 136.814 82.0613 136.953 82.4713C137.091 82.8814 137.351 83.24 137.697 83.5003C137.472 83.4415 137.24 83.4217 137.009 83.4417C136.612 83.4805 136.233 83.6291 135.915 83.8708C135.598 84.1126 135.354 84.4379 135.21 84.8105C135.067 85.1831 135.03 85.5882 135.104 85.9804C135.178 86.3727 135.36 86.7367 135.628 87.0317C135.417 86.8283 135.165 86.6725 134.889 86.5746C134.613 86.4767 134.319 86.4392 134.027 86.4644C133.466 86.5188 132.95 86.7911 132.588 87.2228C132.227 87.6544 132.049 88.2108 132.094 88.772C132.112 89.0486 132.185 89.3189 132.308 89.5673C132.431 89.8158 132.602 90.0375 132.811 90.22C132.459 90.0304 132.059 89.948 131.661 89.9829C131.101 90.0383 130.585 90.3109 130.223 90.7423C129.862 91.1737 129.684 91.7295 129.728 92.2905C129.744 92.4996 129.791 92.7051 129.866 92.901C129.654 92.6949 129.4 92.5369 129.122 92.4378C128.844 92.3386 128.547 92.3007 128.253 92.3265C127.873 92.3648 127.51 92.5033 127.201 92.7281C126.892 92.9529 126.648 93.2557 126.495 93.6056C126.341 93.9555 126.284 94.3399 126.328 94.7194C126.372 95.0989 126.516 95.4599 126.746 95.7654C126.533 95.547 126.274 95.3786 125.989 95.2724C125.703 95.1662 125.397 95.1247 125.093 95.1511C124.737 95.1855 124.395 95.3086 124.098 95.509C123.802 95.7094 123.56 95.9808 123.395 96.2985C123.23 96.6162 123.147 96.9702 123.154 97.3281C123.16 97.6861 123.256 98.0366 123.433 98.348C123.028 98.0572 122.531 97.924 122.035 97.9733C121.474 98.0267 120.957 98.2988 120.595 98.7307C120.233 99.1626 120.056 99.7195 120.102 100.281C120.126 100.631 120.237 100.969 120.425 101.265C120.614 101.56 120.874 101.804 121.181 101.972C120.857 101.906 120.522 101.917 120.202 102.003C119.883 102.09 119.588 102.25 119.342 102.471C119.096 102.691 118.904 102.967 118.784 103.275C118.663 103.583 118.616 103.915 118.647 104.244C118.677 104.675 118.839 105.086 119.111 105.421C119.383 105.756 119.752 105.999 120.167 106.117C119.859 106.097 119.551 106.144 119.264 106.254C118.976 106.365 118.716 106.537 118.502 106.759C118.288 106.98 118.124 107.246 118.023 107.537C117.922 107.828 117.885 108.137 117.915 108.444C117.933 108.72 118.006 108.989 118.129 109.237C118.253 109.485 118.424 109.705 118.634 109.886C118.843 110.067 119.086 110.204 119.349 110.29C119.612 110.376 119.89 110.409 120.166 110.386C120.726 110.331 121.242 110.058 121.603 109.627C121.964 109.195 122.142 108.64 122.098 108.079C122.069 107.648 121.908 107.236 121.636 106.901C121.363 106.566 120.994 106.323 120.578 106.206C121.061 106.233 121.539 106.095 121.934 105.816C122.328 105.536 122.617 105.131 122.753 104.667C122.888 104.203 122.863 103.706 122.68 103.258C122.498 102.81 122.169 102.437 121.748 102.2C121.945 102.243 122.148 102.256 122.349 102.239C122.704 102.203 123.045 102.079 123.341 101.879C123.637 101.678 123.878 101.407 124.043 101.09C124.208 100.773 124.292 100.42 124.287 100.063C124.281 99.7057 124.187 99.3553 124.013 99.0433C124.418 99.3341 124.915 99.4673 125.411 99.418C125.971 99.3625 126.487 99.0899 126.848 98.6585C127.21 98.2271 127.388 97.6713 127.344 97.1103C127.314 96.6992 127.165 96.3057 126.915 95.9781C127.127 96.1962 127.386 96.3644 127.672 96.4707C127.957 96.5769 128.263 96.6185 128.567 96.5924C129.128 96.539 129.645 96.2669 130.006 95.835C130.368 95.4032 130.545 94.8462 130.499 94.2847C130.486 94.0741 130.44 93.8668 130.363 93.6704C130.573 93.8789 130.826 94.0387 131.104 94.1386C131.383 94.2385 131.68 94.2761 131.974 94.2487C132.535 94.1953 133.052 93.9233 133.414 93.4914C133.776 93.0595 133.953 92.5026 133.907 91.9411C133.889 91.6643 133.816 91.3938 133.693 91.1453C133.57 90.8968 133.399 90.6751 133.19 90.4931C133.542 90.6827 133.942 90.7651 134.34 90.7302C134.901 90.6758 135.417 90.4034 135.779 89.9718C136.14 89.5402 136.318 88.9838 136.273 88.4225C136.239 87.944 136.043 87.4913 135.717 87.1391C135.929 87.3426 136.182 87.4985 136.458 87.5965C136.735 87.6945 137.03 87.7324 137.323 87.7075C137.883 87.6521 138.399 87.3795 138.76 86.9481C139.121 86.5167 139.299 85.9609 139.255 85.3999C139.234 85.0967 139.148 84.8015 139.003 84.5345C138.858 84.2674 138.657 84.0346 138.414 83.8518C138.638 83.9112 138.871 83.9311 139.102 83.9104C139.662 83.856 140.179 83.5836 140.54 83.152C140.902 82.7204 141.079 82.164 141.035 81.6027C141.015 81.2892 140.925 80.984 140.772 80.7097C140.619 80.4353 140.406 80.1989 140.149 80.0176Z" fill="#FFE6BD"/>
</g>
<path d="M104.059 125.535C103.908 125.707 103.709 125.828 103.488 125.884C103.266 125.94 103.033 125.927 102.819 125.848C102.605 125.768 102.42 125.626 102.289 125.439C102.158 125.252 102.086 125.03 102.084 124.801C102.082 124.573 102.149 124.35 102.276 124.16C102.404 123.971 102.586 123.825 102.798 123.741C103.011 123.657 103.243 123.64 103.466 123.691C103.688 123.743 103.89 123.86 104.044 124.029C104.245 124.227 104.36 124.497 104.363 124.779C104.366 125.061 104.256 125.333 104.059 125.535Z" fill="#A85000"/>
<path d="M104.034 124.034C103.929 124.009 103.819 124.012 103.715 124.041C103.611 124.071 103.517 124.128 103.441 124.205C103.365 124.282 103.311 124.378 103.283 124.482C103.255 124.587 103.254 124.697 103.282 124.801C103.309 124.906 103.363 125.002 103.438 125.08C103.513 125.157 103.607 125.214 103.711 125.245C103.815 125.276 103.925 125.279 104.03 125.254C104.136 125.23 104.233 125.178 104.312 125.105C104.361 124.918 104.361 124.721 104.312 124.534C104.263 124.346 104.168 124.175 104.034 124.034Z" fill="#A0510A"/>
<path d="M103.616 124.408C103.343 124.113 103.199 123.721 103.215 123.32C103.231 122.918 103.405 122.539 103.7 122.266L107.425 118.815C107.722 118.543 108.114 118.399 108.516 118.415C108.918 118.431 109.297 118.605 109.571 118.9C109.843 119.196 109.986 119.588 109.97 119.99C109.954 120.392 109.78 120.771 109.486 121.045L105.758 124.492C105.462 124.764 105.071 124.907 104.669 124.891C104.268 124.876 103.89 124.702 103.616 124.408Z" fill="#A85000"/>
<path d="M107.495 118.775C107.491 119.296 107.689 119.799 108.048 120.179C108.25 120.413 108.507 120.595 108.795 120.708C109.084 120.821 109.396 120.862 109.703 120.827C109.914 120.526 110.008 120.159 109.968 119.794C109.928 119.429 109.757 119.09 109.486 118.842C109.216 118.593 108.864 118.452 108.497 118.443C108.13 118.434 107.772 118.559 107.49 118.794L107.495 118.775Z" fill="#A0510A"/>
<path d="M104.047 123.657C104.003 123.609 103.969 123.553 103.946 123.491C103.924 123.43 103.913 123.364 103.916 123.299C103.919 123.234 103.935 123.17 103.962 123.11C103.99 123.051 104.029 122.998 104.077 122.953L107.667 119.633C107.715 119.588 107.771 119.553 107.832 119.53C107.894 119.507 107.959 119.497 108.024 119.499C108.09 119.502 108.154 119.517 108.214 119.544C108.273 119.572 108.327 119.61 108.371 119.659C108.416 119.706 108.451 119.763 108.474 119.824C108.497 119.885 108.508 119.951 108.505 120.016C108.503 120.082 108.487 120.146 108.46 120.206C108.433 120.265 108.394 120.319 108.346 120.363L104.751 123.687C104.654 123.775 104.525 123.822 104.393 123.816C104.262 123.811 104.137 123.753 104.047 123.657Z" fill="#D67116"/>
<path d="M110.941 120.113C110.378 120.652 109.342 120.488 108.66 119.753C107.978 119.017 107.902 117.988 108.481 117.453C109.06 116.917 110.085 117.074 110.763 117.809C111.442 118.543 111.523 119.582 110.941 120.113Z" fill="#A85000"/>
<path d="M110.849 119.004C110.622 119.211 110.16 119.074 109.817 118.702C109.473 118.329 109.37 117.854 109.593 117.646C109.816 117.438 110.282 117.575 110.626 117.948C110.97 118.32 111.072 118.796 110.849 119.004Z" fill="#D67116"/>
<path d="M110.145 118.271C110.701 117.495 110.986 116.558 110.956 115.604L111.142 115.583C111.179 116.447 110.959 117.303 110.508 118.042C111.282 117.638 112.447 117.368 112.796 117.441L112.748 117.62C111.868 117.665 111.014 117.933 110.266 118.4L110.145 118.271Z" fill="#773A08"/>
<path d="M133.433 57.6984C133.469 58.1285 133.631 58.5385 133.899 58.8765C134.167 59.2146 134.53 59.4656 134.94 59.5979C135.351 59.7301 135.792 59.7377 136.207 59.6196C136.622 59.5015 136.993 59.2631 137.272 58.9344C137.552 58.6058 137.728 58.2016 137.778 57.773C137.828 57.3443 137.75 56.9105 137.554 56.5262C137.358 56.1419 137.052 55.8244 136.675 55.6138C136.298 55.4032 135.868 55.3089 135.438 55.3429C134.859 55.3896 134.324 55.664 133.948 56.1057C133.572 56.5474 133.387 57.1203 133.433 57.6984Z" fill="#B75F08"/>
<path d="M134.855 56.3463C134.777 56.5469 134.763 56.7664 134.815 56.9752C134.866 57.1841 134.98 57.3722 135.141 57.5142C135.303 57.6562 135.504 57.7453 135.718 57.7694C135.931 57.7936 136.147 57.7516 136.336 57.6492C136.525 57.5468 136.678 57.3889 136.775 57.1968C136.872 57.0046 136.907 56.7875 136.876 56.5747C136.845 56.3618 136.75 56.1636 136.603 56.0065C136.456 55.8495 136.265 55.7413 136.055 55.6966C135.809 55.6252 135.546 55.6534 135.321 55.775C135.097 55.8966 134.929 56.1019 134.855 56.3463Z" fill="#D67116"/>
<path d="M130.019 55.13C130.055 55.5602 130.217 55.9702 130.486 56.3081C130.754 56.6461 131.117 56.8968 131.528 57.0288C131.939 57.1607 132.38 57.1678 132.795 57.0493C133.21 56.9307 133.581 56.6918 133.86 56.3627C134.139 56.0337 134.315 55.6292 134.364 55.2004C134.414 54.7716 134.335 54.3377 134.138 53.9536C133.941 53.5695 133.635 53.2524 133.258 53.0424C132.881 52.8323 132.45 52.7387 132.02 52.7735C131.733 52.7961 131.454 52.875 131.198 53.0059C130.943 53.1367 130.715 53.3168 130.53 53.5358C130.344 53.7548 130.203 54.0084 130.115 54.282C130.028 54.5556 129.995 54.8438 130.019 55.13Z" fill="#B75F08"/>
<path d="M131.442 53.7574C131.365 53.958 131.351 54.1775 131.402 54.3864C131.453 54.5952 131.567 54.7833 131.729 54.9253C131.89 55.0673 132.091 55.1564 132.305 55.1806C132.518 55.2047 132.734 55.1627 132.923 55.0603C133.113 54.9579 133.266 54.8 133.362 54.6079C133.459 54.4157 133.494 54.1986 133.463 53.9858C133.433 53.773 133.337 53.5747 133.19 53.4177C133.044 53.2607 132.852 53.1525 132.642 53.1077C132.396 53.0363 132.133 53.0645 131.908 53.1862C131.684 53.3078 131.516 53.513 131.442 53.7574Z" fill="#D67116"/>
<path d="M126.103 53.4695C126.137 53.8999 126.299 54.3103 126.566 54.649C126.834 54.9876 127.197 55.2392 127.607 55.372C128.018 55.5048 128.459 55.5128 128.875 55.395C129.29 55.2772 129.661 55.0389 129.941 54.7103C130.221 54.3816 130.397 53.9773 130.447 53.5484C130.498 53.1196 130.42 52.6855 130.223 52.301C130.027 51.9166 129.721 51.5989 129.344 51.3884C128.967 51.1778 128.536 51.0837 128.106 51.1179C127.528 51.1649 126.994 51.4389 126.618 51.8797C126.243 52.3205 126.057 52.8922 126.103 53.4695Z" fill="#B75F08"/>
<path d="M127.527 52.1056C127.449 52.3061 127.434 52.5257 127.484 52.7349C127.535 52.944 127.648 53.1327 127.81 53.2753C127.971 53.4179 128.172 53.5076 128.386 53.5323C128.599 53.557 128.816 53.5155 129.005 53.4135C129.194 53.3114 129.348 53.1537 129.445 52.9616C129.542 52.7694 129.577 52.5522 129.547 52.3392C129.517 52.1262 129.421 51.9276 129.275 51.7704C129.128 51.6131 128.936 51.5047 128.726 51.4598C128.481 51.3875 128.218 51.4148 127.993 51.5358C127.769 51.6568 127.601 51.8616 127.527 52.1056Z" fill="#D67116"/>
<path d="M121.832 52.5179C121.867 52.9483 122.028 53.3587 122.296 53.6973C122.564 54.036 122.926 54.2876 123.337 54.4204C123.748 54.5532 124.189 54.5612 124.604 54.4434C125.02 54.3256 125.391 54.0873 125.671 53.7587C125.951 53.43 126.127 53.0257 126.177 52.5968C126.228 52.168 126.15 51.7339 125.953 51.3494C125.757 50.9649 125.451 50.6473 125.074 50.4367C124.697 50.2261 124.266 50.132 123.835 50.1663C123.55 50.1891 123.271 50.268 123.015 50.3985C122.76 50.529 122.533 50.7086 122.347 50.927C122.161 51.1454 122.019 51.3983 121.931 51.6713C121.843 51.9442 121.809 52.2319 121.832 52.5179Z" fill="#B75F08"/>
<path d="M123.247 51.143C123.169 51.3434 123.154 51.5631 123.205 51.7722C123.255 51.9814 123.369 52.17 123.53 52.3126C123.691 52.4552 123.892 52.5449 124.106 52.5696C124.32 52.5944 124.536 52.5529 124.725 52.4508C124.915 52.3488 125.068 52.191 125.165 51.9989C125.262 51.8068 125.298 51.5896 125.267 51.3765C125.237 51.1635 125.142 50.965 124.995 50.8077C124.848 50.6505 124.656 50.5421 124.446 50.4972C124.201 50.4249 123.938 50.4522 123.714 50.5732C123.489 50.6941 123.321 50.899 123.247 51.143Z" fill="#D67116"/>
<path d="M117.556 53.2766C117.591 53.707 117.752 54.1175 118.02 54.4561C118.288 54.7947 118.65 55.0463 119.061 55.1791C119.472 55.3119 119.913 55.3199 120.328 55.2022C120.744 55.0844 121.115 54.8461 121.395 54.5174C121.675 54.1887 121.851 53.7844 121.901 53.3556C121.951 52.9267 121.873 52.4927 121.677 52.1082C121.48 51.7237 121.174 51.4061 120.797 51.1955C120.421 50.9849 119.99 50.8908 119.559 50.925C118.982 50.9721 118.447 51.246 118.072 51.6868C117.696 52.1276 117.511 52.6994 117.556 53.2766Z" fill="#B75F08"/>
<path d="M118.98 51.9166C118.902 52.1172 118.888 52.3367 118.939 52.5455C118.991 52.7544 119.105 52.9425 119.266 53.0845C119.428 53.2265 119.629 53.3156 119.842 53.3397C120.056 53.3639 120.272 53.3219 120.461 53.2195C120.65 53.1171 120.803 52.9592 120.9 52.7671C120.996 52.5749 121.032 52.3578 121.001 52.145C120.97 51.9322 120.875 51.7339 120.728 51.5769C120.581 51.4198 120.39 51.3117 120.179 51.2669C119.934 51.1955 119.671 51.2237 119.446 51.3453C119.221 51.467 119.054 51.6722 118.98 51.9166Z" fill="#D67116"/>
<path d="M113.625 55.2623C113.66 55.6927 113.821 56.1031 114.089 56.4417C114.357 56.7804 114.719 57.032 115.13 57.1648C115.541 57.2976 115.982 57.3056 116.397 57.1878C116.813 57.07 117.184 56.8317 117.464 56.503C117.744 56.1744 117.92 55.77 117.97 55.3412C118.02 54.9124 117.942 54.4783 117.746 54.0938C117.549 53.7093 117.243 53.3917 116.866 53.1811C116.49 52.9705 116.059 52.8764 115.628 52.9107C115.342 52.9334 115.064 53.0123 114.808 53.1429C114.553 53.2734 114.325 53.453 114.139 53.6714C113.953 53.8898 113.812 54.1427 113.724 54.4157C113.636 54.6886 113.602 54.9763 113.625 55.2623Z" fill="#B75F08"/>
<path d="M115.049 53.8986C114.971 54.0991 114.956 54.3187 115.007 54.5279C115.057 54.737 115.171 54.9256 115.332 55.0682C115.493 55.2108 115.694 55.3005 115.908 55.3253C116.122 55.35 116.338 55.3085 116.527 55.2064C116.717 55.1044 116.87 54.9466 116.967 54.7545C117.064 54.5624 117.1 54.3452 117.069 54.1322C117.039 53.9191 116.944 53.7206 116.797 53.5633C116.65 53.4061 116.459 53.2977 116.248 53.2528C116.004 53.1805 115.74 53.2078 115.516 53.3288C115.291 53.4498 115.124 53.6546 115.049 53.8986Z" fill="#D67116"/>
<path d="M111.172 57.8409C111.206 58.2712 111.368 58.6817 111.636 59.0203C111.904 59.3589 112.266 59.6106 112.677 59.7433C113.088 59.8761 113.529 59.8842 113.944 59.7664C114.359 59.6486 114.73 59.4103 115.01 59.0816C115.29 58.7529 115.467 58.3486 115.517 57.9198C115.567 57.491 115.489 57.0569 115.293 56.6724C115.096 56.2879 114.79 55.9703 114.413 55.7597C114.036 55.5491 113.605 55.455 113.175 55.4893C112.598 55.5363 112.063 55.8102 111.687 56.251C111.312 56.6919 111.127 57.2636 111.172 57.8409Z" fill="#B75F08"/>
<path d="M112.608 56.4802C112.53 56.6806 112.515 56.9002 112.565 57.1094C112.616 57.3186 112.73 57.5072 112.891 57.6498C113.052 57.7924 113.253 57.8821 113.467 57.9068C113.68 57.9315 113.897 57.89 114.086 57.788C114.275 57.6859 114.429 57.5282 114.526 57.3361C114.623 57.144 114.659 56.9267 114.628 56.7137C114.598 56.5007 114.502 56.3021 114.356 56.1449C114.209 55.9876 114.017 55.8792 113.807 55.8344C113.562 55.7642 113.3 55.7925 113.076 55.9132C112.852 56.0339 112.684 56.2373 112.608 56.4802Z" fill="#D67116"/>
<path d="M109.578 61.1017C109.614 61.5318 109.776 61.9418 110.045 62.2797C110.313 62.6177 110.676 62.8685 111.087 63.0004C111.498 63.1323 111.939 63.1394 112.354 63.0209C112.769 62.9024 113.139 62.6634 113.419 62.3344C113.698 62.0053 113.874 61.6008 113.923 61.172C113.973 60.7432 113.894 60.3093 113.697 59.9252C113.5 59.5411 113.194 59.224 112.817 59.014C112.44 58.8039 112.009 58.7104 111.578 58.7451C111.292 58.7682 111.013 58.8475 110.758 58.9785C110.502 59.1095 110.275 59.2896 110.09 59.5085C109.904 59.7274 109.763 59.9808 109.675 60.2542C109.587 60.5275 109.554 60.8155 109.578 61.1017Z" fill="#B75F08"/>
<path d="M111.003 59.7378C110.926 59.9376 110.913 60.1561 110.965 60.3637C111.016 60.5713 111.13 60.7582 111.291 60.8992C111.452 61.0402 111.652 61.1285 111.864 61.1524C112.077 61.1762 112.292 61.1344 112.48 61.0325C112.668 60.9307 112.82 60.7737 112.916 60.5826C113.013 60.3915 113.048 60.1756 113.018 59.9638C112.988 59.7521 112.893 59.5546 112.747 59.3981C112.602 59.2415 112.411 59.1334 112.202 59.0881C111.957 59.0157 111.693 59.0434 111.468 59.1651C111.243 59.2869 111.076 59.4929 111.003 59.7378Z" fill="#D67116"/>
<path d="M108.871 64.6627C108.906 65.0929 109.069 65.5028 109.337 65.8408C109.606 66.1787 109.969 66.4295 110.38 66.5614C110.791 66.6933 111.231 66.7005 111.646 66.5819C112.062 66.4634 112.432 66.2245 112.711 65.8954C112.991 65.5663 113.166 65.1618 113.216 64.733C113.265 64.3042 113.187 63.8704 112.99 63.4863C112.793 63.1022 112.486 62.7851 112.109 62.575C111.732 62.365 111.301 62.2714 110.871 62.3061C110.585 62.3292 110.306 62.4086 110.051 62.5396C109.795 62.6706 109.568 62.8507 109.382 63.0695C109.196 63.2884 109.056 63.5418 108.968 63.8152C108.88 64.0886 108.847 64.3766 108.871 64.6627Z" fill="#B75F08"/>
<path d="M110.295 63.2989C110.219 63.4987 110.206 63.7171 110.257 63.9247C110.309 64.1323 110.423 64.3192 110.583 64.4602C110.744 64.6012 110.944 64.6896 111.157 64.7134C111.37 64.7373 111.584 64.6954 111.772 64.5936C111.961 64.4917 112.113 64.3347 112.209 64.1436C112.305 63.9526 112.341 63.7366 112.31 63.5249C112.28 63.3131 112.186 63.1157 112.04 62.9591C111.894 62.8026 111.704 62.6944 111.495 62.6492C111.25 62.5778 110.986 62.606 110.762 62.7276C110.537 62.8493 110.37 63.0545 110.295 63.2989Z" fill="#D67116"/>
<path d="M109.658 68.1471C109.693 68.5772 109.856 68.9872 110.124 69.3251C110.393 69.6631 110.755 69.9139 111.166 70.0458C111.577 70.1777 112.018 70.1848 112.433 70.0663C112.848 69.9478 113.219 69.7089 113.498 69.3798C113.778 69.0507 113.953 68.6462 114.003 68.2174C114.052 67.7886 113.974 67.3548 113.777 66.9707C113.58 66.5866 113.273 66.2695 112.896 66.0594C112.519 65.8493 112.088 65.7558 111.658 65.7905C111.372 65.8136 111.093 65.8929 110.838 66.0239C110.582 66.1549 110.355 66.335 110.169 66.5539C109.983 66.7728 109.842 67.0262 109.755 67.2996C109.667 67.5729 109.634 67.8609 109.658 68.1471Z" fill="#B75F08"/>
<path d="M111.078 66.7821C111.001 66.9827 110.987 67.2022 111.038 67.411C111.089 67.6199 111.203 67.808 111.365 67.95C111.526 68.092 111.727 68.1811 111.941 68.2052C112.155 68.2294 112.371 68.1874 112.56 68.085C112.749 67.9826 112.902 67.8247 112.998 67.6325C113.095 67.4404 113.13 67.2233 113.1 67.0105C113.069 66.7976 112.974 66.5993 112.827 66.4423C112.68 66.2853 112.488 66.1771 112.278 66.1324C112.033 66.0621 111.77 66.0908 111.545 66.2122C111.321 66.3337 111.153 66.5383 111.078 66.7821Z" fill="#D67116"/>
<path d="M110.963 71.7116C110.998 72.1421 111.16 72.5525 111.428 72.891C111.696 73.2295 112.059 73.4809 112.47 73.6134C112.881 73.7458 113.322 73.7534 113.737 73.6352C114.153 73.5169 114.524 73.2782 114.803 72.9491C115.083 72.62 115.259 72.2153 115.308 71.7863C115.358 71.3573 115.279 70.9233 115.082 70.539C114.885 70.1547 114.579 69.8374 114.201 69.6274C113.824 69.4174 113.393 69.324 112.962 69.359C112.385 69.4059 111.85 69.6802 111.476 70.1213C111.101 70.5625 110.916 71.1346 110.963 71.7116Z" fill="#B75F08"/>
<path d="M112.392 70.3321C112.314 70.5327 112.3 70.7522 112.352 70.9611C112.403 71.1699 112.517 71.358 112.678 71.5C112.84 71.642 113.041 71.7311 113.254 71.7553C113.468 71.7794 113.684 71.7374 113.873 71.635C114.062 71.5326 114.215 71.3747 114.312 71.1826C114.408 70.9904 114.444 70.7733 114.413 70.5605C114.382 70.3477 114.287 70.1494 114.14 69.9924C113.993 69.8354 113.802 69.7272 113.591 69.6824C113.346 69.611 113.083 69.6392 112.858 69.7609C112.634 69.8825 112.466 70.0877 112.392 70.3321Z" fill="#D67116"/>
<path d="M112.847 74.9123C112.882 75.3428 113.044 75.7532 113.312 76.0917C113.58 76.4302 113.943 76.6816 114.354 76.8141C114.765 76.9465 115.206 76.9541 115.621 76.8359C116.037 76.7176 116.408 76.4788 116.687 76.1498C116.967 75.8207 117.143 75.416 117.193 74.987C117.242 74.558 117.164 74.1239 116.967 73.7396C116.769 73.3554 116.463 73.0381 116.086 72.8281C115.708 72.6181 115.277 72.5246 114.847 72.5597C114.27 72.6066 113.735 72.8808 113.36 73.322C112.985 73.7632 112.801 74.3352 112.847 74.9123Z" fill="#B75F08"/>
<path d="M114.268 73.5473C114.19 73.7477 114.175 73.9674 114.225 74.1765C114.276 74.3857 114.389 74.5743 114.551 74.7169C114.712 74.8595 114.913 74.9492 115.127 74.9739C115.34 74.9987 115.556 74.9572 115.746 74.8551C115.935 74.7531 116.089 74.5953 116.186 74.4032C116.283 74.2111 116.318 73.9939 116.288 73.7808C116.258 73.5678 116.162 73.3693 116.016 73.212C115.869 73.0548 115.677 72.9464 115.467 72.9015C115.222 72.8314 114.96 72.8597 114.736 72.9803C114.512 73.101 114.344 73.3045 114.268 73.5473Z" fill="#D67116"/>
<path d="M114.841 78.1423C114.876 78.5723 115.038 78.9823 115.306 79.3204C115.575 79.6585 115.937 79.9095 116.348 80.0417C116.759 80.174 117.199 80.1815 117.614 80.0635C118.029 79.9454 118.4 79.707 118.68 79.3783C118.96 79.0496 119.136 78.6454 119.186 78.2168C119.236 77.7882 119.158 77.3543 118.961 76.97C118.765 76.5857 118.459 76.2682 118.083 76.0576C117.706 75.847 117.275 75.7528 116.845 75.7868C116.267 75.8335 115.731 76.1079 115.355 76.5496C114.979 76.9913 114.794 77.5642 114.841 78.1423Z" fill="#B75F08"/>
<path d="M116.265 76.7784C116.188 76.979 116.174 77.1985 116.225 77.4074C116.276 77.6162 116.39 77.8043 116.552 77.9463C116.713 78.0883 116.914 78.1774 117.128 78.2015C117.342 78.2257 117.558 78.1837 117.747 78.0813C117.936 77.9789 118.089 77.821 118.185 77.6289C118.282 77.4367 118.317 77.2196 118.287 77.0068C118.256 76.794 118.161 76.5957 118.014 76.4387C117.867 76.2817 117.675 76.1735 117.465 76.1287C117.22 76.0573 116.956 76.0855 116.732 76.2072C116.507 76.3288 116.34 76.534 116.265 76.7784Z" fill="#D67116"/>
<path d="M116.583 81.3257C116.618 81.757 116.78 82.1683 117.048 82.5076C117.316 82.847 117.68 83.0991 118.091 83.2321C118.503 83.3651 118.945 83.373 119.361 83.2548C119.777 83.1366 120.149 82.8976 120.43 82.568C120.71 82.2385 120.886 81.8332 120.936 81.4034C120.986 80.9736 120.908 80.5387 120.711 80.1535C120.513 79.7684 120.206 79.4504 119.828 79.2398C119.45 79.0291 119.019 78.9353 118.587 78.9702C118.009 79.0169 117.473 79.2913 117.098 79.733C116.722 80.1747 116.537 80.7476 116.583 81.3257Z" fill="#B75F08"/>
<path d="M118.008 79.962C117.93 80.1626 117.916 80.3821 117.967 80.591C118.019 80.7998 118.133 80.9879 118.294 81.1299C118.456 81.2719 118.657 81.361 118.87 81.3851C119.084 81.4093 119.3 81.3673 119.489 81.2649C119.678 81.1625 119.831 81.0046 119.928 80.8125C120.024 80.6203 120.06 80.4032 120.029 80.1904C119.998 79.9776 119.903 79.7793 119.756 79.6223C119.609 79.4652 119.418 79.3571 119.207 79.3123C118.962 79.242 118.699 79.2707 118.475 79.3922C118.251 79.5136 118.083 79.7182 118.008 79.962Z" fill="#D67116"/>
<path d="M117.935 85.1706C117.97 85.6011 118.131 86.0115 118.4 86.35C118.668 86.6885 119.03 86.9399 119.441 87.0724C119.852 87.2048 120.294 87.2124 120.709 87.0942C121.124 86.9759 121.495 86.7371 121.775 86.4081C122.055 86.079 122.23 85.6743 122.28 85.2453C122.33 84.8163 122.251 84.3822 122.054 83.9979C121.857 83.6137 121.55 83.2964 121.173 83.0864C120.796 82.8764 120.364 82.7829 119.934 82.818C119.357 82.8649 118.822 83.1391 118.447 83.5803C118.072 84.0215 117.888 84.5935 117.935 85.1706Z" fill="#B75F08"/>
<path d="M119.359 83.8068C119.281 84.0073 119.266 84.2269 119.317 84.4361C119.367 84.6452 119.481 84.8338 119.642 84.9764C119.803 85.119 120.004 85.2088 120.218 85.2335C120.432 85.2582 120.648 85.2167 120.837 85.1146C121.027 85.0126 121.18 84.8548 121.277 84.6627C121.374 84.4706 121.41 84.2534 121.379 84.0404C121.349 83.8273 121.254 83.6288 121.107 83.4716C120.96 83.3143 120.768 83.2059 120.558 83.161C120.313 83.0898 120.051 83.1176 119.826 83.2384C119.602 83.3593 119.434 83.5634 119.359 83.8068Z" fill="#D67116"/>
<path d="M118.538 89.1079C118.573 89.538 118.735 89.9479 119.003 90.286C119.271 90.6241 119.634 90.8751 120.044 91.0073C120.455 91.1396 120.896 91.1472 121.311 91.0291C121.726 90.911 122.097 90.6726 122.377 90.3439C122.656 90.0152 122.832 89.6111 122.882 89.1824C122.932 88.7538 122.854 88.32 122.658 87.9357C122.462 87.5514 122.156 87.2339 121.779 87.0233C121.402 86.8127 120.972 86.7184 120.542 86.7524C120.255 86.775 119.976 86.8539 119.72 86.9846C119.464 87.1154 119.237 87.2953 119.051 87.5141C118.864 87.7329 118.723 87.9864 118.635 88.2599C118.547 88.5333 118.514 88.8215 118.538 89.1079Z" fill="#B75F08"/>
<path d="M119.962 87.7439C119.886 87.9438 119.872 88.1622 119.924 88.3698C119.975 88.5774 120.089 88.7643 120.25 88.9053C120.411 89.0463 120.611 89.1347 120.823 89.1585C121.036 89.1823 121.251 89.1405 121.439 89.0386C121.627 88.9368 121.779 88.7798 121.876 88.5887C121.972 88.3976 122.007 88.1817 121.977 87.9699C121.947 87.7582 121.852 87.5608 121.707 87.4042C121.561 87.2476 121.371 87.1395 121.162 87.0942C120.916 87.0218 120.652 87.0495 120.428 87.1712C120.203 87.293 120.035 87.499 119.962 87.7439Z" fill="#D67116"/>
<path d="M117.737 93.0962C117.771 93.5265 117.933 93.937 118.201 94.2756C118.468 94.6143 118.831 94.8659 119.242 94.9987C119.652 95.1315 120.093 95.1395 120.509 95.0217C120.924 94.9039 121.295 94.6656 121.575 94.3369C121.855 94.0082 122.031 93.6039 122.082 93.1751C122.132 92.7463 122.054 92.3122 121.857 91.9277C121.661 91.5432 121.355 91.2256 120.978 91.015C120.601 90.8044 120.17 90.7103 119.74 90.7446C119.163 90.7926 118.629 91.0669 118.253 91.5074C117.878 91.948 117.692 92.5191 117.737 93.0962Z" fill="#B75F08"/>
<path d="M119.161 91.7323C119.083 91.9328 119.068 92.1524 119.119 92.3616C119.169 92.5708 119.283 92.7594 119.444 92.902C119.605 93.0446 119.806 93.1343 120.02 93.159C120.234 93.1837 120.45 93.1422 120.639 93.0402C120.829 92.9381 120.982 92.7804 121.079 92.5883C121.176 92.3961 121.212 92.1789 121.181 91.9659C121.151 91.7529 121.056 91.5543 120.909 91.3971C120.762 91.2398 120.57 91.1314 120.36 91.0866C120.115 91.0142 119.852 91.0415 119.628 91.1625C119.403 91.2835 119.235 91.4883 119.161 91.7323Z" fill="#D67116"/>
<path d="M115.197 96.4803C115.233 96.9105 115.395 97.3204 115.664 97.6584C115.932 97.9964 116.295 98.2471 116.706 98.379C117.117 98.511 117.558 98.5181 117.973 98.3996C118.388 98.281 118.759 98.0421 119.038 97.713C119.317 97.3839 119.493 96.9795 119.542 96.5507C119.592 96.1219 119.513 95.688 119.316 95.3039C119.119 94.9198 118.813 94.6027 118.436 94.3927C118.059 94.1826 117.628 94.089 117.198 94.1238C116.911 94.1469 116.633 94.2262 116.377 94.3572C116.122 94.4882 115.894 94.6683 115.709 94.8872C115.523 95.1061 115.382 95.3594 115.294 95.6328C115.207 95.9062 115.174 96.1942 115.197 96.4803Z" fill="#A85000"/>
<path d="M116.622 95.1163C116.545 95.3169 116.531 95.5364 116.582 95.7452C116.633 95.9541 116.747 96.1422 116.908 96.2842C117.07 96.4262 117.271 96.5153 117.485 96.5394C117.698 96.5636 117.914 96.5216 118.103 96.4192C118.292 96.3168 118.446 96.1589 118.542 95.9668C118.639 95.7746 118.674 95.5575 118.643 95.3447C118.613 95.1319 118.517 94.9336 118.37 94.7766C118.223 94.6195 118.032 94.5114 117.822 94.4666C117.576 94.3952 117.313 94.4234 117.088 94.545C116.864 94.6667 116.696 94.8719 116.622 95.1163Z" fill="#D67116"/>
<path d="M112.187 99.6377C112.222 100.068 112.383 100.479 112.651 100.817C112.919 101.156 113.281 101.407 113.692 101.54C114.103 101.673 114.544 101.681 114.959 101.563C115.375 101.445 115.746 101.207 116.026 100.878C116.306 100.55 116.482 100.145 116.532 99.7167C116.582 99.2878 116.504 98.8537 116.308 98.4692C116.112 98.0848 115.805 97.7672 115.429 97.5566C115.052 97.346 114.621 97.2519 114.19 97.2861C113.613 97.3331 113.078 97.6071 112.703 98.0479C112.327 98.4887 112.142 99.0604 112.187 99.6377Z" fill="#A85000"/>
<path d="M113.611 98.2739C113.533 98.4743 113.518 98.6939 113.569 98.9031C113.619 99.1123 113.733 99.3009 113.894 99.4435C114.055 99.5861 114.256 99.6758 114.47 99.7005C114.684 99.7252 114.9 99.6837 115.089 99.5817C115.279 99.4796 115.432 99.3219 115.529 99.1298C115.626 98.9377 115.662 98.7204 115.631 98.5074C115.601 98.2944 115.506 98.0958 115.359 97.9386C115.212 97.7813 115.021 97.6729 114.81 97.6281C114.566 97.5568 114.303 97.5847 114.079 97.7055C113.854 97.8263 113.687 98.0304 113.611 98.2739Z" fill="#D67116"/>
<path d="M109.673 103.146C109.708 103.576 109.869 103.987 110.137 104.325C110.405 104.664 110.767 104.916 111.178 105.049C111.589 105.181 112.03 105.189 112.445 105.072C112.86 104.954 113.232 104.715 113.512 104.387C113.792 104.058 113.968 103.654 114.018 103.225C114.068 102.796 113.99 102.362 113.794 101.978C113.597 101.593 113.291 101.275 112.914 101.065C112.537 100.854 112.107 100.76 111.676 100.794C111.099 100.841 110.564 101.115 110.189 101.556C109.813 101.997 109.628 102.569 109.673 103.146Z" fill="#A85000"/>
<path d="M111.098 101.782C111.019 101.983 111.004 102.202 111.055 102.411C111.106 102.621 111.219 102.809 111.38 102.952C111.541 103.094 111.742 103.184 111.956 103.209C112.17 103.234 112.386 103.192 112.576 103.09C112.765 102.988 112.918 102.83 113.015 102.638C113.112 102.446 113.148 102.229 113.118 102.016C113.087 101.803 112.992 101.604 112.845 101.447C112.698 101.29 112.507 101.181 112.296 101.136C112.052 101.065 111.789 101.093 111.565 101.214C111.34 101.335 111.173 101.539 111.098 101.782Z" fill="#D67116"/>
<path d="M107.611 106.888C107.646 107.319 107.807 107.729 108.075 108.068C108.343 108.407 108.705 108.658 109.116 108.791C109.527 108.924 109.968 108.932 110.383 108.814C110.799 108.696 111.17 108.458 111.45 108.129C111.73 107.801 111.906 107.396 111.956 106.967C112.007 106.539 111.928 106.104 111.732 105.72C111.536 105.335 111.23 105.018 110.853 104.807C110.476 104.597 110.045 104.503 109.614 104.537C109.037 104.584 108.502 104.858 108.127 105.299C107.751 105.739 107.566 106.311 107.611 106.888Z" fill="#A85000"/>
<path d="M109.037 105.521C108.959 105.721 108.944 105.941 108.994 106.15C109.045 106.359 109.158 106.548 109.319 106.69C109.481 106.833 109.682 106.923 109.895 106.947C110.109 106.972 110.325 106.931 110.515 106.829C110.704 106.726 110.858 106.569 110.955 106.377C111.052 106.184 111.087 105.967 111.057 105.754C111.026 105.541 110.931 105.343 110.784 105.185C110.637 105.028 110.446 104.92 110.235 104.875C109.991 104.805 109.729 104.833 109.505 104.954C109.281 105.074 109.113 105.278 109.037 105.521Z" fill="#D67116"/>
<path d="M106.911 111.125C106.946 111.556 107.108 111.966 107.376 112.305C107.644 112.643 108.007 112.895 108.418 113.027C108.829 113.16 109.27 113.167 109.686 113.049C110.101 112.931 110.472 112.692 110.752 112.363C111.031 112.034 111.207 111.629 111.257 111.2C111.306 110.771 111.228 110.337 111.031 109.953C110.834 109.569 110.527 109.251 110.15 109.041C109.772 108.831 109.341 108.738 108.911 108.773C108.625 108.796 108.346 108.875 108.091 109.005C107.835 109.136 107.608 109.316 107.423 109.534C107.237 109.753 107.096 110.006 107.008 110.279C106.921 110.552 106.888 110.84 106.911 111.125Z" fill="#A85000"/>
<path d="M108.336 109.762C108.258 109.962 108.243 110.182 108.293 110.391C108.344 110.6 108.457 110.789 108.618 110.931C108.78 111.074 108.981 111.164 109.194 111.188C109.408 111.213 109.624 111.172 109.814 111.069C110.003 110.967 110.157 110.81 110.254 110.618C110.351 110.425 110.386 110.208 110.356 109.995C110.325 109.782 110.23 109.584 110.083 109.426C109.937 109.269 109.745 109.161 109.534 109.116C109.413 109.079 109.286 109.067 109.16 109.08C109.035 109.093 108.913 109.13 108.801 109.19C108.69 109.25 108.592 109.332 108.512 109.43C108.432 109.528 108.372 109.641 108.336 109.762Z" fill="#D67116"/>
<path d="M108.168 115.23C108.204 115.66 108.366 116.07 108.634 116.408C108.902 116.746 109.264 116.997 109.675 117.129C110.086 117.261 110.527 117.269 110.942 117.151C111.357 117.033 111.728 116.794 112.007 116.466C112.287 116.137 112.463 115.733 112.513 115.304C112.563 114.876 112.485 114.442 112.289 114.057C112.092 113.673 111.787 113.356 111.41 113.145C111.033 112.934 110.603 112.84 110.172 112.874C109.594 112.921 109.058 113.195 108.683 113.637C108.307 114.079 108.122 114.652 108.168 115.23Z" fill="#A85000"/>
<path d="M109.605 113.869C109.527 114.07 109.513 114.289 109.564 114.498C109.616 114.707 109.73 114.895 109.891 115.037C110.053 115.179 110.254 115.268 110.467 115.292C110.681 115.316 110.897 115.274 111.086 115.172C111.275 115.07 111.428 114.912 111.525 114.719C111.621 114.527 111.657 114.31 111.626 114.097C111.595 113.885 111.5 113.686 111.353 113.529C111.206 113.372 111.015 113.264 110.804 113.219C110.559 113.149 110.296 113.178 110.072 113.299C109.848 113.421 109.68 113.625 109.605 113.869Z" fill="#D67116"/>
<path d="M111.587 117.891C111.621 118.321 111.783 118.732 112.051 119.071C112.319 119.409 112.681 119.661 113.092 119.794C113.502 119.926 113.943 119.934 114.359 119.817C114.774 119.699 115.145 119.461 115.425 119.132C115.705 118.803 115.882 118.399 115.932 117.97C115.982 117.541 115.904 117.107 115.708 116.723C115.511 116.338 115.205 116.021 114.828 115.81C114.451 115.599 114.02 115.505 113.59 115.539C113.013 115.588 112.479 115.862 112.104 116.302C111.728 116.743 111.543 117.314 111.587 117.891Z" fill="#A85000"/>
<path d="M113.011 116.527C112.933 116.728 112.918 116.947 112.969 117.157C113.019 117.366 113.133 117.554 113.294 117.697C113.455 117.839 113.656 117.929 113.87 117.954C114.083 117.979 114.3 117.937 114.489 117.835C114.679 117.733 114.832 117.575 114.929 117.383C115.026 117.191 115.062 116.974 115.031 116.761C115.001 116.548 114.906 116.349 114.759 116.192C114.612 116.035 114.42 115.926 114.21 115.881C113.965 115.809 113.702 115.836 113.477 115.957C113.253 116.078 113.085 116.283 113.011 116.527Z" fill="#D67116"/>
<path d="M115.579 116.269C115.615 116.699 115.777 117.109 116.045 117.447C116.313 117.785 116.676 118.036 117.086 118.169C117.497 118.301 117.938 118.309 118.353 118.19C118.768 118.072 119.139 117.834 119.419 117.505C119.698 117.177 119.874 116.772 119.924 116.344C119.974 115.915 119.896 115.481 119.7 115.097C119.504 114.713 119.198 114.395 118.821 114.185C118.444 113.974 118.014 113.88 117.584 113.914C117.297 113.936 117.018 114.015 116.762 114.146C116.506 114.277 116.279 114.457 116.093 114.675C115.906 114.894 115.765 115.148 115.677 115.421C115.589 115.695 115.556 115.983 115.579 116.269Z" fill="#A85000"/>
<path d="M117.004 114.906C116.928 115.105 116.914 115.324 116.966 115.531C117.017 115.739 117.131 115.926 117.292 116.067C117.453 116.208 117.653 116.296 117.865 116.32C118.078 116.344 118.293 116.302 118.481 116.2C118.669 116.098 118.821 115.941 118.918 115.75C119.014 115.559 119.049 115.343 119.019 115.132C118.989 114.92 118.894 114.722 118.749 114.566C118.603 114.409 118.413 114.301 118.204 114.256C117.958 114.183 117.694 114.211 117.47 114.333C117.245 114.455 117.077 114.661 117.004 114.906Z" fill="#D67116"/>
<path d="M116.259 111.998C116.294 112.429 116.456 112.84 116.724 113.18C116.993 113.519 117.356 113.771 117.768 113.904C118.179 114.037 118.621 114.045 119.037 113.927C119.454 113.808 119.825 113.569 120.106 113.24C120.386 112.91 120.563 112.505 120.613 112.075C120.663 111.645 120.584 111.211 120.387 110.825C120.19 110.44 119.883 110.122 119.505 109.912C119.127 109.701 118.695 109.607 118.264 109.642C117.685 109.689 117.15 109.963 116.774 110.405C116.398 110.847 116.213 111.419 116.259 111.998Z" fill="#A85000"/>
<path d="M117.684 110.634C117.607 110.834 117.593 111.054 117.644 111.263C117.695 111.472 117.809 111.66 117.97 111.802C118.132 111.944 118.333 112.033 118.547 112.057C118.76 112.081 118.976 112.039 119.165 111.937C119.354 111.834 119.508 111.676 119.604 111.484C119.701 111.292 119.736 111.075 119.705 110.862C119.675 110.649 119.579 110.451 119.432 110.294C119.285 110.137 119.094 110.029 118.884 109.984C118.638 109.913 118.375 109.941 118.15 110.063C117.926 110.184 117.758 110.389 117.684 110.634Z" fill="#D67116"/>
<path d="M117.395 107.76C117.43 108.192 117.591 108.603 117.86 108.942C118.128 109.282 118.491 109.534 118.903 109.667C119.315 109.8 119.757 109.808 120.173 109.689C120.589 109.571 120.961 109.332 121.241 109.003C121.522 108.673 121.698 108.268 121.748 107.838C121.798 107.408 121.72 106.973 121.522 106.588C121.325 106.203 121.018 105.885 120.64 105.674C120.262 105.464 119.83 105.37 119.399 105.405C118.821 105.451 118.285 105.726 117.909 106.168C117.533 106.609 117.348 107.182 117.395 107.76Z" fill="#A85000"/>
<path d="M118.815 106.412C118.738 106.613 118.724 106.832 118.775 107.041C118.826 107.25 118.94 107.438 119.102 107.58C119.263 107.722 119.464 107.811 119.678 107.835C119.891 107.859 120.107 107.817 120.296 107.715C120.486 107.612 120.639 107.455 120.735 107.262C120.832 107.07 120.867 106.853 120.836 106.64C120.806 106.428 120.71 106.229 120.564 106.072C120.417 105.915 120.225 105.807 120.015 105.762C119.77 105.691 119.506 105.719 119.281 105.841C119.057 105.962 118.889 106.168 118.815 106.412Z" fill="#D67116"/>
<path d="M118.128 103.494C118.163 103.924 118.325 104.334 118.593 104.672C118.862 105.011 119.224 105.262 119.635 105.394C120.045 105.526 120.486 105.534 120.901 105.416C121.316 105.297 121.687 105.059 121.967 104.73C122.246 104.402 122.422 103.997 122.472 103.569C122.523 103.14 122.445 102.706 122.248 102.322C122.052 101.938 121.746 101.62 121.369 101.41C120.993 101.199 120.562 101.105 120.132 101.139C119.554 101.186 119.018 101.46 118.642 101.902C118.266 102.343 118.081 102.916 118.128 103.494Z" fill="#A85000"/>
<path d="M119.552 102.13C119.475 102.331 119.461 102.551 119.512 102.759C119.563 102.968 119.677 103.156 119.839 103.298C120 103.44 120.201 103.529 120.415 103.554C120.629 103.578 120.844 103.536 121.034 103.433C121.223 103.331 121.376 103.173 121.472 102.981C121.569 102.789 121.604 102.572 121.573 102.359C121.543 102.146 121.447 101.948 121.301 101.791C121.154 101.634 120.962 101.526 120.752 101.481C120.507 101.41 120.244 101.439 120.019 101.561C119.795 101.682 119.627 101.887 119.552 102.13Z" fill="#D67116"/>
<path d="M119.625 99.4373C119.66 99.8677 119.821 100.278 120.089 100.617C120.357 100.955 120.719 101.207 121.13 101.34C121.541 101.473 121.982 101.481 122.397 101.363C122.812 101.245 123.184 101.007 123.464 100.678C123.743 100.349 123.92 99.9451 123.97 99.5162C124.02 99.0874 123.942 98.6533 123.746 98.2688C123.549 97.8843 123.243 97.5667 122.866 97.3561C122.489 97.1455 122.059 97.0514 121.628 97.0857C121.051 97.1327 120.516 97.4067 120.141 97.8475C119.765 98.2883 119.58 98.86 119.625 99.4373Z" fill="#A85000"/>
<path d="M121.048 98.0775C120.971 98.2781 120.957 98.4976 121.008 98.7064C121.059 98.9153 121.173 99.1034 121.335 99.2454C121.496 99.3874 121.698 99.4765 121.911 99.5006C122.125 99.5248 122.341 99.4828 122.53 99.3804C122.719 99.278 122.872 99.1201 122.969 98.928C123.065 98.7358 123.1 98.5187 123.07 98.3059C123.039 98.093 122.944 97.8948 122.797 97.7377C122.65 97.5807 122.458 97.4725 122.248 97.4278C122.003 97.3564 121.739 97.3846 121.515 97.5062C121.29 97.6278 121.123 97.8331 121.048 98.0775Z" fill="#D67116"/>
<path d="M122.793 96.5816C122.829 97.0118 122.991 97.4218 123.259 97.7597C123.528 98.0977 123.891 98.3484 124.302 98.4804C124.713 98.6123 125.154 98.6194 125.569 98.5009C125.984 98.3823 126.354 98.1434 126.634 97.8143C126.913 97.4853 127.088 97.0808 127.138 96.652C127.187 96.2232 127.109 95.7893 126.912 95.4052C126.715 95.0211 126.409 94.704 126.031 94.494C125.654 94.2839 125.223 94.1903 124.793 94.2251C124.507 94.2482 124.228 94.3275 123.973 94.4585C123.717 94.5895 123.49 94.7696 123.304 94.9885C123.119 95.2074 122.978 95.4608 122.89 95.7341C122.802 96.0075 122.769 96.2955 122.793 96.5816Z" fill="#B75F08"/>
<path d="M124.217 95.2176C124.14 95.4182 124.126 95.6377 124.177 95.8466C124.228 96.0554 124.342 96.2435 124.504 96.3855C124.665 96.5275 124.866 96.6166 125.08 96.6408C125.294 96.6649 125.51 96.6229 125.699 96.5205C125.888 96.4181 126.041 96.2602 126.138 96.0681C126.234 95.8759 126.269 95.6588 126.239 95.446C126.208 95.2332 126.113 95.0349 125.966 94.8779C125.819 94.7209 125.627 94.6127 125.417 94.5679C125.172 94.4976 124.909 94.5263 124.685 94.6478C124.46 94.7693 124.293 94.9738 124.217 95.2176Z" fill="#D67116"/>
<path d="M126.075 93.7061C126.111 94.1363 126.273 94.5463 126.541 94.8842C126.81 95.2222 127.173 95.473 127.584 95.6049C127.995 95.7368 128.436 95.7439 128.851 95.6254C129.266 95.5068 129.636 95.2679 129.916 94.9389C130.195 94.6098 130.37 94.2053 130.42 93.7765C130.469 93.3477 130.391 92.9138 130.194 92.5297C129.997 92.1456 129.691 91.8285 129.313 91.6185C128.936 91.4084 128.505 91.3149 128.075 91.3496C127.789 91.3727 127.51 91.452 127.255 91.583C126.999 91.714 126.772 91.8941 126.586 92.113C126.401 92.3319 126.26 92.5853 126.172 92.8586C126.084 93.132 126.051 93.42 126.075 93.7061Z" fill="#B75F08"/>
<path d="M127.492 92.3402C127.414 92.5408 127.4 92.7603 127.451 92.9691C127.503 93.178 127.617 93.3661 127.778 93.5081C127.94 93.6501 128.141 93.7392 128.354 93.7633C128.568 93.7875 128.784 93.7455 128.973 93.6431C129.162 93.5407 129.315 93.3828 129.412 93.1906C129.508 92.9985 129.544 92.7814 129.513 92.5686C129.482 92.3557 129.387 92.1574 129.24 92.0004C129.093 91.8434 128.902 91.7352 128.691 91.6905C128.446 91.6202 128.183 91.6489 127.959 91.7703C127.734 91.8918 127.567 92.0964 127.492 92.3402Z" fill="#D67116"/>
<path d="M129.607 91.3204C129.642 91.7505 129.805 92.1605 130.073 92.4984C130.342 92.8364 130.704 93.0872 131.115 93.2191C131.526 93.351 131.967 93.3581 132.382 93.2396C132.797 93.1211 133.168 92.8821 133.447 92.5531C133.726 92.224 133.902 91.8195 133.952 91.3907C134.001 90.9619 133.922 90.5281 133.725 90.144C133.529 89.7599 133.222 89.4427 132.845 89.2327C132.468 89.0226 132.037 88.9291 131.607 88.9638C131.029 89.0115 130.494 89.2865 130.119 89.7283C129.744 90.1701 129.56 90.7427 129.607 91.3204Z" fill="#B75F08"/>
<path d="M131.031 89.9566C130.954 90.1572 130.94 90.3767 130.991 90.5856C131.042 90.7944 131.156 90.9825 131.318 91.1245C131.479 91.2665 131.68 91.3556 131.894 91.3798C132.108 91.4039 132.323 91.362 132.513 91.2596C132.702 91.1572 132.855 90.9992 132.951 90.8071C133.048 90.615 133.083 90.3978 133.052 90.185C133.022 89.9722 132.926 89.7739 132.78 89.6169C132.633 89.4599 132.441 89.3517 132.231 89.3069C131.986 89.2356 131.722 89.2637 131.498 89.3854C131.273 89.507 131.105 89.7123 131.031 89.9566Z" fill="#D67116"/>
<path d="M132.05 87.7305C132.085 88.1609 132.246 88.5714 132.514 88.91C132.782 89.2486 133.144 89.5002 133.555 89.633C133.966 89.7658 134.407 89.7738 134.822 89.6561C135.238 89.5383 135.609 89.3 135.889 88.9713C136.169 88.6426 136.345 88.2383 136.395 87.8095C136.446 87.3806 136.368 86.9466 136.171 86.5621C135.975 86.1776 135.669 85.86 135.292 85.6494C134.915 85.4388 134.484 85.3447 134.053 85.3789C133.768 85.4017 133.489 85.4806 133.233 85.6111C132.978 85.7417 132.751 85.9212 132.565 86.1396C132.379 86.358 132.237 86.6109 132.149 86.8839C132.061 87.1569 132.027 87.4446 132.05 87.7305Z" fill="#B75F08"/>
<path d="M133.483 86.3688C133.405 86.5693 133.39 86.7889 133.44 86.9981C133.491 87.2072 133.604 87.3958 133.765 87.5384C133.927 87.6811 134.128 87.7708 134.341 87.7955C134.555 87.8202 134.771 87.7787 134.961 87.6767C135.15 87.5746 135.304 87.4168 135.401 87.2247C135.498 87.0326 135.533 86.8154 135.503 86.6024C135.472 86.3894 135.377 86.1908 135.23 86.0336C135.083 85.8763 134.892 85.7679 134.681 85.723C134.437 85.6507 134.174 85.678 133.949 85.799C133.725 85.92 133.557 86.1248 133.483 86.3688Z" fill="#D67116"/>
<path d="M135.141 84.6491C135.176 85.0792 135.339 85.4892 135.607 85.8271C135.876 86.1651 136.238 86.4159 136.649 86.5478C137.06 86.6797 137.501 86.6868 137.916 86.5683C138.331 86.4498 138.702 86.2109 138.981 85.8818C139.261 85.5527 139.436 85.1482 139.486 84.7194C139.535 84.2906 139.457 83.8568 139.26 83.4727C139.063 83.0886 138.756 82.7715 138.379 82.5614C138.002 82.3514 137.571 82.2578 137.141 82.2925C136.855 82.3151 136.576 82.3941 136.32 82.5249C136.064 82.6557 135.837 82.8358 135.651 83.0548C135.465 83.2738 135.324 83.5274 135.237 83.801C135.149 84.0746 135.117 84.3628 135.141 84.6491Z" fill="#B75F08"/>
<path d="M136.561 83.284C136.484 83.4846 136.47 83.7041 136.521 83.913C136.572 84.1218 136.686 84.3099 136.848 84.4519C137.009 84.5939 137.21 84.683 137.424 84.7072C137.638 84.7313 137.854 84.6893 138.043 84.5869C138.232 84.4845 138.385 84.3266 138.482 84.1345C138.578 83.9424 138.613 83.7252 138.583 83.5124C138.552 83.2996 138.457 83.1013 138.31 82.9443C138.163 82.7873 137.971 82.6791 137.761 82.6343C137.516 82.5629 137.252 82.5911 137.028 82.7128C136.803 82.8344 136.636 83.0396 136.561 83.284Z" fill="#D67116"/>
<path d="M136.959 80.7701C136.994 81.2015 137.156 81.6128 137.425 81.9521C137.693 82.2913 138.057 82.5432 138.469 82.6758C138.881 82.8085 139.323 82.8159 139.739 82.6972C140.155 82.5786 140.527 82.3391 140.807 82.0092C141.087 81.6792 141.263 81.2736 141.312 80.8437C141.362 80.4137 141.282 79.9787 141.085 79.5938C140.887 79.2089 140.579 78.8913 140.201 78.6812C139.823 78.4711 139.39 78.378 138.959 78.4136C138.381 78.4613 137.846 78.7363 137.471 79.1781C137.096 79.6199 136.912 80.1925 136.959 80.7701Z" fill="#B75F08"/>
<path d="M138.384 79.4024C138.307 79.603 138.293 79.8225 138.344 80.0314C138.395 80.2402 138.509 80.4283 138.671 80.5703C138.832 80.7123 139.033 80.8014 139.247 80.8256C139.461 80.8497 139.676 80.8078 139.866 80.7054C140.055 80.603 140.208 80.445 140.304 80.2529C140.401 80.0608 140.436 79.8436 140.405 79.6308C140.375 79.418 140.28 79.2197 140.133 79.0627C139.986 78.9057 139.794 78.7975 139.584 78.7527C139.339 78.6814 139.075 78.7095 138.851 78.8312C138.626 78.9528 138.458 79.1581 138.384 79.4024Z" fill="#D67116"/>
<path d="M138.552 76.8227C138.588 77.2528 138.75 77.6628 139.019 78.0007C139.287 78.3387 139.65 78.5895 140.061 78.7214C140.472 78.8533 140.913 78.8604 141.328 78.7419C141.743 78.6233 142.113 78.3844 142.393 78.0554C142.672 77.7263 142.848 77.3218 142.897 76.893C142.947 76.4642 142.868 76.0304 142.671 75.6463C142.474 75.2622 142.168 74.945 141.791 74.735C141.414 74.5249 140.983 74.4314 140.552 74.4661C140.266 74.4887 139.987 74.5677 139.731 74.6985C139.475 74.8293 139.248 75.0094 139.062 75.2284C138.876 75.4474 138.736 75.701 138.648 75.9746C138.56 76.2482 138.528 76.5364 138.552 76.8227Z" fill="#B75F08"/>
<path d="M139.953 75.4527C139.876 75.6533 139.862 75.8728 139.913 76.0817C139.964 76.2905 140.078 76.4786 140.24 76.6206C140.401 76.7626 140.602 76.8517 140.816 76.8759C141.03 76.9 141.246 76.8581 141.435 76.7557C141.624 76.6533 141.777 76.4953 141.873 76.3032C141.97 76.1111 142.005 75.8939 141.975 75.6811C141.944 75.4683 141.849 75.27 141.702 75.113C141.555 74.956 141.363 74.8478 141.153 74.803C140.908 74.7317 140.644 74.7598 140.42 74.8815C140.195 75.0031 140.028 75.2083 139.953 75.4527Z" fill="#D67116"/>
<path d="M138.785 72.469C138.82 72.8994 138.981 73.3098 139.249 73.6485C139.517 73.9871 139.879 74.2387 140.29 74.3715C140.701 74.5043 141.142 74.5123 141.557 74.3945C141.973 74.2768 142.344 74.0385 142.624 73.7098C142.904 73.3811 143.08 72.9768 143.13 72.548C143.181 72.1191 143.103 71.685 142.906 71.3005C142.71 70.9161 142.404 70.5985 142.027 70.3879C141.65 70.1773 141.219 70.0832 140.788 70.1174C140.211 70.1644 139.676 70.4384 139.301 70.8792C138.925 71.32 138.74 71.8917 138.785 72.469Z" fill="#B75F08"/>
<path d="M140.208 71.113C140.129 71.3134 140.115 71.533 140.165 71.7422C140.216 71.9514 140.329 72.14 140.49 72.2826C140.651 72.4252 140.852 72.5149 141.066 72.5396C141.28 72.5643 141.496 72.5229 141.686 72.4208C141.875 72.3187 142.029 72.161 142.126 71.9689C142.222 71.7768 142.258 71.5595 142.228 71.3465C142.197 71.1335 142.102 70.935 141.955 70.7777C141.808 70.6205 141.617 70.5121 141.406 70.4672C141.162 70.3949 140.898 70.4222 140.674 70.5431C140.449 70.6641 140.282 70.8689 140.208 71.113Z" fill="#D67116"/>
<path d="M139.223 68.0696C139.258 68.4999 139.419 68.9104 139.687 69.249C139.955 69.5876 140.317 69.8393 140.728 69.9721C141.139 70.1049 141.58 70.1129 141.995 69.9951C142.411 69.8773 142.782 69.639 143.062 69.3103C143.342 68.9816 143.518 68.5773 143.568 68.1485C143.618 67.7197 143.54 67.2856 143.344 66.9011C143.148 66.5166 142.842 66.199 142.465 65.9884C142.088 65.7778 141.657 65.6837 141.226 65.718C140.65 65.766 140.115 66.0403 139.74 66.4808C139.365 66.9214 139.179 67.4925 139.223 68.0696Z" fill="#B75F08"/>
<path d="M140.656 66.6911C140.577 66.8915 140.563 67.1112 140.613 67.3203C140.664 67.5295 140.777 67.7181 140.938 67.8607C141.099 68.0033 141.3 68.093 141.514 68.1177C141.728 68.1425 141.944 68.101 142.134 67.9989C142.323 67.8969 142.477 67.7391 142.574 67.547C142.67 67.3549 142.706 67.1377 142.676 66.9246C142.645 66.7116 142.55 66.5131 142.403 66.3558C142.256 66.1986 142.065 66.0902 141.854 66.0453C141.61 65.973 141.346 66.0003 141.122 66.1213C140.897 66.2422 140.73 66.4471 140.656 66.6911Z" fill="#D67116"/>
<path d="M138.04 64.0647C138.075 64.4951 138.237 64.9055 138.505 65.2441C138.773 65.5826 139.136 65.834 139.547 65.9664C139.958 66.0989 140.399 66.1065 140.814 65.9882C141.229 65.87 141.6 65.6312 141.88 65.3021C142.16 64.973 142.336 64.5684 142.385 64.1394C142.435 63.7104 142.356 63.2763 142.159 62.892C141.962 62.5077 141.656 62.1905 141.278 61.9804C140.901 61.7704 140.47 61.677 140.039 61.712C139.462 61.759 138.927 62.0332 138.552 62.4744C138.178 62.9156 137.993 63.4876 138.04 64.0647Z" fill="#B75F08"/>
<path d="M139.465 62.7009C139.386 62.9013 139.371 63.1209 139.422 63.3301C139.472 63.5393 139.586 63.7279 139.747 63.8705C139.908 64.0131 140.109 64.1028 140.323 64.1275C140.537 64.1522 140.753 64.1107 140.942 64.0087C141.132 63.9066 141.285 63.7489 141.382 63.5568C141.479 63.3647 141.515 63.1474 141.484 62.9344C141.454 62.7214 141.359 62.5228 141.212 62.3656C141.065 62.2083 140.874 62.1 140.663 62.0551C140.419 61.9838 140.156 62.0117 139.932 62.1325C139.707 62.2533 139.54 62.4574 139.465 62.7009Z" fill="#D67116"/>
<path d="M135.913 60.3971C135.948 60.8272 136.11 61.2372 136.378 61.5753C136.646 61.9133 137.009 62.1644 137.42 62.2966C137.83 62.4289 138.271 62.4364 138.686 62.3183C139.101 62.2003 139.472 61.9618 139.752 61.6332C140.031 61.3045 140.207 60.9003 140.257 60.4717C140.307 60.0431 140.229 59.6092 140.033 59.2249C139.837 58.8406 139.531 58.5231 139.154 58.3125C138.778 58.1019 138.347 58.0077 137.917 58.0416C137.339 58.0884 136.803 58.3628 136.427 58.8045C136.051 59.2462 135.866 59.819 135.913 60.3971Z" fill="#B75F08"/>
<path d="M137.339 59.0255C137.262 59.2261 137.248 59.4456 137.299 59.6544C137.35 59.8633 137.464 60.0514 137.626 60.1934C137.787 60.3354 137.988 60.4245 138.202 60.4486C138.416 60.4728 138.632 60.4308 138.821 60.3284C139.01 60.226 139.163 60.0681 139.259 59.8759C139.356 59.6838 139.391 59.4667 139.361 59.2539C139.33 59.041 139.235 58.8428 139.088 58.6857C138.941 58.5287 138.749 58.4205 138.539 58.3758C138.294 58.3044 138.03 58.3326 137.806 58.4542C137.581 58.5758 137.413 58.7811 137.339 59.0255Z" fill="#D67116"/>
</g>
<defs>
<clipPath id="clip0_328_273">
<rect width="163" height="159" rx="23" fill="white"/>
</clipPath>
</defs>
</svg>
