<svg width="345" height="170" viewBox="0 0 345 170" fill="none" xmlns="http://www.w3.org/2000/svg">
<g clip-path="url(#clip0_309_25)">
<rect width="345" height="170" rx="23" fill="white"/>
<g filter="url(#filter0_d_309_25)">
<rect width="345" height="170" rx="23" fill="url(#paint0_linear_309_25)"/>
</g>
<mask id="mask0_309_25" style="mask-type:alpha" maskUnits="userSpaceOnUse" x="0" y="0" width="345" height="170">
<rect width="345" height="170" rx="23" fill="url(#paint1_linear_309_25)"/>
</mask>
<g mask="url(#mask0_309_25)">
</g>
<mask id="mask1_309_25" style="mask-type:alpha" maskUnits="userSpaceOnUse" x="0" y="0" width="345" height="170">
<rect width="345" height="170" rx="23" fill="url(#paint2_linear_309_25)"/>
</mask>
<g mask="url(#mask1_309_25)">
<path d="M219.662 120.017C303.997 47.3999 354.139 62.599 384.357 85.9437L367.972 191.173L-46.1819 201.166L-60.9526 124.505C7.90566 157.712 145.362 183.993 219.662 120.017Z" fill="white" fill-opacity="0.2"/>
</g>
<path d="M299.124 45.8128L204.722 100.22L202.918 103.126C212.411 100.04 212.554 104.4 218.297 104.153C213.081 108.594 209.217 118.709 203.644 120.979C199.107 122.831 190.665 126.47 187.689 127.757L180.837 138.867L183.33 142.208L303.241 80.6776L300.87 47.3387L299.124 45.8128Z" fill="#001C18"/>
<path d="M287.371 124.299C282.662 121.394 282.107 110.54 278.435 105.425C284.3 106.309 288.138 102.188 298.049 107.908L297.413 101.869L201.504 50.3555L173.655 77.3784L172.342 79.8361L299.718 146.757L301.901 144.475L300.676 132.857C298.119 131.17 291.166 126.637 287.371 124.299Z" fill="#001C18"/>
<path d="M298.053 107.908L296.17 109.905C294.071 108.382 291.631 107.396 289.064 107.032C284.993 106.533 283.605 108.561 277.959 107.319C277.429 106.965 277.049 106.427 276.892 105.808C276.736 105.19 276.815 104.536 277.113 103.972L289.199 102.511L298.053 107.908Z" fill="#001C18"/>
<path d="M287.371 124.299C282.662 121.394 282.107 110.54 278.435 105.425C284.3 106.309 288.138 102.188 298.049 107.908L297.413 101.869L196.163 48.756L173.655 77.3784L301.911 144.461L300.686 132.843C298.119 131.17 291.166 126.637 287.371 124.299Z" fill="#004B40"/>
<path d="M247.395 75.6278L210.729 96.7613L241.021 112.608L279.88 92.6649L247.395 75.6278Z" fill="#001C18"/>
<path d="M202.918 103.126L204.538 105.665C204.538 105.665 207.184 103.619 210.324 104.77C213.465 105.92 216.255 107.878 220.614 105.984C220.928 104.32 220.661 102.6 219.86 101.109C219.86 101.109 209.09 99.5437 208.862 99.5789C208.634 99.6142 202.918 103.126 202.918 103.126Z" fill="#001C18"/>
<path d="M204.722 100.22L202.918 103.126C212.411 100.04 212.554 104.4 218.297 104.153C213.081 108.594 209.217 118.709 203.644 120.979C199.107 122.831 190.665 126.47 187.689 127.757L180.837 138.867L300.792 78.8391L299.124 45.8128L204.722 100.22Z" fill="#004B40"/>
<path d="M247.328 73.7113L203.506 96.1938L234.13 112.283L236.97 110.78L247.328 73.7113Z" fill="#001C18"/>
<path d="M247.328 73.7112L206.573 94.6225L236.97 110.78L247.328 73.7112Z" fill="#001C18"/>
<path d="M176.132 76.1234C176.132 76.1234 228.847 105.196 230.786 106.197C232.725 107.198 236.652 108.861 241.98 106.248C247.308 103.636 298.788 77.8154 298.788 77.8154L297.62 44.4212L297.133 43.6006L246.006 68.5028L200.617 44.8875L175.983 75.1564L176.132 76.1234Z" fill="#001C18"/>
<path d="M175.983 75.1564C175.983 75.1564 228.697 104.229 230.637 105.234C232.576 106.239 236.503 107.894 241.831 105.285C247.159 102.676 297.922 77.2416 297.922 77.2416L297.136 43.6205L245.853 67.5158L200.465 43.9044L175.983 75.1564Z" fill="#87D1A4"/>
<path d="M202.666 42.9254L177.407 74.6577L230.122 103.73C230.122 103.73 232.51 102.133 234.332 101.851C236.154 101.569 240.67 104.552 240.67 104.552L295.492 76.7993L295.039 43.5032L289.74 42.0691L246.841 65.4112L204.404 42.6564L202.666 42.9254Z" fill="#EFE8C5"/>
<path d="M290.742 42.3067C290.709 45.0532 290.639 47.7972 290.565 50.5418L290.287 58.7678L289.926 67.0067L289.717 71.1305L289.465 75.2365L289.538 71.1337L289.646 67.0254L289.92 58.8001L290.281 50.5611C290.416 47.7866 290.557 45.0481 290.742 42.3067Z" fill="#FFD1A3"/>
<path d="M291.512 42.6541C291.521 45.3531 291.528 48.0442 291.479 50.7439L291.345 58.8333L291.127 66.919L290.988 70.9625L290.796 75.006L290.795 70.9596L290.832 66.9156L290.973 58.809L291.194 50.7227C291.282 48.0414 291.376 45.3468 291.512 42.6541Z" fill="#FFD1A3"/>
<path d="M292.495 42.9234C292.532 45.6221 292.512 48.3215 292.52 51.0166L292.462 59.1021L292.288 67.1977L292.177 71.2408L292.03 75.2856L291.997 71.2401L292 67.193L292.074 59.105L292.237 51.0153C292.303 48.3171 292.38 45.617 292.495 42.9234Z" fill="#FFD1A3"/>
<path d="M293.45 43.1724C293.507 45.8681 293.528 48.5653 293.54 51.2597L293.531 59.3459L293.432 67.4296L293.354 71.4718L293.239 75.5116L293.173 71.4671L293.149 67.4244L293.158 59.3382L293.252 51.2551C293.286 48.5658 293.355 45.867 293.45 43.1724Z" fill="#FFD1A3"/>
<path d="M294.393 43.4519C294.475 46.1764 294.517 48.9031 294.547 51.6111L294.606 59.7851L294.58 67.9721L294.539 72.0699L294.459 76.1739L294.36 72.0977L294.3 68.0154L294.262 59.8383L294.288 51.6513C294.289 48.8852 294.32 46.176 294.393 43.4519Z" fill="#FFD1A3"/>
<path d="M181.969 72.54C181.969 72.54 193.793 78.5122 203.563 82.1591C213.334 85.8061 232.157 95.6824 234.332 101.831C238.906 95.5092 244.694 87.359 257.444 83.9779C270.193 80.5969 285.98 76.4592 287.983 74.8318C288.233 69.1549 289.767 42.0362 289.767 42.0362C285.498 43.5547 281.144 44.8256 276.728 45.8426C269.918 47.3633 249.225 55.1735 246.861 65.4081C242.546 58.1794 237.249 54.3023 227.721 51.6407C218.193 48.979 204.404 42.6564 204.404 42.6564L181.969 72.54Z" fill="#FBF9EF"/>
<path d="M234.342 101.838C238.906 95.5093 244.694 87.3591 257.444 83.978C270.193 80.597 285.98 76.4593 287.983 74.8319C288.233 69.155 289.767 42.0363 289.767 42.0363C285.498 43.5548 281.144 44.8257 276.728 45.8427C269.918 47.3634 249.225 55.1736 246.861 65.4082L234.342 101.838Z" fill="#FBF9EF"/>
<path d="M266.814 82.7157C243.098 91.399 234.342 101.838 234.342 101.838C236.176 101.554 240.68 104.539 240.68 104.539L295.502 76.7856C295.502 76.7856 290.386 75.45 287.965 74.8509C285.397 76.8933 280.265 77.7081 266.814 82.7157Z" fill="#FBF9EF"/>
<path d="M216.823 86.4116C208.196 82.2972 181.969 72.54 181.969 72.54L177.386 74.6568L230.101 103.73C230.101 103.73 232.489 102.132 234.311 101.85C234.38 96.0052 225.447 90.5265 216.823 86.4116Z" fill="#FBF9EF"/>
<path d="M216.823 86.4116C208.196 82.2972 181.969 72.54 181.969 72.54C181.969 72.54 216.309 88.5575 220.669 90.6116C225.029 92.6656 233.512 98.304 234.342 101.838C234.38 96.0053 225.447 90.5266 216.823 86.4116Z" fill="#FCCE98"/>
<path d="M181.694 73.8059C181.694 73.8059 226.195 95.9671 234.342 101.838C228.138 95.7522 195.806 79.3585 181.694 73.8059Z" fill="#FCCE98"/>
<path d="M180.38 74.0094L186.882 77.3726L193.369 80.7708L206.315 87.6209L219.216 94.5475L225.657 98.0389L232.073 101.563L225.571 98.1995L219.084 94.8012L206.137 87.9512L193.236 81.0206L186.796 77.5331L180.38 74.0094Z" fill="#FCCE98"/>
<path d="M236.176 101.554C238.127 100.069 240.125 98.651 242.128 97.2363C244.13 95.8216 246.176 94.4739 248.236 93.1402C249.266 92.4694 250.302 91.814 251.353 91.1807C252.405 90.5474 253.458 89.922 254.555 89.3431C256.749 88.2138 259.008 87.2381 261.276 86.2978C263.545 85.3575 265.849 84.5179 268.149 83.675C270.449 82.8321 272.749 81.9892 275.068 81.1884C277.386 80.3876 279.675 79.5792 282 78.7406C284.319 77.9585 286.593 77.0505 288.813 76.0207C287.748 76.6326 286.646 77.1788 285.515 77.6564C284.393 78.1533 283.257 78.6155 282.127 79.081C279.845 79.9866 277.556 80.8523 275.266 81.7265C270.686 83.4624 266.079 85.1289 261.559 86.9864C259.294 87.8975 257.04 88.848 254.873 89.9444C253.796 90.4957 252.735 91.0936 251.684 91.7309L248.538 93.6091C246.448 94.8818 244.38 96.1921 242.328 97.5245C240.275 98.8569 238.222 100.206 236.176 101.554Z" fill="#FCCE98"/>
<path d="M238.136 101.766C242.167 99.1232 246.307 96.6576 250.554 94.369C252.671 93.223 254.819 92.1253 257 91.0759C258.08 90.5446 259.182 90.0548 260.278 89.5496C261.374 89.0444 262.489 88.5813 263.6 88.1189C268.043 86.2651 272.464 84.3532 276.876 82.4266C279.083 81.4656 281.285 80.4893 283.48 79.4976C284.578 79.0044 285.676 78.5112 286.763 77.9993C287.849 77.4874 288.945 76.9782 290.001 76.3974C285.783 78.7278 281.372 80.6831 276.993 82.6865C272.615 84.69 268.185 86.5745 263.743 88.4609C259.287 90.28 254.939 92.3809 250.695 94.6172C248.565 95.7324 246.455 96.8897 244.363 98.0892C242.259 99.278 240.181 100.496 238.136 101.766Z" fill="#FCCE98"/>
<path d="M233.045 94.2276L232.571 93.6218C230.991 91.6611 224.341 87.3223 217.805 84.4513C211.557 81.7033 193.076 73.3533 192.888 73.272L192.445 73.0542L210.435 47.5452L210.81 47.7203C210.967 47.782 226.475 53.7689 232.608 56.5388C238.74 59.3087 243.963 64.2898 244.016 64.3429L244.378 64.7819L244.335 64.895C244.274 65.0599 238.144 81.2824 233.165 93.9471L233.045 94.2276ZM193.245 73.0162C195.293 73.9267 212.063 81.5104 217.952 84.1053C223.84 86.7002 230.569 90.8425 232.657 93.1501C237.388 81.1008 243.108 65.985 243.665 64.5077C242.957 63.848 238.111 59.4184 232.453 56.8614C226.638 54.2348 212.369 48.6983 210.808 48.1052L193.245 73.0162Z" fill="#004B40"/>
<path d="M239.217 93.1044L238.49 94.1131L248.577 63.9111L248.597 63.908C248.636 63.8486 252.724 57.9788 258.069 55.032C266.173 50.7948 280.544 47.0768 280.688 47.03L281.636 46.785L281.597 47.0611L277.525 74.1963L277.507 74.3218L276.72 74.5254C244.84 81.6657 239.286 92.9955 239.217 93.1044ZM248.932 64.0894L239.711 91.7514C242.088 88.6013 250.728 80.0054 276.533 74.1862C277.619 66.9561 280.183 49.8454 280.542 47.4577C278.517 47.992 265.723 51.4537 258.277 55.3435C253.154 58.1454 249.2 63.6836 248.932 64.0894Z" fill="#004B40"/>
<path d="M174 102C174 102 173.648 107.066 169 107.5C173.648 108.007 174 113 174 113C174 113 174.352 107.934 179 107.5C174.352 107.066 174 102 174 102Z" fill="#FFD08A"/>
<path d="M284 26C284 26 283.789 29.2237 281 29.5C283.789 29.8224 284 33 284 33C284 33 284.211 29.7763 287 29.5C284.211 29.2237 284 26 284 26Z" fill="#FFD08A"/>
</g>
<defs>
<filter id="filter0_d_309_25" x="-15" y="-11" width="375" height="200" filterUnits="userSpaceOnUse" color-interpolation-filters="sRGB">
<feFlood flood-opacity="0" result="BackgroundImageFix"/>
<feColorMatrix in="SourceAlpha" type="matrix" values="0 0 0 0 0 0 0 0 0 0 0 0 0 0 0 0 0 0 127 0" result="hardAlpha"/>
<feOffset dy="4"/>
<feGaussianBlur stdDeviation="7.5"/>
<feComposite in2="hardAlpha" operator="out"/>
<feColorMatrix type="matrix" values="0 0 0 0 0 0 0 0 0 0.403922 0 0 0 0 0.329412 0 0 0 0.12 0"/>
<feBlend mode="normal" in2="BackgroundImageFix" result="effect1_dropShadow_309_25"/>
<feBlend mode="normal" in="SourceGraphic" in2="effect1_dropShadow_309_25" result="shape"/>
</filter>
<linearGradient id="paint0_linear_309_25" x1="0" y1="0" x2="360.762" y2="91.6012" gradientUnits="userSpaceOnUse">
<stop offset="0.00892858" stop-color="#006754"/>
<stop offset="1" stop-color="#87D1A4"/>
</linearGradient>
<linearGradient id="paint1_linear_309_25" x1="0" y1="0" x2="360.762" y2="91.6012" gradientUnits="userSpaceOnUse">
<stop offset="0.00892858" stop-color="#006754"/>
<stop offset="1" stop-color="#87D1A4"/>
</linearGradient>
<linearGradient id="paint2_linear_309_25" x1="0" y1="0" x2="360.762" y2="91.6012" gradientUnits="userSpaceOnUse">
<stop offset="0.00892858" stop-color="#006754"/>
<stop offset="1" stop-color="#87D1A4"/>
</linearGradient>
<clipPath id="clip0_309_25">
<rect width="345" height="170" rx="23" fill="white"/>
</clipPath>
</defs>
</svg>
