<svg width="163" height="191" viewBox="0 0 163 191" fill="none" xmlns="http://www.w3.org/2000/svg">
<g clip-path="url(#clip0_328_264)">
<rect width="163" height="191" rx="23" fill="#FEF6F4"/>
<mask id="mask0_328_264" style="mask-type:alpha" maskUnits="userSpaceOnUse" x="0" y="0" width="163" height="191">
<rect width="163" height="191" rx="23" fill="#E2F6F8"/>
</mask>
<g mask="url(#mask0_328_264)">
<path d="M117.371 131.491C171.244 59.0047 203.291 74.205 222.609 97.5319L212.169 202.616L-52.4906 212.423L-61.9526 135.856C-17.9392 169.048 69.9095 195.352 117.371 131.491Z" fill="#FF643D" fill-opacity="0.07"/>
</g>
<path d="M122.053 134.724V170.779C126.536 170.724 130.416 168.188 132.39 164.473C132.76 164.692 133.171 164.843 133.651 164.843H134.145C135.008 164.843 135.721 164.377 136.16 163.788C136.599 163.198 136.832 162.472 136.832 161.69V158.784V154.438V127.28H135.502C134.775 127.28 134.2 126.691 134.2 125.964C134.2 125.827 134.2 125.676 134.2 125.526C134.2 104.866 117.461 88.1272 96.8012 88.1272C76.1554 88.1272 59.4029 104.866 59.4029 125.526C59.4029 125.676 59.4029 125.813 59.4029 125.964C59.4166 126.691 58.8271 127.28 58.1005 127.28H56.7844V161.69C56.7844 162.472 57.0175 163.198 57.4562 163.788C57.8811 164.377 58.6077 164.843 59.4714 164.843H59.9786C60.4173 164.843 60.8012 164.72 61.1576 164.528C63.1454 168.202 67.0114 170.724 71.4806 170.779V134.724C67.9573 134.766 64.8317 136.342 62.6793 138.81V128.555C63.7761 128.35 64.5849 127.431 64.6946 126.307L64.722 126.184V125.786C64.722 116.916 68.3138 108.896 74.1264 103.084C79.9391 97.2712 87.9589 93.6794 96.8287 93.6794C105.698 93.6794 113.718 97.2712 119.531 103.084C125.344 108.896 128.935 116.916 128.935 125.786V126.06V126.074C128.935 127.294 129.799 128.322 130.978 128.555V138.933C128.812 136.397 125.618 134.766 122.053 134.724Z" fill="#004B40"/>
<path d="M135.502 127.28H136.832H138.024C138.737 127.28 139.313 126.705 139.327 126.005C139.327 125.841 139.327 125.69 139.327 125.526C139.327 102.042 120.285 83 96.8012 83C73.3176 83 54.2756 102.042 54.2756 125.526C54.2756 125.69 54.2756 125.841 54.2756 126.005C54.2893 126.718 54.8651 127.28 55.578 127.28H56.7707H58.1005C58.8271 127.28 59.4165 126.691 59.4028 125.964C59.4028 125.827 59.4028 125.676 59.4028 125.526C59.4028 104.866 76.1416 88.1272 96.8012 88.1272C117.461 88.1272 134.2 104.866 134.2 125.526C134.2 125.676 134.2 125.813 134.2 125.964C134.2 126.691 134.775 127.28 135.502 127.28Z" fill="#AAD4C8"/>
<path d="M52 155.014C52 157.385 53.9193 159.318 56.2909 159.346V146.171C53.9193 146.199 52 148.132 52 150.517V155.014Z" fill="#616E7D"/>
<path d="M137.339 159.346C139.711 159.318 141.63 157.385 141.63 155.014V150.517C141.63 148.132 139.711 146.213 137.339 146.171V159.346Z" fill="#616E7D"/>
<path d="M72.2346 134.724V170.903H76.6078C77.2933 170.903 77.8416 170.354 77.8416 169.669V135.958C77.8416 135.273 77.2933 134.724 76.6078 134.724H72.2346Z" fill="#82BFAB"/>
<path d="M115.596 135.958V169.669C115.596 170.354 116.145 170.903 116.83 170.903H121.203V134.724H116.83C116.145 134.724 115.596 135.273 115.596 135.958Z" fill="#82BFAB"/>
</g>
<defs>
<clipPath id="clip0_328_264">
<rect width="163" height="191" rx="23" fill="white"/>
</clipPath>
</defs>
</svg>
