<svg width="163" height="160" viewBox="0 0 163 160" fill="none" xmlns="http://www.w3.org/2000/svg">
<g clip-path="url(#clip0_328_221)">
<rect width="163" height="160" rx="23" fill="white"/>
<rect width="163" height="160" rx="23" fill="#F5FAF4"/>
<mask id="mask0_328_221" style="mask-type:alpha" maskUnits="userSpaceOnUse" x="0" y="0" width="163" height="160">
<rect width="163" height="160" rx="23" fill="#E2F6F8"/>
</mask>
<g mask="url(#mask0_328_221)">
<path d="M117.371 109.961C171.244 49.3433 203.291 62.0546 222.609 81.5619L212.169 169.44L-52.4906 177.64L-61.9526 113.61C-17.9392 141.367 69.9095 163.365 117.371 109.961Z" fill="#2BFF00" fill-opacity="0.1"/>
</g>
<path d="M128.895 86.5847L95.4656 98.0103L62.0026 86.5847L46 109.843L95.4656 126.761L144.897 109.843L128.895 86.5847Z" fill="#006754"/>
<path opacity="0.45" d="M51.8314 108.893L92.855 124.591L78.751 110.622C78.751 110.622 55.5947 105.028 51.8314 108.893Z" fill="#004B40"/>
<path opacity="0.45" d="M139.1 108.893L98.0762 124.591L112.18 110.622C112.146 110.622 135.303 105.028 139.1 108.893Z" fill="#004B40"/>
<path d="M95.4656 126.761L46 109.843V112.047L95.4656 128.965L144.897 112.047V109.843L95.4656 126.761Z" fill="#A85000"/>
<path d="M69.1224 136.932L74.8521 121.913L93.2958 128.219L69.1224 136.932Z" fill="#773A08"/>
<path opacity="0.45" d="M70.7159 132.592L93.2958 128.219L74.8521 121.913L70.7159 132.592Z" fill="#773A08"/>
<path d="M95.4656 127.439L69.1224 136.932L71.0888 139L95.4656 130.321L119.809 139L121.809 136.932L95.4656 127.439Z" fill="#BDF8D4"/>
<path d="M121.809 136.932L116.045 121.913L97.6016 128.219L121.809 136.932Z" fill="#773A08"/>
<path opacity="0.45" d="M120.181 132.592L97.6016 128.219L116.045 121.913L120.181 132.592Z" fill="#773A08"/>
<path d="M95.4656 130.321C96.458 130.321 97.2625 129.516 97.2625 128.524C97.2625 127.531 96.458 126.727 95.4656 126.727C94.4732 126.727 93.6687 127.531 93.6687 128.524C93.6687 129.516 94.4732 130.321 95.4656 130.321Z" fill="white" fill-opacity="0.5"/>
<path d="M127.471 86.5847L95.4656 102.519L63.4604 86.5847C62.0026 88.5172 50.2719 108.08 50.2719 108.08C50.4075 108.08 50.5092 108.114 50.6448 108.114C80.0733 111.063 88.2441 120.319 90.9564 122.557C93.6687 124.828 95.4995 124.591 95.4995 124.591C95.4995 124.591 97.3303 124.828 100.043 122.557C102.755 120.319 110.926 111.063 140.354 108.114C140.49 108.114 140.592 108.08 140.727 108.08C140.659 108.08 128.895 88.5511 127.471 86.5847Z" fill="#F5B304"/>
<path d="M140.659 108.08C140.524 108.08 140.422 108.114 140.286 108.114C110.858 111.063 102.687 120.319 99.9748 122.557C97.2625 124.828 95.4317 124.591 95.4317 124.591C95.4317 124.591 93.6009 124.828 90.8886 122.557C88.1763 120.319 80.0055 111.063 50.577 108.114C50.4414 108.114 50.3397 108.08 50.2041 108.08C49.9667 108.453 50.2041 108.724 50.2041 108.724C79.9377 111.606 87.8373 120.895 90.5496 123.167C93.2619 125.405 95.3978 125.235 95.3978 125.235C95.3978 125.235 97.5337 125.405 100.246 123.167C102.958 120.929 110.858 111.64 140.592 108.724C140.659 108.724 140.897 108.453 140.659 108.08Z" fill="#87D1A4"/>
<path d="M126.25 84.72C109.875 80.7872 95.4317 94.247 95.4317 94.247C95.4317 94.247 80.9887 80.7872 64.6132 84.72C64.6132 84.72 59.9684 91.8398 53.5605 103.943C53.5605 103.943 85.803 107.571 95.4317 121.099C105.06 107.571 137.303 103.943 137.303 103.943C130.895 91.8398 126.25 84.72 126.25 84.72Z" fill="#FBF9EF"/>
<path d="M137.303 103.944C137.303 103.944 105.06 107.571 95.4317 121.099C85.8369 107.571 53.5944 103.944 53.5944 103.944C53.5944 103.944 53.5944 105.029 51.7975 107.164C51.7975 107.164 81.0565 109.266 91.7023 121.404C94.2112 124.252 95.4317 123.913 95.4317 123.913C95.4317 123.913 96.6862 124.252 99.1611 121.404C109.773 109.266 139.066 107.164 139.066 107.164C137.303 104.995 137.303 103.944 137.303 103.944Z" fill="#BDF8D4"/>
<path d="M124.419 86.1439C124.419 86.1439 112.18 83.0248 95.4316 96.0099C78.7171 83.0587 66.4439 86.1439 66.4439 86.1439L58.1714 102.214C83.328 103.943 95.4316 116.657 95.4316 116.657C95.4316 116.657 107.535 103.943 132.692 102.214L124.419 86.1439ZM95.4656 115.132C95.4656 115.132 84.1417 103.537 60.1378 101.265L67.0881 86.822C67.0881 86.822 79.1239 84.4826 95.4656 96.7558C111.807 84.4826 123.843 86.822 123.843 86.822L130.793 101.265C106.789 103.537 95.4656 115.132 95.4656 115.132Z" fill="#006754"/>
<path opacity="0.2" d="M98.5508 108.112C103.071 104.778 117.198 97.4001 126.691 98.4172" stroke="#BDF8D4" stroke-width="3" stroke-linecap="round"/>
<path opacity="0.2" d="M98.5508 98.7561C102.563 95.6148 112.994 89.46 122.623 89.9711" stroke="#BDF8D4" stroke-width="3" stroke-linecap="round"/>
<path opacity="0.2" d="M98.5508 103.503C102.902 100.12 114.214 93.4913 124.657 94.0418" stroke="#BDF8D4" stroke-width="3" stroke-linecap="round"/>
<path opacity="0.2" d="M92.7871 108.112C88.2666 104.778 74.14 97.4001 64.647 98.4172" stroke="#BDF8D4" stroke-width="3" stroke-linecap="round"/>
<path opacity="0.2" d="M92.7872 98.7561C88.7752 95.6148 78.3442 89.46 68.7155 89.9711" stroke="#BDF8D4" stroke-width="3" stroke-linecap="round"/>
<path opacity="0.2" d="M92.7871 103.503C88.4361 100.12 77.1236 93.4913 66.6812 94.0418" stroke="#BDF8D4" stroke-width="3" stroke-linecap="round"/>
<path d="M95.4655 94.2469C95.4655 94.2469 95.8046 93.0603 96.4487 93.3993C96.4487 93.3993 96.0419 112.623 96.72 120.115C96.8895 121.98 98.5169 124.523 99.1611 125.472H98.3135L98.0761 126.252C98.0761 126.252 95.5673 122.014 95.4655 120.353C94.957 112.894 95.2282 96.0438 95.4655 94.2469Z" fill="#BC8F7B"/>
</g>
<defs>
<clipPath id="clip0_328_221">
<rect width="163" height="160" rx="23" fill="white"/>
</clipPath>
</defs>
</svg>
