<svg width="163" height="191" viewBox="0 0 163 191" fill="none" xmlns="http://www.w3.org/2000/svg">
<g clip-path="url(#clip0_328_216)">
<rect width="163" height="191" rx="23" fill="#FFFAF0"/>
<mask id="mask0_328_216" style="mask-type:alpha" maskUnits="userSpaceOnUse" x="0" y="0" width="163" height="191">
<rect width="163" height="191" rx="23" fill="#E2F6F8"/>
</mask>
<g mask="url(#mask0_328_216)">
<path d="M117.371 131.491C171.244 59.0047 203.291 74.205 222.609 97.5319L212.169 202.616L-52.4906 212.423L-61.9526 135.856C-17.9392 169.048 69.9095 195.352 117.371 131.491Z" fill="#FFB92C" fill-opacity="0.07"/>
</g>
<path d="M62.5373 83.353C62.7239 83.112 63.0308 82.986 63.333 83.0012C63.1249 83.0475 62.9172 83.1363 62.7845 83.311C62.5182 83.6189 62.5306 84.1196 62.8113 84.4141C63.0485 84.69 63.4704 84.7697 63.7974 84.6165C63.9578 84.5477 64.0704 84.4107 64.1864 84.2862C64.0561 84.6274 63.7363 84.8589 63.3812 84.9172C63.3831 85.1281 63.3821 85.3391 63.3826 85.5501C63.4752 85.6174 63.5936 85.6818 63.6131 85.8064C63.6518 85.9343 63.5678 86.047 63.5034 86.1481C63.5005 86.3548 63.4962 86.562 63.5005 86.7687C63.49 86.9357 63.6886 87.0264 63.6804 87.1963C63.7 87.3634 63.575 87.4884 63.4566 87.5849C63.4657 87.6899 63.4757 87.7949 63.4862 87.8999C63.605 87.9887 63.7349 88.0898 63.763 88.2454C63.8155 88.4125 63.7287 88.5734 63.6461 88.7132C63.8723 89.4015 63.9936 90.1184 64.11 90.832C64.2852 91.9704 64.404 93.1169 64.4938 94.2653C64.5024 94.3197 64.4966 94.3822 64.5301 94.43C64.7639 94.7288 65.1358 94.9359 65.257 95.312C65.247 95.492 65.0451 95.5617 64.9124 95.6404C64.9405 96.0304 64.9229 96.427 64.9783 96.8136C65.4112 97.2542 65.8651 97.6866 66.2002 98.2107C66.308 98.3811 66.4135 98.6055 66.2913 98.7973C66.0732 99.1296 65.6689 99.2646 65.3076 99.3792C65.3081 100.444 65.3267 101.509 65.3315 102.574C65.6742 102.576 66.0164 102.574 66.3591 102.576C66.3701 102.973 66.3772 103.371 66.3944 103.769C66.7152 103.905 66.9935 104.174 67.0722 104.521C67.1491 104.883 67.0555 105.271 66.8431 105.571C66.4789 106.088 65.8823 106.395 65.5577 106.943C65.3983 107.203 65.3377 107.511 65.3472 107.814C65.3424 115.582 65.3453 123.351 65.3506 131.119C65.5291 131.118 65.7071 131.116 65.8856 131.111C65.8828 131.399 65.888 131.687 65.8875 131.976C66.0937 132.054 66.382 132.079 66.487 132.3C66.4088 132.845 65.825 133.176 65.7725 133.733C65.8933 138.602 66.0169 143.47 66.1391 148.339C66.1892 150.198 66.2259 152.058 66.2842 153.916C66.3835 153.925 66.4832 153.924 66.583 153.927C66.5854 152.144 66.5796 150.361 66.5801 148.578C66.5782 148.323 66.5639 148.057 66.6717 147.819C66.8856 147.32 67.3333 146.966 67.7968 146.708C67.7462 146.671 67.666 146.651 67.6569 146.578C67.6693 146.522 67.6879 146.469 67.7051 146.416C67.6097 146.322 67.6101 146.198 67.698 146.1C67.5615 146.066 67.4183 146.026 67.3185 145.921C67.1357 145.744 67.0961 145.444 67.2278 145.226C67.2908 145.102 67.4206 145.041 67.5204 144.953C67.1161 143.229 67.414 141.318 68.4488 139.865C68.8764 139.26 69.4444 138.759 70.0922 138.401C71.041 137.865 72.073 137.496 73.1121 137.176C73.2009 137.162 73.2286 137.07 73.2782 137.008C73.2834 136.914 73.2653 136.803 73.3441 136.734C73.4161 136.663 73.4715 136.58 73.4777 136.476C73.4424 136.375 73.4042 136.273 73.388 136.167C73.4787 136.037 73.5221 135.891 73.5059 135.731C73.4419 135.516 73.5746 135.309 73.5436 135.091C73.3794 135.043 73.2099 134.978 73.1045 134.837C72.8749 134.571 72.9164 134.126 73.1918 133.907C73.3407 133.769 73.5498 133.742 73.745 133.74C73.5326 133.804 73.2963 133.893 73.2061 134.116C73.0333 134.449 73.2701 134.895 73.6395 134.946C73.8577 134.998 74.0548 134.873 74.2204 134.747C74.0806 134.955 73.8529 135.077 73.6052 135.102C73.6109 135.363 73.6925 135.617 73.6768 135.88C73.6605 135.988 73.7283 136.076 73.7622 136.172C73.7321 136.322 73.6858 136.469 73.6863 136.624C73.8653 136.739 73.8562 136.959 73.9016 137.144C74.8829 137.46 75.8504 137.839 76.7449 138.356C77.3864 138.721 77.9611 139.211 78.3954 139.81C79.467 141.268 79.7806 143.209 79.3668 144.956C79.4904 145.067 79.6522 145.158 79.6947 145.333C79.8212 145.663 79.5558 146.093 79.1878 146.067C79.2322 146.109 79.2809 146.147 79.3224 146.194C79.3696 146.284 79.2789 146.357 79.2341 146.424C79.2627 146.467 79.2918 146.511 79.3214 146.555C80.0197 146.553 80.718 146.553 81.4163 146.556C81.1447 146.44 80.8975 146.258 80.7357 146.009C80.4288 145.56 80.4149 144.934 80.7042 144.474C80.8502 144.226 81.0803 144.041 81.3338 143.912C80.834 143.347 80.3481 142.767 79.9414 142.129C79.3754 141.259 78.9515 140.288 78.7687 139.263C78.6212 138.448 78.5974 137.613 78.6689 136.789C78.7572 135.838 79.0155 134.892 79.5009 134.065C79.9744 133.222 80.6622 132.519 81.413 131.918C82.8177 130.808 84.4253 129.991 85.8463 128.903C86.9126 128.09 87.8619 127.083 88.4419 125.863C88.3593 125.822 88.2419 125.806 88.2104 125.705C88.176 125.621 88.2342 125.541 88.2586 125.464C88.0099 125.301 87.8395 125.013 87.8705 124.71C87.8887 124.34 88.1994 124.029 88.5612 123.979C88.5049 123.901 88.4328 123.819 88.4562 123.716C88.4581 123.614 88.554 123.558 88.619 123.494C88.6237 122.471 88.6199 121.448 88.6209 120.424C88.0075 120.407 87.4023 120.167 86.9531 119.747C86.4477 119.286 86.1369 118.618 86.1212 117.934C86.0925 117.177 86.4224 116.417 86.9961 115.923C87.6233 115.367 88.5354 115.146 89.3445 115.375C88.7903 115.324 88.2194 115.462 87.7612 115.78C87.134 116.202 86.7336 116.938 86.7231 117.695C86.7021 118.448 87.0691 119.198 87.6744 119.646C88.1593 120.016 88.7908 120.18 89.3955 120.104C89.8027 120.06 90.1879 119.893 90.522 119.659C90.0566 120.135 89.4041 120.409 88.7407 120.428C88.7435 121.449 88.7402 122.47 88.7421 123.491C88.8037 123.555 88.8972 123.608 88.9053 123.706C88.9302 123.812 88.8619 123.901 88.8061 123.982C89.1679 124.055 89.4681 124.381 89.4647 124.758C89.4781 125.026 89.3263 125.265 89.1273 125.43C89.1979 125.507 89.2972 125.603 89.2366 125.718C89.186 125.847 89.0285 125.835 88.9168 125.85C89.5206 127.351 90.7468 128.494 92.0632 129.381C93.5381 130.41 95.1624 131.236 96.4989 132.454C97.1275 133.029 97.6788 133.698 98.0621 134.462C98.505 135.328 98.7236 136.296 98.7713 137.264C98.8133 138.242 98.7546 139.236 98.4783 140.18C98.0611 141.618 97.1189 142.83 96.0951 143.894C96.3552 144.024 96.5967 144.206 96.749 144.459C97.0311 144.895 97.0378 145.488 96.7728 145.934C96.6072 146.224 96.3347 146.444 96.023 146.559C96.8282 146.548 97.6334 146.555 98.4391 146.556C98.4697 146.509 98.5017 146.463 98.5341 146.418C98.4091 146.341 98.4143 146.206 98.495 146.099C98.2243 146.059 97.9718 145.852 97.9561 145.566C97.9208 145.298 98.1084 145.072 98.3341 144.958C97.8969 143.161 98.2492 141.148 99.3938 139.678C99.8534 139.081 100.462 138.614 101.131 138.272C102.044 137.794 103.019 137.445 104.005 137.152C104.027 137.102 104.049 137.052 104.073 137.004C104.066 136.843 104.13 136.696 104.274 136.618C104.276 136.451 104.207 136.295 104.196 136.132C104.227 136.082 104.269 136.039 104.31 135.997C104.312 135.797 104.262 135.594 104.321 135.399C104.345 135.298 104.344 135.194 104.346 135.091C104.132 135.038 103.922 134.918 103.827 134.71C103.675 134.416 103.787 134.025 104.068 133.853C104.227 133.742 104.427 133.746 104.613 133.742C104.381 133.782 104.123 133.865 104.019 134.099C103.837 134.426 104.057 134.882 104.427 134.944C104.663 135.003 104.886 134.873 105.046 134.71C104.91 134.933 104.679 135.083 104.415 135.095C104.413 135.401 104.521 135.696 104.48 136.004C104.64 136.161 104.498 136.363 104.49 136.55C104.49 136.568 104.49 136.606 104.49 136.625C104.676 136.74 104.658 136.968 104.719 137.153C105.683 137.453 106.627 137.833 107.508 138.332C108.183 138.709 108.784 139.224 109.234 139.856C110.278 141.308 110.584 143.228 110.171 144.956C110.265 145.043 110.387 145.108 110.451 145.224C110.57 145.424 110.55 145.695 110.403 145.875C110.321 145.983 110.189 146.027 110.075 146.089C110.094 146.153 110.124 146.216 110.138 146.283C110.115 146.335 110.069 146.372 110.034 146.416C110.066 146.478 110.126 146.543 110.093 146.62C110.051 146.652 110.008 146.683 109.964 146.713C110.388 146.949 110.803 147.249 111.048 147.68C111.164 147.879 111.215 148.11 111.21 148.34C111.202 149.914 111.21 151.49 111.203 153.065C111.408 153.064 111.613 153.065 111.819 153.064C111.973 146.669 112.129 140.273 112.281 133.878C112.278 133.72 112.312 133.553 112.247 133.403C112.059 132.989 111.77 132.625 111.61 132.199C111.561 132.1 111.656 132.017 111.742 131.991C111.953 131.917 112.179 131.941 112.399 131.938C112.403 131.669 112.4 131.401 112.406 131.132C112.533 131.11 112.662 131.088 112.79 131.066C112.877 123.555 112.952 116.044 113.038 108.532C113.08 108.035 112.995 107.53 112.805 107.07C112.663 106.734 112.43 106.414 112.088 106.262C111.62 106.092 111.308 105.652 111.129 105.206C111.02 104.958 111.121 104.686 111.235 104.46C111.396 104.147 111.708 103.94 112.041 103.845C112.045 103.45 112.053 103.054 112.058 102.659C112.405 102.672 112.752 102.666 113.099 102.683C113.109 101.584 113.11 100.485 113.117 99.3854C112.783 99.3066 112.405 99.2451 112.165 98.9759C112.018 98.8179 112.042 98.5745 112.149 98.4017C112.533 97.7578 113.071 97.2141 113.681 96.7836C113.704 96.4151 113.686 96.0442 113.688 95.6753C113.533 95.6547 113.275 95.6175 113.297 95.4065C113.462 95.0156 113.833 94.7641 114.072 94.4281C114.188 93.2882 114.312 92.1465 114.532 91.0205C114.692 90.2554 114.867 89.4931 115.059 88.7352C114.958 88.6116 114.863 88.4622 114.896 88.2951C114.91 88.1156 115.051 87.9896 115.193 87.897C115.208 87.7997 115.224 87.7023 115.242 87.6049C115.097 87.4999 114.948 87.3457 114.993 87.1491C115.004 86.9677 115.251 86.9114 115.231 86.7228C115.24 86.5477 115.264 86.3715 115.253 86.1959C115.167 86.0961 115.036 86.0064 115.061 85.8556C115.061 85.7033 115.195 85.6112 115.316 85.5477C115.321 85.3396 115.319 85.1315 115.319 84.9239C115.049 84.8838 114.774 84.7764 114.605 84.553C114.326 84.216 114.327 83.6857 114.612 83.353C114.798 83.1125 115.104 82.9855 115.407 83.0017C115.198 83.0471 114.991 83.1373 114.859 83.312C114.6 83.6113 114.603 84.0943 114.865 84.3907C115.09 84.6723 115.503 84.7692 115.835 84.6322C116.013 84.5678 116.137 84.4189 116.264 84.2857C116.128 84.6251 115.813 84.8594 115.455 84.9172C115.457 85.1281 115.456 85.3391 115.458 85.5506C115.55 85.6179 115.669 85.6828 115.688 85.8078C115.725 85.9358 115.641 86.0479 115.577 86.1491C115.579 86.3849 115.561 86.6216 115.584 86.8565C115.651 86.9792 115.776 87.088 115.755 87.2422C115.755 87.3925 115.635 87.4947 115.532 87.5844C115.54 87.6894 115.55 87.7939 115.561 87.8989C115.68 87.9891 115.81 88.0908 115.838 88.2478C115.889 88.4139 115.803 88.5729 115.721 88.7113C116.006 89.6001 116.142 90.5275 116.274 91.4487C116.407 92.4339 116.504 93.4238 116.581 94.4152C116.819 94.6829 117.127 94.8977 117.3 95.218C117.417 95.4352 117.14 95.5593 116.987 95.6404C117.006 96.0084 117.012 96.3779 117.037 96.7459C117.032 96.807 117.079 96.8475 117.118 96.8872C117.492 97.2447 117.852 97.6208 118.159 98.038C118.269 98.1969 118.386 98.362 118.42 98.5563C118.439 98.7367 118.319 98.8947 118.186 99.0021C117.95 99.1859 117.667 99.2957 117.382 99.3792C117.383 100.445 117.401 101.509 117.406 102.574C117.749 102.576 118.091 102.573 118.434 102.576C118.445 102.974 118.452 103.372 118.469 103.77C118.782 103.902 119.054 104.16 119.141 104.495C119.233 104.884 119.124 105.304 118.884 105.618C118.557 106.052 118.077 106.339 117.747 106.77C117.54 107.039 117.419 107.375 117.423 107.716C117.413 115.516 117.426 123.315 117.421 131.115C117.6 131.119 117.78 131.117 117.96 131.111C117.957 131.399 117.962 131.687 117.963 131.976C118.167 132.054 118.456 132.08 118.56 132.298C118.532 132.628 118.273 132.872 118.103 133.138C117.992 133.321 117.855 133.511 117.847 133.732C118.006 140.175 118.174 146.619 118.331 153.062C119.035 153.066 119.739 153.067 120.444 153.061C120.446 152.153 120.473 151.245 120.471 150.337C120.393 150.222 120.279 150.134 120.213 150.012C120.03 149.698 120.012 149.323 120.037 148.97C120.202 148.969 120.367 148.969 120.532 148.969C120.569 147.485 120.6 146.002 120.636 144.518C120.649 144.357 120.516 144.241 120.45 144.107C120.001 143.305 119.887 142.352 119.99 141.448C120.049 141.447 120.109 141.447 120.17 141.447C120.169 141.606 120.167 141.767 120.199 141.925C120.28 141.779 120.238 141.605 120.247 141.447C120.323 141.446 120.399 141.446 120.477 141.448C120.476 141.604 120.473 141.762 120.493 141.919C120.597 141.785 120.539 141.603 120.553 141.449C120.64 141.446 120.728 141.445 120.815 141.443C120.808 140.24 120.823 139.037 120.809 137.834C120.699 137.627 120.535 137.45 120.451 137.228C120.173 136.623 120.119 135.937 120.198 135.282C120.442 135.279 120.686 135.281 120.93 135.278C120.908 134.43 120.997 133.569 120.812 132.734C120.788 132.625 120.702 132.547 120.641 132.461C120.435 132.199 120.301 131.874 120.3 131.538C120.299 131.108 120.301 130.678 120.3 130.247C120.394 130.248 120.488 130.25 120.583 130.253C120.58 130.464 120.581 130.675 120.581 130.886C120.628 130.887 120.677 130.889 120.726 130.892C120.727 130.677 120.727 130.463 120.727 130.249C120.834 130.249 120.941 130.249 121.05 130.249C121.05 130.468 121.05 130.688 121.049 130.907C121.097 130.906 121.147 130.906 121.197 130.906C121.195 130.686 121.195 130.468 121.196 130.249C121.3 130.249 121.405 130.249 121.51 130.249C121.508 129.978 121.515 129.707 121.509 129.436C121.503 129.187 121.352 128.959 121.134 128.842C121.214 128.757 121.306 128.685 121.406 128.625C121.138 128.473 120.924 128.187 120.966 127.866C121.014 127.441 121.41 127.181 121.764 127.013C121.754 126.929 121.74 126.845 121.745 126.761C121.77 126.571 121.915 126.425 121.952 126.239C121.88 126.063 121.836 125.831 122.04 125.724C122.011 125.527 121.747 125.455 121.769 125.237C121.817 124.981 122.036 124.787 122.065 124.522C122.039 124.329 121.957 124.147 121.953 123.951C121.935 123.694 122.012 123.443 122.124 123.216C122.107 123.162 122.09 123.108 122.075 123.055C121.895 122.98 121.724 122.819 121.753 122.607C121.761 122.399 121.947 122.271 122.13 122.22C122.029 122.305 121.893 122.376 121.868 122.519C121.813 122.722 121.972 122.944 122.181 122.962C122.312 122.985 122.421 122.897 122.523 122.83C122.444 122.923 122.348 122.999 122.238 123.053C122.22 123.107 122.204 123.162 122.188 123.216C122.376 123.558 122.414 123.972 122.286 124.342C122.149 124.676 122.49 124.931 122.546 125.237C122.565 125.452 122.307 125.529 122.27 125.722C122.323 125.777 122.405 125.82 122.422 125.903C122.47 126.057 122.301 126.205 122.397 126.353C122.507 126.555 122.625 126.774 122.549 127.013C122.905 127.181 123.299 127.441 123.349 127.867C123.39 128.188 123.174 128.472 122.908 128.624C123.006 128.686 123.097 128.758 123.179 128.84C122.963 128.959 122.81 129.186 122.805 129.435C122.8 129.706 122.807 129.977 122.804 130.249C122.908 130.249 123.013 130.249 123.118 130.249C123.119 130.467 123.12 130.685 123.118 130.904C123.165 130.905 123.214 130.907 123.265 130.91C123.265 130.689 123.265 130.468 123.265 130.248C123.373 130.249 123.481 130.25 123.591 130.253C123.587 130.464 123.588 130.675 123.588 130.885C123.635 130.887 123.684 130.89 123.733 130.893C123.734 130.678 123.734 130.464 123.734 130.249C123.827 130.249 123.92 130.249 124.014 130.249C124.014 130.678 124.016 131.108 124.014 131.537C124.013 131.874 123.878 132.201 123.671 132.464C123.604 132.554 123.516 132.636 123.498 132.752C123.321 133.584 123.401 134.439 123.391 135.282C123.631 135.279 123.873 135.28 124.114 135.281C124.192 135.9 124.148 136.544 123.908 137.126C123.815 137.383 123.643 137.598 123.504 137.83C123.489 139.034 123.504 140.238 123.497 141.442C123.583 141.445 123.67 141.446 123.758 141.45C123.757 141.607 123.755 141.765 123.78 141.922C123.875 141.786 123.816 141.61 123.842 141.457C123.916 141.445 123.991 141.444 124.067 141.44C124.068 141.585 124.068 141.731 124.069 141.877L124.141 141.875C124.14 141.732 124.14 141.59 124.141 141.448C124.201 141.447 124.262 141.447 124.325 141.448C124.423 142.352 124.316 143.307 123.864 144.109C123.797 144.243 123.662 144.357 123.678 144.518C123.709 145.84 123.739 147.161 123.77 148.483C123.774 148.643 123.767 148.804 123.79 148.964C123.951 148.976 124.113 148.968 124.276 148.969C124.324 149.447 124.242 149.999 123.84 150.313C123.845 151.225 123.862 152.136 123.872 153.048C124.187 152.899 124.526 152.801 124.873 152.764C124.851 152.671 124.833 152.578 124.812 152.487C124.821 152.454 124.83 152.421 124.841 152.391C124.628 152.352 124.455 152.136 124.535 151.919C124.564 151.782 124.786 151.736 124.729 151.581C124.541 150.721 124.65 149.797 125.037 149.007C125.299 148.473 125.704 148.006 126.215 147.699C126.671 147.419 127.175 147.234 127.672 147.045C127.866 146.97 128.074 146.933 128.263 146.842C128.302 146.724 128.33 146.599 128.427 146.512C128.413 146.418 128.395 146.326 128.374 146.234C128.392 146.21 128.427 146.163 128.445 146.14C128.435 145.957 128.45 145.774 128.478 145.594C128.277 145.533 128.084 145.368 128.108 145.139C128.114 144.882 128.377 144.713 128.619 144.755C128.478 144.782 128.322 144.834 128.261 144.977C128.174 145.154 128.261 145.386 128.443 145.463C128.586 145.543 128.742 145.463 128.874 145.402C128.774 145.501 128.65 145.568 128.511 145.594C128.535 145.775 128.552 145.957 128.564 146.139C128.623 146.259 128.574 146.389 128.561 146.515C128.645 146.608 128.675 146.728 128.696 146.85C129.364 147.076 130.031 147.327 130.628 147.711C131.184 148.058 131.611 148.592 131.867 149.192C132.204 149.973 132.266 150.86 132.073 151.686C132.164 151.758 132.273 151.837 132.289 151.963C132.331 152.154 132.187 152.345 131.997 152.374C132.081 152.498 132.008 152.643 131.984 152.775C132.397 152.867 132.804 152.996 133.186 153.178C133.35 153.254 133.495 153.363 133.626 153.488C133.623 153.031 133.638 152.575 133.638 152.119C133.405 151.944 133.222 151.707 133.114 151.437C132.922 150.982 132.9 150.476 132.946 149.991C133.206 149.991 133.466 149.989 133.727 149.993C133.786 147.722 133.832 145.451 133.887 143.18C133.876 143.014 133.931 142.833 133.86 142.678C132.933 141.336 132.679 139.625 132.868 138.029C132.963 138.029 133.058 138.029 133.154 138.029C133.154 138.264 133.153 138.499 133.155 138.734C133.184 138.725 133.239 138.707 133.268 138.698C133.291 138.476 133.271 138.252 133.278 138.029C133.398 138.029 133.52 138.029 133.643 138.029C133.642 138.259 133.641 138.489 133.645 138.719C133.674 138.719 133.732 138.719 133.762 138.719C133.763 138.489 133.763 138.259 133.763 138.029C133.901 138.029 134.039 138.029 134.179 138.029C134.18 136.102 134.177 134.174 134.18 132.246C133.26 131.139 133.005 129.61 133.205 128.215C133.589 128.217 133.973 128.216 134.358 128.215C134.359 127.525 134.358 126.835 134.359 126.145C134.373 125.442 134.303 124.735 134.141 124.052C133.979 123.821 133.773 123.617 133.651 123.357C133.442 122.986 133.341 122.559 133.356 122.134C133.358 121.494 133.353 120.854 133.358 120.215C133.507 120.216 133.657 120.216 133.807 120.215C133.809 120.557 133.806 120.9 133.809 121.243C133.885 121.237 133.962 121.232 134.04 121.227C134.036 120.89 134.038 120.553 134.039 120.217C134.209 120.216 134.38 120.216 134.552 120.216C134.552 120.566 134.552 120.915 134.551 121.265C134.627 121.265 134.703 121.266 134.781 121.267C134.783 120.917 134.782 120.567 134.783 120.217C134.95 120.216 135.118 120.216 135.286 120.215C135.283 119.788 135.286 119.362 135.286 118.936C135.289 118.712 135.185 118.502 135.074 118.314C134.99 118.162 134.821 118.101 134.698 117.991C134.785 117.817 134.974 117.737 135.128 117.634C134.871 117.489 134.633 117.287 134.512 117.012C134.36 116.68 134.378 116.274 134.572 115.962C134.826 115.541 135.26 115.268 135.7 115.074C135.666 114.93 135.63 114.781 135.659 114.634C135.711 114.341 135.944 114.118 135.996 113.826C135.978 113.679 135.838 113.56 135.876 113.401C135.876 113.246 135.977 113.125 136.107 113.054C136.105 112.987 136.105 112.921 136.105 112.856C135.914 112.724 135.718 112.548 135.694 112.303C135.679 112.061 135.857 111.872 135.957 111.667C136.072 111.439 136.228 111.181 136.134 110.918C136.032 110.609 135.964 110.285 135.989 109.959C136.006 109.624 136.126 109.305 136.275 109.009C136.213 108.94 136.189 108.855 136.196 108.764C135.913 108.694 135.67 108.45 135.666 108.149C135.643 107.781 135.979 107.451 136.349 107.488C136.137 107.523 135.938 107.654 135.872 107.866C135.737 108.201 135.998 108.61 136.358 108.633C136.564 108.666 136.744 108.545 136.887 108.41C136.784 108.587 136.617 108.709 136.421 108.763C136.441 108.856 136.409 108.94 136.35 109.012C136.592 109.461 136.707 109.987 136.603 110.493C136.573 110.704 136.466 110.9 136.458 111.113C136.506 111.483 136.76 111.777 136.903 112.111C137.016 112.423 136.76 112.699 136.519 112.857C136.517 112.92 136.516 112.984 136.517 113.048C136.64 113.128 136.749 113.244 136.748 113.401C136.781 113.56 136.645 113.68 136.628 113.829C136.678 114.106 136.888 114.32 136.956 114.592C136.996 114.752 136.961 114.917 136.923 115.074C137.359 115.268 137.789 115.536 138.044 115.951C138.225 116.241 138.263 116.613 138.144 116.934C138.037 117.245 137.777 117.469 137.503 117.633C137.649 117.746 137.841 117.816 137.927 117.992C137.808 118.094 137.651 118.153 137.566 118.29C137.434 118.497 137.326 118.735 137.339 118.986C137.342 119.397 137.337 119.807 137.343 120.218C137.508 120.216 137.674 120.216 137.84 120.216C137.84 120.566 137.839 120.916 137.841 121.266C137.917 121.266 137.993 121.267 138.072 121.268C138.076 120.916 138.068 120.565 138.077 120.214C138.246 120.216 138.415 120.216 138.585 120.215C138.588 120.556 138.586 120.898 138.587 121.24C138.663 121.237 138.74 121.234 138.819 121.231C138.816 120.893 138.817 120.555 138.817 120.216C138.967 120.216 139.118 120.216 139.269 120.216C139.268 120.904 139.272 121.592 139.267 122.28C139.264 122.906 138.962 123.495 138.552 123.953C138.466 124.038 138.452 124.161 138.43 124.273C138.347 124.732 138.283 125.196 138.268 125.663C138.265 126.514 138.268 127.364 138.266 128.215C138.652 128.218 139.038 128.213 139.424 128.218C139.571 129.325 139.452 130.49 138.94 131.494C138.813 131.77 138.616 132.002 138.452 132.254C138.433 134.178 138.449 136.104 138.444 138.028C138.583 138.029 138.723 138.029 138.864 138.032C138.862 138.268 138.858 138.503 138.867 138.739C138.894 138.728 138.947 138.707 138.973 138.697C138.99 138.474 138.975 138.251 138.98 138.028C139.102 138.029 139.225 138.029 139.349 138.032C139.347 138.267 139.345 138.501 139.351 138.737C139.379 138.727 139.433 138.706 139.461 138.696C139.48 138.473 139.464 138.249 139.468 138.027C139.561 138.028 139.655 138.027 139.75 138.036C139.934 139.473 139.734 140.994 139.022 142.271C138.937 142.469 138.727 142.622 138.73 142.849C138.787 145.23 138.839 147.61 138.896 149.991C139.155 149.99 139.415 149.991 139.675 149.99C139.729 150.524 139.695 151.088 139.446 151.574C139.338 151.79 139.174 151.974 138.983 152.121C139.029 155.751 139.076 159.381 139.121 163.011C139.414 163.012 139.707 163.009 140 163.014C139.998 163.993 140 164.973 139.999 165.952C108.332 165.952 76.6662 165.953 45 165.952C45.0024 164.971 44.9976 163.991 45.0024 163.01C45.6911 163.013 46.3799 163.011 47.0687 163.011C47.1011 160.508 47.1312 158.004 47.1656 155.5C47.1947 155.346 47.0286 155.275 46.9541 155.166C46.6596 154.795 46.6248 154.292 46.6615 153.837C46.851 153.837 47.0405 153.837 47.23 153.838C47.2644 152.386 47.2968 150.934 47.3307 149.482C47.3188 149.172 47.3851 148.85 47.3226 148.547C46.6572 147.576 46.4735 146.348 46.6023 145.196C46.673 145.191 46.7436 145.188 46.8143 145.186C46.8138 145.358 46.8114 145.531 46.8219 145.704C46.9794 145.592 46.8715 145.355 46.9011 145.189C46.9899 145.189 47.0792 145.188 47.1679 145.189C47.1932 145.359 47.0973 145.581 47.2443 145.712C47.2586 145.538 47.2562 145.365 47.2534 145.192C47.355 145.189 47.4562 145.187 47.5579 145.185C47.5517 143.817 47.5579 142.448 47.555 141.08C47.5612 141.02 47.5288 140.97 47.4944 140.926C46.8777 140.13 46.7131 139.064 46.8491 138.086C47.1274 138.087 47.4056 138.086 47.6839 138.087C47.6615 137.113 47.7627 136.126 47.5507 135.168C47.5254 135.03 47.4114 134.939 47.3345 134.83C47.0634 134.48 46.9283 134.032 46.9594 133.59C46.9608 133.16 46.9598 132.731 46.9598 132.302C47.0687 132.301 47.177 132.301 47.2858 132.302C47.2858 132.549 47.2858 132.797 47.2858 133.045C47.3269 133.045 47.4099 133.046 47.4515 133.046C47.4515 132.799 47.4524 132.551 47.4496 132.305C47.5746 132.302 47.6997 132.301 47.8247 132.301C47.8252 132.555 47.8257 132.809 47.8233 133.064C47.8796 133.063 47.9359 133.062 47.9927 133.063C47.9894 132.809 47.9908 132.555 47.9908 132.302C48.1116 132.301 48.2319 132.301 48.3526 132.302C48.3502 131.984 48.3579 131.667 48.3512 131.35C48.3364 131.068 48.1574 130.821 47.9164 130.683C48.0152 130.59 48.1245 130.511 48.2419 130.445C48.0281 130.309 47.8199 130.13 47.7546 129.875C47.6672 129.59 47.7651 129.276 47.9646 129.062C48.1522 128.852 48.3975 128.706 48.6495 128.588C48.6347 128.472 48.6032 128.353 48.6338 128.238C48.6829 128.055 48.8118 127.905 48.8614 127.723C48.8667 127.59 48.7497 127.477 48.7879 127.341C48.7965 127.242 48.8786 127.179 48.9474 127.119C48.9459 127.074 48.9445 127.029 48.9431 126.986C48.7875 126.869 48.6023 126.7 48.66 126.483C48.7502 126.219 48.9669 126.001 48.9913 125.714C48.9664 125.521 48.8815 125.342 48.8691 125.147C48.8299 124.829 48.9159 124.512 49.0567 124.23C49.0376 124.164 49.0194 124.097 49.0027 124.031C48.786 123.958 48.5956 123.758 48.6333 123.515C48.65 123.272 48.8724 123.116 49.0982 123.089C48.9808 123.151 48.8452 123.211 48.7927 123.343C48.6796 123.565 48.8185 123.86 49.059 123.919C49.2132 123.971 49.3598 123.882 49.4977 123.825C49.4065 123.908 49.3049 123.978 49.1917 124.029C49.1736 124.09 49.1545 124.152 49.134 124.214C49.2796 124.517 49.3745 124.856 49.3197 125.194C49.2953 125.442 49.1254 125.695 49.2619 125.939C49.3411 126.184 49.6017 126.393 49.5249 126.669C49.4848 126.857 49.228 126.913 49.238 127.118C49.3111 127.176 49.3998 127.238 49.407 127.342C49.4423 127.475 49.333 127.588 49.3325 127.718C49.3803 127.895 49.4991 128.042 49.555 128.216C49.5927 128.339 49.5626 128.468 49.5459 128.592C49.8528 128.728 50.1516 128.919 50.3387 129.205C50.5082 129.461 50.5172 129.814 50.3521 130.075C50.2643 130.237 50.0986 130.329 49.9664 130.45C50.0776 130.52 50.1912 130.592 50.2724 130.699C50.0113 130.827 49.8423 131.105 49.8404 131.394C49.8385 131.695 49.8442 131.997 49.8385 132.298C49.9597 132.3 50.0814 132.301 50.2032 132.303C50.2032 132.557 50.2032 132.812 50.2032 133.068C50.26 133.064 50.3168 133.062 50.374 133.06C50.3702 132.807 50.3716 132.554 50.3721 132.302C50.4953 132.301 50.6184 132.301 50.7416 132.302C50.7425 132.549 50.742 132.798 50.742 133.046C50.7969 133.046 50.8518 133.046 50.9067 133.048C50.9081 132.799 50.9077 132.549 50.9081 132.301C51.017 132.301 51.1258 132.302 51.2351 132.304C51.2313 132.796 51.2351 133.288 51.2337 133.78C51.238 134.23 51.027 134.653 50.7368 134.986C50.6394 135.087 50.6304 135.233 50.6055 135.364C50.4428 136.261 50.533 137.176 50.5077 138.083C50.7874 138.09 51.0671 138.086 51.3463 138.087C51.4833 139.095 51.3067 140.202 50.6389 141.001C50.6366 142.397 50.6394 143.792 50.6375 145.189C50.7392 145.188 50.8404 145.188 50.9416 145.189C50.9649 145.36 50.8752 145.577 51.0141 145.712C51.0294 145.538 51.0265 145.364 51.0251 145.19C51.1143 145.189 51.2036 145.189 51.2929 145.189C51.3077 145.365 51.2408 145.571 51.3616 145.72C51.3855 145.544 51.3807 145.366 51.3802 145.189C51.4494 145.188 51.5191 145.189 51.5888 145.19C51.7243 146.356 51.5368 147.609 50.8437 148.581C50.8828 150.333 50.9239 152.085 50.9645 153.838C51.1544 153.837 51.3439 153.837 51.5339 153.838C51.5864 154.385 51.4962 155.024 51.0284 155.378C51.0618 157.923 51.0905 160.468 51.1287 163.013C51.3568 163.011 51.585 163.012 51.8131 163.009C51.8103 157.833 51.8131 152.657 51.8055 147.481C51.7773 147.167 52.0136 146.923 52.2546 146.762C52.3806 146.7 52.2823 146.544 52.288 146.438C52.1969 146.376 52.0785 146.315 52.0666 146.192C52.0422 146.063 52.1515 145.975 52.2298 145.893C52.016 144.972 52.2518 143.919 52.9482 143.257C53.4737 142.791 54.1577 142.567 54.8149 142.359C54.8474 142.265 54.8837 142.172 54.9281 142.084C54.9094 141.871 54.9524 141.66 54.982 141.451C54.8584 141.381 54.7013 141.297 54.7028 141.133C54.6837 140.944 54.8622 140.837 55.0164 140.785C54.9452 140.852 54.8579 140.906 54.8106 140.994C54.7414 141.149 54.8574 141.341 55.0235 141.361C55.1113 141.361 55.1925 141.322 55.2765 141.302C55.1882 141.355 55.0965 141.403 55.0016 141.444C55.0149 141.601 55.0264 141.759 55.0603 141.914C55.0517 141.97 55.0426 142.026 55.0335 142.084C55.0774 142.172 55.1137 142.265 55.1438 142.36C55.8569 142.605 56.6201 142.879 57.1103 143.485C57.6497 144.15 57.8077 145.072 57.6206 145.897C57.6955 145.977 57.8015 146.063 57.7776 146.188C57.7704 146.298 57.6664 146.358 57.5934 146.427C57.5824 146.524 57.5714 146.622 57.5599 146.72C57.8091 146.883 58.0955 147.103 58.0859 147.434C58.0835 149.597 58.0855 151.76 58.0812 153.923C58.6296 153.922 59.1775 153.928 59.7255 153.92C59.8711 147.669 60.0295 141.418 60.1751 135.167C60.1799 134.611 60.2171 134.054 60.2033 133.499C60.0515 133.081 59.7665 132.726 59.5813 132.323C59.5546 132.253 59.5155 132.181 59.5274 132.106C59.5742 132.007 59.6902 131.979 59.7875 131.958C59.9646 131.927 60.1455 131.939 60.3245 131.938C60.3283 131.669 60.326 131.401 60.3312 131.132C60.4596 131.11 60.5875 131.088 60.7159 131.066C60.8028 123.397 60.883 115.728 60.9675 108.059C60.925 107.619 60.8181 107.174 60.5875 106.792C60.4376 106.543 60.2143 106.334 59.9403 106.229C59.6496 106.118 59.4372 105.874 59.2682 105.622C59.1451 105.432 59.0324 105.224 59.0052 104.996C59.0248 104.451 59.4425 103.974 59.9675 103.844C59.9699 103.449 59.9785 103.054 59.9832 102.659C60.3298 102.672 60.6768 102.666 61.0238 102.684C61.0352 101.584 61.0357 100.485 61.0424 99.3849C60.7078 99.3071 60.3293 99.2446 60.0892 98.9749C59.9341 98.8069 59.9737 98.5501 60.0906 98.373C60.4806 97.7468 60.9985 97.195 61.6156 96.7884C61.6156 96.4175 61.6199 96.0461 61.6128 95.6748C61.4791 95.6466 61.3006 95.6461 61.2348 95.5015C61.1913 95.4395 61.2367 95.3674 61.2653 95.3101C61.4429 95.0161 61.6944 94.7784 61.9283 94.5302C62.0347 94.4395 62.0099 94.2892 62.029 94.1655C62.1245 93.1283 62.2548 92.094 62.4481 91.0707C62.6094 90.2883 62.7889 89.5098 62.9841 88.7357C62.8843 88.6116 62.7894 88.4626 62.8209 88.296C62.8356 88.1142 62.9793 87.9882 63.1216 87.8951C63.1354 87.7939 63.1492 87.6932 63.1626 87.592C63.0261 87.5042 62.8944 87.3696 62.9144 87.193C62.9092 87.0355 63.0533 86.9467 63.1402 86.8369C63.1745 86.624 63.1712 86.4064 63.1893 86.1916C63.0862 86.1076 62.966 86.0064 62.986 85.857C62.986 85.7043 63.1201 85.6112 63.2409 85.5477C63.2471 85.3396 63.2452 85.1315 63.2438 84.9234C62.9617 84.8833 62.6772 84.7649 62.5087 84.5253C62.2514 84.1878 62.2604 83.6766 62.5373 83.353ZM62.5583 95.5192C62.5492 95.9488 62.5564 96.3783 62.554 96.8079C62.638 96.8084 62.7225 96.8084 62.8065 96.8089C62.8055 96.3793 62.8108 95.9492 62.8032 95.5192C62.7215 95.5192 62.6399 95.5192 62.5583 95.5192ZM63.1974 95.5197C63.1988 95.9497 63.1926 96.3802 63.2012 96.8108C63.2838 96.8103 63.3659 96.8098 63.449 96.8098C63.4571 96.3802 63.4509 95.9502 63.4528 95.5201C63.3673 95.5201 63.2824 95.5197 63.1974 95.5197ZM63.773 95.5197C63.774 95.9497 63.7692 96.3798 63.7754 96.8098C63.8575 96.8098 63.9396 96.8098 64.0222 96.8098C64.0294 96.3802 64.0232 95.9502 64.0255 95.5206C63.9411 95.5201 63.8571 95.5197 63.773 95.5197ZM64.3611 95.5259C64.364 95.9535 64.3611 96.3812 64.363 96.8089C64.4465 96.8084 64.5305 96.8084 64.615 96.8084C64.6131 96.3774 64.6193 95.9459 64.6112 95.5149C64.5277 95.5182 64.4441 95.522 64.3611 95.5259ZM114.632 95.5125C114.625 95.9445 114.63 96.3764 114.629 96.8084C114.712 96.8084 114.796 96.8084 114.881 96.8089C114.877 96.3831 114.889 95.9573 114.877 95.5321C114.795 95.5192 114.713 95.5177 114.632 95.5125ZM115.272 95.5197C115.271 95.9478 115.273 96.376 115.271 96.8046C115.354 96.8074 115.438 96.8098 115.523 96.8127C115.531 96.3822 115.525 95.9511 115.527 95.5201C115.441 95.5201 115.356 95.5197 115.272 95.5197ZM115.848 95.5197C115.849 95.9497 115.843 96.3798 115.85 96.8098C115.932 96.8098 116.014 96.8098 116.097 96.8098C116.103 96.3798 116.098 95.9502 116.1 95.5201C116.015 95.5197 115.931 95.5197 115.848 95.5197ZM116.436 95.5249C116.438 95.9526 116.436 96.3807 116.438 96.8089C116.521 96.8084 116.605 96.8084 116.69 96.8089C116.688 96.3774 116.693 95.9464 116.686 95.5154C116.602 95.5182 116.519 95.5216 116.436 95.5249ZM61.9225 95.5197C61.9225 95.9497 61.922 96.3798 61.923 96.8093C62.007 96.8084 62.0915 96.8079 62.176 96.8074C62.175 96.3788 62.1741 95.9502 62.1764 95.522C62.0915 95.5211 62.007 95.5201 61.9225 95.5197ZM113.997 95.5197C113.997 95.9492 113.997 96.3788 113.997 96.8084C114.08 96.8084 114.165 96.8084 114.25 96.8079C114.25 96.3793 114.248 95.9507 114.251 95.522C114.166 95.5211 114.081 95.5201 113.997 95.5197ZM60.4037 103.233C60.4032 103.774 60.4032 104.315 60.4037 104.856C60.5345 104.856 60.6653 104.856 60.7965 104.856C60.7965 104.316 60.7965 103.774 60.7965 103.233C60.6653 103.233 60.5345 103.233 60.4037 103.233ZM61.3793 103.235C61.3812 103.775 61.3812 104.315 61.3793 104.855C61.5096 104.856 61.6399 104.856 61.7703 104.857C61.7712 104.316 61.7707 103.774 61.7707 103.233C61.6399 103.233 61.5096 103.233 61.3793 103.235ZM62.3717 103.233C62.3717 103.774 62.3717 104.316 62.3717 104.856C62.5024 104.856 62.6332 104.856 62.7645 104.856C62.765 104.316 62.765 103.774 62.7645 103.233C62.6332 103.233 62.5024 103.233 62.3717 103.233ZM63.2146 103.233C63.2136 103.774 63.2141 104.316 63.2141 104.857C63.3444 104.856 63.4747 104.856 63.6055 104.855C63.6036 104.315 63.6036 103.775 63.605 103.234C63.4747 103.233 63.3444 103.233 63.2146 103.233ZM64.0523 103.235C64.0542 103.775 64.0542 104.315 64.0523 104.855C64.1835 104.856 64.3148 104.856 64.4461 104.857C64.447 104.316 64.4465 103.774 64.4461 103.233C64.3148 103.233 64.1835 103.233 64.0523 103.235ZM64.8962 103.233C64.8957 103.774 64.8957 104.316 64.8957 104.856C65.0269 104.856 65.1577 104.856 65.289 104.856C65.289 104.316 65.289 103.774 65.289 103.233C65.1577 103.233 65.0269 103.233 64.8962 103.233ZM65.6513 103.233C65.6508 103.774 65.6508 104.316 65.6513 104.856C65.782 104.856 65.9133 104.856 66.0446 104.856C66.0436 104.315 66.0441 103.774 66.0441 103.233C65.9133 103.233 65.782 103.233 65.6513 103.233ZM112.478 103.233C112.478 103.774 112.478 104.316 112.478 104.856C112.609 104.856 112.739 104.856 112.871 104.856C112.871 104.316 112.871 103.774 112.871 103.233C112.739 103.233 112.609 103.233 112.478 103.233ZM113.454 103.235C113.456 103.775 113.456 104.315 113.454 104.855C113.584 104.856 113.714 104.856 113.845 104.857C113.845 104.316 113.846 103.774 113.845 103.233C113.714 103.233 113.584 103.233 113.454 103.235ZM114.446 103.233C114.446 103.774 114.446 104.316 114.446 104.856C114.577 104.856 114.708 104.856 114.839 104.856C114.84 104.316 114.84 103.774 114.839 103.233C114.707 103.233 114.577 103.233 114.446 103.233ZM115.289 103.233C115.288 103.774 115.288 104.316 115.289 104.857C115.418 104.856 115.549 104.856 115.68 104.855C115.678 104.315 115.679 103.774 115.679 103.234C115.549 103.233 115.418 103.233 115.289 103.233ZM116.127 103.235C116.129 103.775 116.129 104.315 116.127 104.855C116.258 104.856 116.389 104.856 116.521 104.857C116.521 104.316 116.522 103.774 116.52 103.233C116.388 103.233 116.258 103.233 116.127 103.235ZM116.971 103.233C116.97 103.774 116.97 104.316 116.97 104.856C117.101 104.856 117.232 104.856 117.363 104.856C117.364 104.316 117.364 103.774 117.363 103.233C117.232 103.233 117.101 103.233 116.971 103.233ZM117.726 103.233C117.725 103.774 117.725 104.316 117.726 104.856C117.856 104.856 117.987 104.856 118.119 104.856C118.118 104.315 118.118 103.775 118.119 103.234C117.987 103.233 117.857 103.233 117.726 103.233ZM62.7368 107.608C62.4285 107.779 62.2943 108.147 62.2867 108.483C62.2877 109.549 62.2881 110.615 62.2862 111.68C62.8614 111.683 63.4361 111.681 64.0112 111.682C64.0122 110.6 64.0103 109.519 64.0122 108.437C64.0146 108.212 63.963 107.98 63.8165 107.804C63.5688 107.485 63.0809 107.395 62.7368 107.608ZM114.502 107.925C114.416 108.097 114.362 108.289 114.361 108.482C114.362 109.548 114.363 110.615 114.361 111.681C114.936 111.683 115.511 111.681 116.085 111.682C116.086 110.584 116.086 109.486 116.086 108.388C116.095 108.032 115.882 107.675 115.543 107.549C115.166 107.392 114.691 107.563 114.502 107.925ZM62.4356 114.804C62.3402 114.99 62.2819 115.198 62.2862 115.408C62.2896 116.466 62.2857 117.526 62.2881 118.585C62.8628 118.581 63.4375 118.587 64.0122 118.581C64.0103 117.585 64.0112 116.589 64.0117 115.593C64.0103 115.371 64.0294 115.141 63.9487 114.929C63.8389 114.631 63.5444 114.413 63.228 114.39C62.9134 114.361 62.5931 114.532 62.4356 114.804ZM114.826 114.496C114.514 114.659 114.374 115.022 114.361 115.357C114.363 116.433 114.36 117.509 114.363 118.585C114.937 118.581 115.512 118.588 116.087 118.581C116.085 117.523 116.085 116.465 116.087 115.406C116.093 115.174 116.062 114.929 115.921 114.738C115.683 114.399 115.184 114.28 114.826 114.496ZM62.6595 122.041C62.4156 122.214 62.3125 122.52 62.2877 122.806C62.2857 123.892 62.2896 124.979 62.2862 126.066C62.8609 126.071 63.4361 126.067 64.0107 126.068C64.0112 124.963 64.0122 123.859 64.0107 122.755C64.0107 122.467 63.8776 122.176 63.6318 122.018C63.3459 121.816 62.9358 121.828 62.6595 122.041ZM114.491 122.327C114.417 122.491 114.361 122.67 114.361 122.851C114.362 123.923 114.363 124.994 114.361 126.066C114.935 126.07 115.511 126.067 116.086 126.068C116.086 125.106 116.086 124.145 116.086 123.184C116.081 122.942 116.11 122.693 116.038 122.459C115.95 122.171 115.693 121.947 115.4 121.889C115.044 121.811 114.653 122.003 114.491 122.327ZM136.297 123.945C136.045 124.679 135.974 125.466 135.99 126.238C135.99 126.885 135.99 127.531 135.99 128.178C136.203 128.176 136.417 128.176 136.632 128.179C136.633 127.708 136.632 127.237 136.633 126.766C136.626 126.152 136.665 125.535 136.557 124.928C136.492 124.596 136.475 124.24 136.297 123.945ZM134.978 124.765C134.918 125.141 134.866 125.521 134.872 125.903C134.874 126.665 134.871 127.426 134.873 128.187C135.05 128.187 135.226 128.187 135.404 128.188C135.407 127.349 135.406 126.509 135.404 125.67C135.379 125.101 135.273 124.54 135.174 123.98C135.071 124.23 135.025 124.5 134.978 124.765ZM137.451 123.98C137.329 124.663 137.195 125.352 137.219 126.049C137.22 126.762 137.219 127.475 137.22 128.188C137.396 128.187 137.572 128.187 137.749 128.188C137.749 127.332 137.754 126.477 137.747 125.621C137.701 125.068 137.641 124.504 137.451 123.98ZM60.7703 131.735C60.8271 132.294 60.7884 132.857 60.7989 133.418C60.9588 133.418 61.1192 133.419 61.2791 133.419C61.2791 132.903 61.2801 132.388 61.2801 131.874C61.2858 131.748 61.2476 131.599 61.1216 131.546C60.9827 131.468 60.7736 131.571 60.7703 131.735ZM61.8628 131.724C61.9196 132.286 61.8796 132.853 61.8915 133.418C62.0514 133.418 62.2113 133.418 62.3717 133.419C62.3717 132.904 62.3717 132.389 62.3726 131.874C62.3788 131.75 62.3435 131.604 62.2208 131.548C62.0838 131.469 61.8796 131.564 61.8628 131.724ZM62.8714 131.735C62.9263 132.294 62.8886 132.857 62.8991 133.418C63.0599 133.418 63.2213 133.419 63.3821 133.418C63.3821 132.903 63.3826 132.388 63.3831 131.872C63.3893 131.747 63.3506 131.6 63.2251 131.546C63.0852 131.468 62.8776 131.571 62.8714 131.735ZM63.8809 131.729C63.9377 132.289 63.9005 132.853 63.9086 133.416C64.069 133.419 64.2294 133.419 64.3902 133.419C64.3907 132.903 64.3902 132.388 64.3916 131.873C64.3983 131.747 64.3587 131.598 64.2322 131.545C64.0938 131.47 63.8933 131.57 63.8809 131.729ZM64.9749 131.733C65.0274 132.293 64.9926 132.856 65.0021 133.418C65.162 133.418 65.3219 133.419 65.4823 133.419C65.4828 132.903 65.4823 132.388 65.4837 131.872C65.4899 131.746 65.4517 131.596 65.3243 131.544C65.1854 131.47 64.9811 131.572 64.9749 131.733ZM112.845 131.729C112.902 132.29 112.862 132.855 112.873 133.418C113.033 133.418 113.193 133.418 113.354 133.418C113.354 132.904 113.354 132.389 113.355 131.874C113.36 131.749 113.323 131.6 113.197 131.546C113.059 131.469 112.853 131.569 112.845 131.729ZM113.937 131.732C113.995 132.292 113.954 132.856 113.966 133.419C114.126 133.418 114.286 133.418 114.446 133.419C114.447 132.918 114.445 132.418 114.448 131.918C114.45 131.794 114.443 131.642 114.328 131.567C114.19 131.456 113.947 131.553 113.937 131.732ZM114.946 131.73C115 132.291 114.964 132.855 114.974 133.418C115.134 133.419 115.295 133.418 115.457 133.418C115.457 132.917 115.456 132.417 115.459 131.916C115.46 131.79 115.451 131.636 115.331 131.563C115.192 131.459 114.957 131.555 114.946 131.73ZM115.955 131.731C116.012 132.29 115.975 132.855 115.984 133.417C116.144 133.418 116.304 133.419 116.465 133.419C116.465 132.902 116.464 132.386 116.466 131.87C116.472 131.745 116.432 131.598 116.308 131.545C116.168 131.47 115.966 131.57 115.955 131.731ZM117.049 131.732C117.102 132.292 117.068 132.855 117.076 133.417C117.236 133.418 117.396 133.419 117.557 133.419C117.557 132.904 117.557 132.389 117.558 131.874C117.564 131.748 117.528 131.598 117.4 131.545C117.261 131.469 117.056 131.571 117.049 131.732ZM122.151 132.585C121.851 133.441 121.984 134.362 121.953 135.25C122.017 135.25 122.083 135.25 122.149 135.252C122.16 136.702 122.146 138.151 122.154 139.601C122.158 138.15 122.161 136.7 122.153 135.25C122.221 135.25 122.289 135.25 122.359 135.251C122.355 134.713 122.363 134.174 122.355 133.635C122.326 133.28 122.295 132.915 122.151 132.585ZM121.435 132.615C121.16 133.471 121.277 134.379 121.253 135.262C121.363 135.26 121.476 135.26 121.588 135.258C121.568 134.376 121.657 133.48 121.435 132.615ZM122.874 132.617C122.809 132.971 122.741 133.327 122.729 133.689C122.728 134.213 122.729 134.738 122.729 135.262C122.841 135.261 122.953 135.259 123.065 135.257C123.032 134.377 123.164 133.467 122.874 132.617ZM48.8757 136.099C48.8538 136.751 48.8738 137.404 48.8657 138.057C49.0194 138.057 49.1726 138.057 49.3263 138.06C49.3339 137.653 49.3282 137.246 49.3296 136.838C49.3449 136.223 49.3086 135.594 49.111 135.007C48.9335 135.34 48.9254 135.732 48.8757 136.099ZM49.7559 136.213C49.7516 136.831 49.7535 137.45 49.7559 138.069C49.8833 138.067 50.0112 138.067 50.1392 138.067C50.1139 137.049 50.237 136.005 49.9306 135.016C49.8442 135.409 49.7831 135.81 49.7559 136.213ZM48.0581 138.068C48.185 138.067 48.3115 138.067 48.438 138.068C48.4404 137.451 48.4418 136.834 48.438 136.218C48.4146 135.816 48.3454 135.418 48.2714 135.023C47.9454 136.006 48.0896 137.053 48.0581 138.068ZM135.658 135.781C135.65 136.532 135.66 137.282 135.654 138.033C135.728 138.036 135.803 138.038 135.879 138.042C135.88 138.268 135.878 138.494 135.884 138.721C135.913 138.72 135.971 138.718 136 138.717C136.001 138.49 136 138.264 136.002 138.038C136.21 138.038 136.417 138.037 136.625 138.04C136.624 138.272 136.621 138.505 136.628 138.738C136.655 138.727 136.71 138.707 136.738 138.696C136.756 138.478 136.741 138.258 136.745 138.04C136.817 138.038 136.892 138.037 136.968 138.037C136.964 137.285 136.97 136.534 136.965 135.783C136.965 135.44 136.654 135.134 136.31 135.145C135.968 135.136 135.661 135.44 135.658 135.781ZM121.748 140.035C121.736 140.508 121.747 140.982 121.743 141.456C121.778 141.455 121.847 141.454 121.881 141.454C121.883 141.595 121.884 141.736 121.885 141.878L121.961 141.874C121.959 141.736 121.959 141.6 121.958 141.464C122.017 141.46 122.078 141.459 122.14 141.458C122.169 142.877 122.144 144.297 122.152 145.716C122.156 148.165 122.146 150.612 122.156 153.06C122.157 150.357 122.158 147.654 122.156 144.951C122.166 143.788 122.141 142.624 122.17 141.461C122.215 141.459 122.307 141.456 122.352 141.454C122.351 141.605 122.35 141.756 122.361 141.908C122.479 141.794 122.413 141.617 122.43 141.474C122.463 141.466 122.528 141.45 122.561 141.442C122.579 140.989 122.565 140.535 122.569 140.082C122.588 139.857 122.405 139.639 122.177 139.634C121.954 139.617 121.746 139.811 121.748 140.035ZM68.9318 142.346C68.7796 142.401 68.8488 142.634 69.0082 142.603C69.1748 142.551 69.0974 142.293 68.9318 142.346ZM99.7212 142.355C99.5656 142.418 99.6873 142.674 99.8362 142.586C99.9942 142.525 99.8653 142.271 99.7212 142.355ZM71.0406 142.456C70.989 142.539 71.0826 142.602 71.126 142.663C70.7112 143.085 70.5804 143.695 70.5303 144.264C70.9508 144.26 71.3718 144.267 71.7923 144.26C71.8205 143.676 71.6258 143.08 71.2076 142.665C71.2372 142.596 71.3203 142.527 71.2682 142.45C71.2301 142.36 71.0764 142.364 71.0406 142.456ZM73.4653 142.404C73.3345 142.477 73.4405 142.702 73.5827 142.632C73.7584 142.574 73.6157 142.299 73.4653 142.404ZM75.8017 142.394C75.7387 142.412 75.6934 142.497 75.7282 142.558C75.7526 142.672 75.9378 142.667 75.9674 142.56C76.018 142.465 75.8982 142.343 75.8017 142.394ZM78.0012 142.4C77.858 142.469 77.9673 142.704 78.1162 142.634C78.2785 142.568 78.1501 142.31 78.0012 142.4ZM101.842 142.469C101.79 142.542 101.9 142.603 101.926 142.667C101.513 143.088 101.39 143.696 101.33 144.263C101.751 144.263 102.173 144.263 102.595 144.263C102.624 143.706 102.452 143.132 102.065 142.723C101.952 142.651 102.12 142.555 102.079 142.465C102.047 142.357 101.869 142.358 101.842 142.469ZM104.301 142.39C104.209 142.411 104.181 142.535 104.243 142.602C104.302 142.672 104.435 142.647 104.461 142.557C104.503 142.464 104.396 142.352 104.301 142.39ZM106.592 142.399C106.445 142.47 106.553 142.697 106.707 142.637C106.867 142.563 106.742 142.316 106.592 142.399ZM108.831 142.39C108.663 142.43 108.746 142.699 108.91 142.638C109.067 142.59 108.987 142.335 108.831 142.39ZM68.3084 144.261C68.7299 144.265 69.1519 144.261 69.5733 144.264C69.6115 143.663 69.4072 143.04 68.971 142.617C68.5189 143.037 68.3867 143.675 68.3084 144.261ZM78.0551 142.649C77.6112 143.075 77.4671 143.704 77.3874 144.291C77.8093 144.292 78.2312 144.292 78.6532 144.292C78.6833 143.695 78.4947 143.068 78.0551 142.649ZM99.1193 144.264C99.5369 144.263 99.9551 144.262 100.373 144.265C100.422 143.664 100.209 143.044 99.7804 142.617C99.325 143.034 99.1823 143.675 99.1193 144.264ZM103.675 144.291C104.097 144.291 104.518 144.293 104.94 144.29C104.973 143.692 104.774 143.082 104.354 142.648C103.892 143.06 103.759 143.705 103.675 144.291ZM105.977 144.292C106.399 144.292 106.821 144.292 107.243 144.292C107.276 143.691 107.071 143.076 106.643 142.647C106.188 143.064 106.053 143.705 105.977 144.292ZM72.8715 144.292C73.2925 144.292 73.714 144.292 74.1354 144.291C74.1679 143.693 73.9717 143.076 73.5441 142.647C73.0911 143.067 72.9512 143.704 72.8715 144.292ZM75.1731 144.292C75.5951 144.29 76.0175 144.296 76.4399 144.288C76.4685 143.689 76.2666 143.072 75.8352 142.647C75.3831 143.067 75.2481 143.705 75.1731 144.292ZM108.192 144.291C108.614 144.292 109.035 144.292 109.457 144.292C109.49 143.694 109.294 143.076 108.867 142.647C108.413 143.066 108.272 143.703 108.192 144.291ZM48.6466 143.434C48.6189 143.539 48.6223 143.649 48.6208 143.757C48.6237 144.234 48.6218 144.711 48.6223 145.189C48.6633 145.189 48.7449 145.189 48.7855 145.19C48.8122 145.358 48.7106 145.586 48.8643 145.709C48.8748 145.536 48.8729 145.363 48.8714 145.19C49.0223 145.189 49.1731 145.189 49.3239 145.189C49.3459 145.361 49.2614 145.573 49.3941 145.715C49.4136 145.542 49.4098 145.368 49.406 145.196C49.4619 145.191 49.5177 145.187 49.5735 145.183C49.5654 144.644 49.5783 144.104 49.5683 143.565C49.5707 143.318 49.3497 143.096 49.102 143.099C48.8977 143.093 48.7029 143.239 48.6466 143.434ZM52.8407 144.727C52.8474 144.77 52.8555 144.814 52.8651 144.859C52.6918 145.064 52.6245 145.328 52.5892 145.589C52.7839 145.59 52.9792 145.59 53.1744 145.589C53.1763 145.313 53.0856 145.042 52.8971 144.838C52.9171 144.815 52.9562 144.77 52.9763 144.748C52.9309 144.739 52.8861 144.732 52.8407 144.727ZM54.8913 144.75C54.907 144.779 54.938 144.836 54.9538 144.864C54.7695 145.07 54.6965 145.342 54.6617 145.61C54.8564 145.609 55.0512 145.61 55.2464 145.607C55.2469 145.348 55.1738 145.091 55.0068 144.892C55.0068 144.842 55.0063 144.795 55.0039 144.748C54.9662 144.747 54.929 144.748 54.8913 144.75ZM53.8226 144.732C53.8345 144.779 53.8459 144.828 53.8579 144.877C53.6851 145.074 53.6283 145.336 53.5949 145.589C53.7901 145.59 53.9858 145.59 54.181 145.589C54.1782 145.334 54.1023 145.086 53.9395 144.889C53.9433 144.803 53.9266 144.729 53.8226 144.732ZM55.9838 144.872C55.8106 145.079 55.7433 145.344 55.7046 145.606C55.9008 145.61 56.0969 145.61 56.2926 145.606C56.2807 145.451 56.2712 145.291 56.2058 145.148C56.1461 145.009 56.0072 144.895 56.0578 144.729C55.9776 144.744 55.9528 144.791 55.9838 144.872ZM56.947 144.754C56.9623 144.781 56.9933 144.835 57.0086 144.863C56.8239 145.069 56.748 145.341 56.7141 145.61C56.9088 145.609 57.1041 145.61 57.2988 145.606C57.2878 145.462 57.2831 145.314 57.2282 145.178C57.1766 145.033 57.0353 144.919 57.0678 144.753C57.0377 144.753 56.9771 144.753 56.947 144.754ZM102.58 145.07C102.487 145.181 102.565 145.322 102.596 145.441C102.638 145.327 102.75 145.131 102.58 145.07ZM68.5901 145.472L68.6335 145.336C68.6593 145.39 68.6827 145.45 68.6769 145.514C68.655 145.543 68.6111 145.601 68.5891 145.631C68.5161 145.482 68.5208 145.264 68.3256 145.218C68.3328 145.339 68.4411 145.397 68.5208 145.469C68.3509 145.457 68.1843 145.536 68.0178 145.513C68.0063 145.452 67.9977 145.392 67.9915 145.332C68.0235 145.332 68.0875 145.332 68.1194 145.332C68.1166 145.366 68.1104 145.432 68.1075 145.465C68.161 145.423 68.1796 145.362 68.1915 145.299C68.1275 145.296 68.0641 145.296 68.0011 145.3C67.9486 145.354 67.9748 145.439 67.9624 145.508C68.0154 145.537 68.0684 145.566 68.1218 145.596C68.1447 145.673 68.1213 145.796 68.2216 145.822C68.2994 145.842 68.3519 145.776 68.4082 145.738C68.4979 145.88 68.6631 145.77 68.7924 145.771C68.8664 145.781 68.9409 145.79 69.0158 145.801C69.033 145.652 69.1433 145.564 69.2483 145.474C69.3151 145.341 69.159 145.263 69.0449 145.277C69.0282 145.351 69.0211 145.426 69.107 145.463C69.1065 145.424 69.1065 145.346 69.106 145.307C69.1724 145.327 69.2172 145.37 69.2406 145.434C69.2044 145.473 69.1662 145.512 69.127 145.549C69.0034 145.484 68.8631 145.482 68.7285 145.464C68.7142 145.362 68.939 145.346 68.8564 145.235C68.8158 145.256 68.7757 145.279 68.7375 145.305C68.7161 145.319 68.6731 145.347 68.6516 145.36C68.6497 145.272 68.7185 145.146 68.623 145.079C68.4464 145.119 68.5958 145.356 68.5901 145.472ZM70.1513 145.098C70.1027 145.219 70.169 145.341 70.2058 145.455C70.2373 145.347 70.359 145.049 70.1513 145.098ZM71.7279 145.1C71.7293 145.225 71.7565 145.347 71.8057 145.463C71.8391 145.345 71.8611 145.225 71.8706 145.104C71.8348 145.103 71.7632 145.101 71.7279 145.1ZM73.3465 145.091C73.2959 145.211 73.3579 145.334 73.3966 145.448C73.4262 145.34 73.5536 145.053 73.3465 145.091ZM74.9345 145.099C74.9006 145.225 74.9536 145.348 75.007 145.461L75.0209 145.295C75.05 145.341 75.0777 145.388 75.1058 145.435C75.165 145.378 75.2729 145.343 75.2586 145.244C75.1865 145.259 75.1163 145.282 75.0466 145.304C75.0481 145.253 75.0509 145.153 75.0528 145.103C75.0232 145.102 74.9641 145.1 74.9345 145.099ZM76.5401 145.084C76.491 145.218 76.5545 145.354 76.585 145.485C76.6065 145.36 76.7568 145.083 76.5401 145.084ZM78.1668 145.092C78.1162 145.214 78.1807 145.337 78.2188 145.453C78.246 145.344 78.3787 145.052 78.1668 145.092ZM99.3589 145.096C99.3121 145.21 99.3684 145.325 99.4157 145.429C99.4529 145.333 99.5622 145.047 99.3589 145.096ZM101.005 145.48C101.039 145.358 101.089 145.232 101.066 145.104C100.838 145.038 100.985 145.373 101.005 145.48ZM104.148 145.102C104.104 145.232 104.174 145.363 104.202 145.49C104.226 145.389 104.259 145.29 104.264 145.187C104.294 145.113 104.206 145.057 104.148 145.102ZM105.724 145.093C105.729 145.227 105.757 145.358 105.79 145.488C105.825 145.366 105.879 145.24 105.856 145.11C105.823 145.106 105.757 145.097 105.724 145.093ZM107.339 145.095C107.297 145.228 107.365 145.361 107.399 145.489C107.425 145.365 107.465 145.242 107.457 145.114C107.427 145.109 107.368 145.1 107.339 145.095ZM67.7815 145.238C67.7595 145.265 67.7156 145.32 67.6937 145.347C67.7089 145.434 67.8135 145.437 67.8607 145.374C67.8373 145.326 67.8092 145.282 67.7815 145.238ZM69.9232 145.25C69.9179 145.368 70.0649 145.39 70.1404 145.446C70.0888 145.364 70.0511 145.213 69.9232 145.25ZM70.2563 145.453C70.3537 145.402 70.4568 145.347 70.495 145.237C70.3609 145.232 70.3007 145.346 70.2563 145.453ZM71.5112 145.296C71.5542 145.358 71.6826 145.378 71.6697 145.464C71.5355 145.481 71.3966 145.485 71.2749 145.551C71.2358 145.512 71.1981 145.471 71.1632 145.43C71.1957 145.37 71.2434 145.327 71.3074 145.301C71.3079 145.342 71.3093 145.424 71.3098 145.465C71.3752 145.42 71.3747 145.351 71.3618 145.282C71.3074 145.288 71.2535 145.296 71.2 145.305C71.1671 145.342 71.1336 145.379 71.1002 145.416C71.0783 145.384 71.0344 145.32 71.0124 145.289C70.8807 145.318 70.9365 145.426 71.0081 145.493L71.0444 145.403C71.1346 145.474 71.2248 145.545 71.3217 145.608C71.3389 145.668 71.3441 145.733 71.3699 145.792C71.4348 145.812 71.505 145.793 71.5728 145.798C71.5747 145.734 71.5761 145.671 71.5766 145.608C71.5274 145.624 71.4725 145.636 71.4406 145.681C71.4616 145.692 71.5031 145.715 71.5241 145.726C71.5117 145.783 71.4721 145.792 71.4043 145.752C71.3293 145.65 71.4148 145.501 71.5389 145.51C71.6768 145.465 71.7446 145.604 71.7952 145.705C71.7527 145.699 71.6668 145.689 71.6238 145.684C71.6401 145.728 71.6573 145.773 71.6759 145.819C71.7193 145.809 71.7604 145.791 71.8033 145.778C71.8405 145.793 71.8782 145.808 71.9169 145.822C71.937 145.778 71.9537 145.732 71.9723 145.688C71.9298 145.692 71.8439 145.699 71.8014 145.703C71.8253 145.665 71.873 145.59 71.8969 145.553C71.999 145.458 72.136 145.526 72.2315 145.593C72.2219 145.641 72.2028 145.735 72.1933 145.782C72.1298 145.786 72.0892 145.768 72.072 145.726C72.0945 145.715 72.1389 145.693 72.1613 145.682C72.1279 145.637 72.072 145.623 72.0234 145.607C72.0219 145.67 72.0224 145.735 72.0248 145.799C72.0878 145.795 72.1513 145.794 72.2148 145.786C72.2272 145.745 72.252 145.663 72.2649 145.622C72.3656 145.719 72.4778 145.84 72.6338 145.803C72.7536 145.83 72.8176 145.667 72.9159 145.674C72.9374 145.712 72.9594 145.75 72.9818 145.789C73.2582 145.807 73.5355 145.769 73.8118 145.796C73.8271 145.737 73.8429 145.679 73.8586 145.622C73.9584 145.704 74.0553 145.83 74.1999 145.822C74.3249 145.821 74.4128 145.717 74.5078 145.651C74.5412 145.699 74.534 145.847 74.6371 145.803C74.6691 145.8 74.733 145.796 74.7645 145.794C74.7655 145.733 74.7665 145.673 74.7674 145.614C74.7025 145.623 74.6404 145.643 74.607 145.705C74.6466 145.701 74.7254 145.691 74.765 145.686C74.7254 145.769 74.6705 145.791 74.6008 145.751C74.5216 145.649 74.6085 145.497 74.7369 145.514C74.8715 145.471 74.9354 145.611 74.9927 145.703C74.9559 145.697 74.882 145.686 74.8447 145.681C74.8428 145.708 74.838 145.761 74.8361 145.789C74.9426 145.784 75.0495 145.784 75.1569 145.788L75.1574 145.704C75.208 145.748 75.2595 145.794 75.3111 145.84C75.3698 145.817 75.4514 145.804 75.4471 145.721C75.4538 145.606 75.554 145.551 75.6371 145.493C75.6304 145.431 75.6256 145.368 75.6146 145.308C75.5597 145.305 75.4571 145.245 75.4347 145.321C75.3793 145.384 75.4347 145.424 75.4901 145.461C75.4881 145.421 75.4853 145.343 75.4834 145.303C75.6237 145.29 75.6547 145.563 75.501 145.521C75.3173 145.482 75.0934 145.424 74.9684 145.613C74.9287 145.463 74.9006 145.305 74.7555 145.219C74.7431 145.243 74.7187 145.291 74.7068 145.315C74.755 145.347 74.8061 145.375 74.8514 145.414C74.9101 145.487 74.7712 145.482 74.7397 145.486C74.6147 145.473 74.4242 145.599 74.3598 145.435C74.3798 145.373 74.4204 145.329 74.482 145.304C74.4848 145.343 74.4915 145.422 74.4944 145.461C74.5421 145.422 74.6128 145.386 74.5498 145.324C74.5087 145.252 74.3483 145.281 74.3431 145.375C74.2915 145.507 74.4677 145.565 74.5493 145.625C74.472 145.655 74.3984 145.693 74.3297 145.74C74.3149 145.703 74.2844 145.629 74.2696 145.591C74.1431 145.511 74.0615 145.642 74.0615 145.759C73.998 145.7 73.9345 145.643 73.871 145.586C73.9016 145.575 73.9627 145.554 73.9932 145.543C73.8505 145.507 73.7068 145.476 73.5617 145.457C73.5722 145.432 73.5927 145.384 73.6032 145.36C73.6328 145.32 73.6624 145.28 73.6911 145.24C73.6185 145.256 73.5503 145.285 73.4877 145.324C73.4935 145.386 73.4997 145.449 73.5054 145.512C73.6238 145.497 73.7426 145.513 73.8309 145.603C73.7593 145.615 73.6882 145.626 73.6171 145.638C73.6834 145.68 73.755 145.719 73.8147 145.773C73.7035 145.764 73.599 145.733 73.5021 145.681C73.5001 145.701 73.4968 145.742 73.4949 145.763C73.4042 145.744 73.4405 145.635 73.4219 145.572C73.4085 145.574 73.3818 145.577 73.3679 145.578C73.3441 145.626 73.4085 145.773 73.3154 145.749C73.3073 145.735 73.2911 145.706 73.283 145.692C73.1837 145.734 72.9765 145.848 72.9617 145.666C72.9751 145.485 73.2023 145.523 73.3283 145.496C73.1751 145.47 73.0162 145.475 72.8725 145.537C72.8415 145.519 72.7789 145.483 72.7479 145.465C72.7732 145.382 72.8305 145.328 72.915 145.311C72.9064 145.339 72.8882 145.397 72.8792 145.426C72.9078 145.427 72.9641 145.428 72.9928 145.429C73.0014 145.275 72.7689 145.229 72.7436 145.385C72.6854 145.503 72.8438 145.544 72.9097 145.601C72.8438 145.656 72.7784 145.711 72.7145 145.768C72.7102 145.721 72.7026 145.628 72.6987 145.581C72.6367 145.581 72.5751 145.579 72.515 145.589C72.4954 145.644 72.4787 145.702 72.4649 145.761C72.4038 145.706 72.3427 145.653 72.2801 145.601C72.4109 145.595 72.473 145.487 72.5427 145.395L72.589 145.493C72.6143 145.443 72.724 145.372 72.6434 145.322C72.577 145.252 72.5169 145.369 72.4935 145.415C72.4596 145.375 72.4271 145.334 72.3956 145.293C72.3474 145.305 72.2634 145.263 72.242 145.324C72.1866 145.382 72.2429 145.422 72.2883 145.462C72.2892 145.422 72.2911 145.342 72.2921 145.302C72.3847 145.327 72.4668 145.427 72.3851 145.513C72.2758 145.55 72.167 145.473 72.0558 145.478C71.9422 145.456 71.8592 145.546 71.7723 145.601C71.7312 145.501 71.7164 145.391 71.6601 145.299C71.6281 145.242 71.5336 145.218 71.5112 145.296ZM71.8525 145.449C71.9489 145.396 72.0797 145.354 72.073 145.219C71.9651 145.257 71.8911 145.342 71.8525 145.449ZM73.1188 145.245C73.1025 145.366 73.2539 145.388 73.3278 145.445C73.2849 145.357 73.2434 145.224 73.1188 145.245ZM76.3172 145.24C76.2824 145.369 76.4514 145.389 76.5282 145.448C76.4757 145.364 76.4413 145.23 76.3172 145.24ZM76.6356 145.445C76.7368 145.401 76.8442 145.353 76.8814 145.241C76.7502 145.234 76.6862 145.343 76.6356 145.445ZM77.9449 145.245C77.9153 145.369 78.0842 145.389 78.1563 145.449C78.1067 145.365 78.0694 145.225 77.9449 145.245ZM78.2709 145.454C78.3687 145.404 78.4666 145.346 78.5138 145.242C78.3759 145.232 78.3124 145.34 78.2709 145.454ZM98.5709 145.269C98.4673 145.269 98.4912 145.459 98.5947 145.416C98.6921 145.421 98.6644 145.253 98.5709 145.269ZM99.1121 145.235C99.1451 145.347 99.251 145.398 99.3484 145.446C99.3074 145.338 99.2377 145.24 99.1121 145.235ZM99.4673 145.45C99.546 145.395 99.6749 145.368 99.6892 145.255C99.5579 145.203 99.5164 145.367 99.4673 145.45ZM100.745 145.232C100.717 145.324 100.759 145.377 100.871 145.39C100.738 145.469 100.577 145.545 100.421 145.516C100.369 145.427 100.409 145.319 100.517 145.307C100.517 145.346 100.517 145.423 100.517 145.461C100.536 145.442 100.574 145.406 100.593 145.387C100.579 145.275 100.471 145.291 100.387 145.29C100.382 145.361 100.378 145.432 100.376 145.505C100.459 145.559 100.559 145.611 100.563 145.726C100.568 145.84 100.706 145.781 100.779 145.799C100.782 145.741 100.784 145.684 100.784 145.629C100.752 145.628 100.688 145.625 100.656 145.623C100.654 145.645 100.651 145.687 100.65 145.709C100.677 145.708 100.73 145.706 100.757 145.706C100.726 145.769 100.679 145.785 100.614 145.754C100.548 145.648 100.62 145.498 100.751 145.505C100.888 145.466 100.948 145.61 101.009 145.702C100.965 145.698 100.877 145.689 100.832 145.685C100.851 145.73 100.869 145.777 100.893 145.822C100.936 145.805 100.977 145.784 101.021 145.766C101.045 145.671 101.055 145.533 101.177 145.515C101.317 145.458 101.507 145.605 101.405 145.752C101.334 145.793 101.294 145.785 101.285 145.726C101.305 145.713 101.346 145.687 101.367 145.674C101.326 145.645 101.279 145.622 101.234 145.604C101.232 145.665 101.232 145.727 101.233 145.79C101.293 145.795 101.355 145.8 101.416 145.806C101.476 145.75 101.45 145.642 101.523 145.594C101.568 145.54 101.65 145.503 101.637 145.417C101.708 145.425 101.781 145.441 101.855 145.445C101.866 145.395 101.876 145.346 101.885 145.297C101.812 145.308 101.737 145.323 101.711 145.407C101.636 145.353 101.572 145.259 101.468 145.288C101.413 145.355 101.415 145.421 101.502 145.462C101.501 145.421 101.5 145.342 101.499 145.302C101.639 145.295 101.666 145.556 101.515 145.522C101.341 145.485 101.122 145.42 101.003 145.6C100.983 145.579 100.944 145.538 100.924 145.517C100.927 145.484 100.934 145.417 100.937 145.384C100.881 145.323 100.83 145.251 100.745 145.232ZM101.062 145.45C101.157 145.397 101.285 145.352 101.285 145.221C101.173 145.255 101.099 145.341 101.062 145.45ZM102.33 145.24C102.304 145.367 102.463 145.389 102.541 145.446C102.493 145.357 102.451 145.236 102.33 145.24ZM102.659 145.454C102.754 145.403 102.847 145.343 102.907 145.251C102.763 145.22 102.7 145.338 102.659 145.454ZM103.927 145.232C103.928 145.26 103.929 145.314 103.93 145.342C104 145.372 104.071 145.403 104.144 145.433C104.093 145.343 104.036 145.253 103.927 145.232ZM104.255 145.447C104.351 145.395 104.476 145.355 104.481 145.224C104.368 145.253 104.292 145.338 104.255 145.447ZM105.517 145.217C105.502 145.354 105.64 145.393 105.736 145.444C105.693 145.342 105.62 145.26 105.517 145.217ZM105.847 145.449C105.931 145.404 106.022 145.364 106.086 145.289C105.973 145.159 105.893 145.368 105.847 145.449ZM107.107 145.25C107.113 145.371 107.249 145.392 107.336 145.443C107.279 145.355 107.237 145.218 107.107 145.25ZM107.447 145.449C107.543 145.398 107.661 145.352 107.676 145.228C107.552 145.242 107.489 145.342 107.447 145.449ZM109.076 145.449C109.171 145.396 109.295 145.354 109.306 145.226C109.185 145.246 109.115 145.341 109.076 145.449ZM69.3657 145.299C69.255 145.371 69.3896 145.522 69.4726 145.427C69.516 145.334 69.443 145.305 69.3657 145.299ZM69.5218 145.485C69.5709 145.407 69.6287 145.335 69.7208 145.307C69.7117 145.337 69.6936 145.394 69.685 145.423C69.7127 145.426 69.769 145.431 69.7972 145.433C69.7662 145.373 69.7676 145.265 69.6716 145.289C69.558 145.273 69.5518 145.41 69.5218 145.485ZM70.6048 145.418C70.6334 145.421 70.6907 145.428 70.7198 145.431C70.7107 145.401 70.6931 145.343 70.684 145.314C70.7322 145.331 70.78 145.351 70.8272 145.374C70.8339 145.445 70.7876 145.497 70.7432 145.547C70.5967 145.478 70.4325 145.468 70.2745 145.497C70.4239 145.505 70.579 145.519 70.673 145.652C70.6296 145.703 70.5857 145.755 70.5423 145.806C70.4611 145.761 70.3809 145.716 70.3012 145.671C70.306 145.694 70.316 145.738 70.3208 145.76L70.2478 145.761C70.2339 145.683 70.2206 145.607 70.1914 145.534C70.1757 145.614 70.1604 145.694 70.1466 145.776L70.1012 145.682C70.0153 145.723 69.9275 145.762 69.833 145.778C69.832 145.765 69.8301 145.739 69.8296 145.726C69.8826 145.692 69.9375 145.661 69.9905 145.627C69.928 145.632 69.8029 145.642 69.7404 145.647C69.8253 145.501 69.9924 145.516 70.1346 145.495C69.9556 145.463 69.7747 145.495 69.6005 145.539C69.632 145.551 69.6946 145.575 69.7261 145.587C69.6626 145.644 69.5991 145.701 69.5356 145.759C69.5194 145.681 69.5055 145.545 69.39 145.571C69.2998 145.56 69.3051 145.691 69.2635 145.746C69.2268 145.722 69.1528 145.674 69.1156 145.65C69.1943 145.741 69.2984 145.837 69.4296 145.821C69.5485 145.824 69.6177 145.687 69.7203 145.673C69.7456 145.712 69.7704 145.752 69.7957 145.794C70.0473 145.792 70.3117 145.738 70.5537 145.83C70.6038 145.772 70.6516 145.712 70.6979 145.652C70.8358 145.843 71.1566 145.873 71.2821 145.652C71.2453 145.678 71.1714 145.731 71.1346 145.757C71.1017 145.693 71.1112 145.555 71.0072 145.571C70.895 145.548 70.8864 145.689 70.8716 145.761C70.8105 145.706 70.7494 145.654 70.6878 145.602C70.7389 145.556 70.8158 145.537 70.8516 145.475C70.863 145.407 70.8348 145.343 70.8239 145.279C70.7246 145.286 70.6224 145.301 70.6048 145.418ZM73.9078 145.452C73.9016 145.415 73.8892 145.343 73.883 145.306C73.9746 145.335 74.0261 145.411 74.072 145.492C74.0424 145.411 74.0457 145.266 73.923 145.29C73.7994 145.263 73.7808 145.444 73.9078 145.452ZM74.1832 145.309C74.0872 145.299 74.0906 145.458 74.1846 145.452C74.2973 145.5 74.292 145.252 74.1832 145.309ZM75.7258 145.436C75.8323 145.514 75.8652 145.383 75.8695 145.297C75.7846 145.299 75.6705 145.328 75.7258 145.436ZM75.9454 145.3C75.9206 145.433 75.9526 145.56 76.101 145.598C76.039 145.652 75.9774 145.707 75.9172 145.764C75.9354 145.62 75.8337 145.555 75.7034 145.57C75.6915 145.632 75.6805 145.694 75.67 145.758C75.6299 145.733 75.5488 145.682 75.5087 145.656C75.6447 145.886 75.9712 145.831 76.1091 145.632C76.1306 145.688 76.153 145.745 76.176 145.801C76.2385 145.794 76.3015 145.79 76.365 145.782C76.5769 145.811 76.7917 145.764 77.0046 145.793C77.0189 145.734 77.0332 145.676 77.048 145.62C77.1511 145.708 77.2542 145.835 77.4069 145.82C77.5387 145.828 77.6327 145.728 77.7229 145.649C77.7668 145.709 77.8131 145.77 77.8628 145.828C78.047 145.763 78.2446 145.821 78.4331 145.781C78.5458 145.816 78.6575 145.798 78.7014 145.676C78.7725 145.654 78.8269 145.769 78.889 145.806C78.9639 145.791 79.0551 145.818 79.1176 145.763C79.1195 145.705 79.1171 145.648 79.11 145.593C79.0546 145.576 78.9988 145.571 78.9424 145.579C78.9429 145.613 78.9429 145.683 78.9434 145.717C78.9916 145.683 79.036 145.642 79.0828 145.606C79.0828 145.649 79.0828 145.735 79.0828 145.777C78.92 145.8 78.7978 145.695 78.688 145.592C78.7205 145.58 78.7849 145.555 78.8169 145.543C78.6451 145.495 78.4651 145.464 78.2876 145.496C78.4284 145.515 78.584 145.509 78.6823 145.633C78.6374 145.64 78.5472 145.653 78.5024 145.661C78.5224 145.677 78.563 145.709 78.583 145.726C78.6522 145.859 78.4675 145.738 78.4289 145.697C78.3964 145.697 78.3649 145.693 78.3334 145.696C78.3253 145.709 78.3091 145.736 78.3009 145.749C78.2021 145.778 78.2709 145.625 78.2489 145.576C78.2336 145.576 78.204 145.576 78.1888 145.577C78.1644 145.624 78.2303 145.779 78.1353 145.749C78.1267 145.733 78.1086 145.702 78.1 145.687C78.0246 145.724 77.9501 145.763 77.8771 145.805C77.8327 145.753 77.7888 145.702 77.7458 145.652C77.8403 145.516 77.9983 145.505 78.1496 145.496C77.9897 145.468 77.8227 145.474 77.6757 145.549C77.6384 145.497 77.5764 145.45 77.5912 145.379C77.6356 145.351 77.6833 145.328 77.7334 145.31C77.7258 145.346 77.7105 145.416 77.7029 145.451C77.7926 145.433 77.8098 145.375 77.7702 145.299C77.7019 145.292 77.5993 145.266 77.5754 145.354C77.5043 145.474 77.6442 145.559 77.7329 145.605C77.657 145.664 77.5816 145.724 77.5057 145.783C77.5014 145.717 77.4952 145.652 77.4871 145.589C77.4279 145.579 77.3687 145.572 77.3105 145.568C77.3062 145.64 77.3024 145.712 77.2991 145.785C77.2179 145.722 77.1392 145.656 77.0614 145.589C77.0938 145.576 77.1578 145.55 77.1898 145.537C77.017 145.496 76.8389 145.464 76.6619 145.493C76.7587 145.528 76.9105 145.478 76.9664 145.589C76.9597 145.608 76.9463 145.646 76.9396 145.666C76.9463 145.686 76.9602 145.726 76.9669 145.747C76.9225 145.756 76.8776 145.756 76.8327 145.747C76.8327 145.732 76.8323 145.702 76.8323 145.687C76.7602 145.698 76.6881 145.705 76.616 145.709C76.6218 145.68 76.6332 145.623 76.6389 145.595C76.47 145.458 76.2423 145.442 76.0538 145.549C75.9445 145.484 75.9411 145.305 76.1001 145.313C76.0948 145.348 76.0848 145.418 76.0795 145.453C76.1015 145.44 76.1449 145.414 76.1669 145.401C76.1855 145.256 76.038 145.301 75.9454 145.3ZM76.9945 145.435C77.0222 145.431 77.0771 145.424 77.1048 145.421C77.0972 145.391 77.0814 145.334 77.0738 145.305C77.1554 145.343 77.2179 145.409 77.279 145.474C77.2361 145.41 77.2279 145.274 77.1225 145.29C77.0227 145.263 77.0213 145.37 76.9945 145.435ZM77.3788 145.304C77.2819 145.357 77.3845 145.52 77.4618 145.438C77.5501 145.39 77.4613 145.274 77.3788 145.304ZM78.6632 145.3C78.6183 145.372 78.6451 145.434 78.7319 145.448C78.7243 145.413 78.7095 145.342 78.7024 145.307C78.7964 145.335 78.8484 145.412 78.8961 145.494C78.8766 145.428 78.8613 145.362 78.8298 145.302C78.7739 145.287 78.7186 145.286 78.6632 145.3ZM79.0093 145.297C78.9978 145.317 78.9759 145.358 78.9649 145.378C78.951 145.489 79.1486 145.472 79.121 145.379C79.1462 145.303 79.0508 145.314 79.0093 145.297ZM98.7561 145.381C98.7107 145.496 98.8534 145.553 98.926 145.604C98.821 145.705 98.6997 145.794 98.5456 145.78C98.5465 145.733 98.5489 145.64 98.5499 145.593C98.578 145.627 98.6339 145.695 98.6616 145.729C98.6725 145.68 98.683 145.63 98.6912 145.581C98.6315 145.568 98.5742 145.572 98.5193 145.593C98.5126 145.667 98.4768 145.816 98.5995 145.802C98.7479 145.83 98.8482 145.71 98.947 145.621C98.9613 145.679 98.9771 145.736 98.9938 145.794C99.2711 145.765 99.5489 145.806 99.8276 145.79C99.8462 145.745 99.8672 145.702 99.8911 145.66C99.9904 145.694 100.057 145.82 100.178 145.821C100.309 145.838 100.418 145.749 100.493 145.652C100.453 145.679 100.376 145.733 100.337 145.76C100.317 145.689 100.299 145.62 100.279 145.55C100.159 145.563 100.071 145.628 100.08 145.76C100.02 145.706 99.9608 145.653 99.9011 145.6C99.9856 145.554 100.125 145.469 100.053 145.352C99.9904 145.234 99.8467 145.296 99.8038 145.396C99.8343 145.407 99.8959 145.429 99.9264 145.439C99.9183 145.407 99.9026 145.341 99.8945 145.308C99.9436 145.329 99.9918 145.352 100.04 145.379C100.042 145.446 99.9904 145.495 99.9565 145.548C99.8916 145.544 99.8166 145.459 99.7565 145.514C99.799 145.56 99.8338 145.613 99.8615 145.671C99.7999 145.831 99.6362 145.742 99.5269 145.694C99.5183 145.707 99.5016 145.736 99.4935 145.749C99.399 145.773 99.4615 145.628 99.4396 145.58C99.4257 145.578 99.398 145.573 99.3842 145.571C99.3599 145.631 99.4191 145.763 99.3145 145.763C99.3088 145.743 99.2978 145.701 99.2921 145.681C99.2 145.732 99.1007 145.793 98.9909 145.753L99.03 145.725C99.0825 145.698 99.137 145.674 99.1909 145.649C99.1532 145.638 99.0778 145.618 99.0401 145.607C99.0339 145.593 99.0219 145.565 99.0162 145.55C99.1226 145.518 99.2339 145.51 99.3441 145.493C99.1828 145.469 99.0162 145.476 98.8673 145.547C98.8272 145.497 98.7799 145.449 98.779 145.381C98.8138 145.362 98.884 145.324 98.9188 145.305C98.9145 145.341 98.9059 145.411 98.9016 145.446C98.9236 145.437 98.9675 145.417 98.9895 145.407C99.0186 145.252 98.7799 145.248 98.7561 145.381ZM100.105 145.355C100.14 145.402 100.177 145.459 100.245 145.463C100.296 145.405 100.263 145.341 100.242 145.281C100.208 145.299 100.139 145.336 100.105 145.355ZM101.982 145.277C101.97 145.342 101.953 145.406 101.957 145.474C101.98 145.542 102.066 145.552 102.115 145.6C102.054 145.652 101.994 145.706 101.935 145.762C101.92 145.685 101.909 145.548 101.795 145.57C101.692 145.548 101.71 145.698 101.674 145.758C101.636 145.731 101.561 145.678 101.524 145.651C101.589 145.736 101.677 145.824 101.795 145.821C101.941 145.832 102.038 145.704 102.139 145.621C102.152 145.675 102.165 145.731 102.179 145.787C102.239 145.789 102.299 145.792 102.359 145.796L102.328 145.696C102.388 145.746 102.458 145.819 102.548 145.795C102.703 145.779 102.859 145.785 103.015 145.792C103.038 145.744 103.063 145.697 103.088 145.651C103.179 145.715 103.261 145.816 103.382 145.822C103.479 145.831 103.562 145.768 103.643 145.726C103.613 145.731 103.552 145.743 103.522 145.748C103.494 145.694 103.517 145.558 103.421 145.572C103.302 145.541 103.286 145.679 103.269 145.759C103.205 145.7 103.142 145.642 103.079 145.585C103.111 145.574 103.174 145.551 103.206 145.54C103.034 145.495 102.855 145.465 102.679 145.495C102.813 145.515 102.961 145.511 103.06 145.624C103.034 145.64 102.981 145.671 102.954 145.687C102.962 145.697 102.975 145.717 102.983 145.727C102.952 145.771 102.901 145.788 102.829 145.777C102.833 145.743 102.842 145.676 102.846 145.642C102.832 145.663 102.805 145.706 102.791 145.728C102.738 145.715 102.686 145.703 102.635 145.692C102.634 145.653 102.634 145.575 102.634 145.536C102.587 145.601 102.584 145.694 102.53 145.753C102.521 145.737 102.504 145.705 102.495 145.689C102.479 145.693 102.445 145.701 102.428 145.705C102.352 145.609 102.256 145.613 102.162 145.695C102.178 145.48 102.389 145.525 102.538 145.496C102.378 145.469 102.212 145.474 102.067 145.549C101.96 145.48 101.957 145.314 102.113 145.308C102.107 145.34 102.098 145.402 102.092 145.433C102.121 145.429 102.177 145.42 102.206 145.416C102.178 145.305 102.081 145.283 101.982 145.277ZM103.011 145.433C103.038 145.431 103.093 145.425 103.121 145.422C103.112 145.393 103.095 145.336 103.087 145.307C103.178 145.336 103.234 145.41 103.289 145.486C103.251 145.408 103.249 145.271 103.131 145.29C103.036 145.265 103.04 145.377 103.011 145.433ZM103.335 145.287C103.298 145.369 103.379 145.53 103.456 145.426C103.555 145.348 103.388 145.304 103.335 145.287ZM103.588 145.313C103.472 145.425 103.595 145.575 103.725 145.593C103.712 145.603 103.686 145.624 103.673 145.634C103.728 145.686 103.746 145.821 103.848 145.793C104.011 145.77 104.175 145.809 104.339 145.788C104.407 145.683 104.483 145.848 104.57 145.813C104.658 145.814 104.632 145.675 104.679 145.631C104.771 145.709 104.86 145.83 104.995 145.822C105.131 145.832 105.221 145.711 105.312 145.632C105.318 145.772 105.462 145.883 105.579 145.774C105.628 145.759 105.664 145.813 105.707 145.831L105.723 145.819C105.88 145.753 106.055 145.788 106.22 145.797C106.229 145.757 106.247 145.676 106.256 145.636C106.28 145.651 106.328 145.681 106.352 145.696C106.507 145.902 106.802 145.799 106.932 145.619C106.943 145.677 106.955 145.737 106.969 145.797C107.155 145.786 107.354 145.747 107.529 145.835C107.538 145.808 107.558 145.753 107.567 145.726C107.634 145.764 107.696 145.845 107.784 145.818C107.877 145.81 107.841 145.688 107.872 145.634C108.015 145.842 108.363 145.884 108.505 145.653C108.437 145.693 108.37 145.734 108.305 145.777C108.302 145.708 108.3 145.64 108.297 145.573C108.235 145.575 108.173 145.578 108.113 145.582C108.11 145.648 108.109 145.715 108.108 145.782C108.032 145.725 107.956 145.666 107.879 145.611C107.938 145.556 108.045 145.525 108.041 145.428C108.09 145.306 107.918 145.241 107.843 145.313C107.77 145.367 107.835 145.436 107.9 145.456C107.895 145.424 107.884 145.36 107.879 145.327C107.915 145.327 107.989 145.327 108.025 145.327C108.008 145.409 107.988 145.492 107.929 145.555C107.843 145.519 107.757 145.473 107.662 145.477C107.536 145.463 107.439 145.558 107.322 145.585C107.337 145.615 107.366 145.674 107.381 145.704C107.355 145.701 107.304 145.696 107.279 145.694C107.198 145.781 107.151 145.61 107.067 145.612C107.055 145.64 107.032 145.696 107.021 145.724C107.052 145.709 107.115 145.68 107.146 145.665C107.15 145.69 107.158 145.739 107.162 145.763C107.115 145.765 107.02 145.767 106.973 145.768C106.982 145.693 106.966 145.604 107.021 145.543C107.125 145.49 107.243 145.533 107.353 145.531C107.18 145.436 106.989 145.509 106.809 145.527C106.726 145.422 106.787 145.322 106.914 145.308C106.903 145.334 106.88 145.385 106.869 145.41C106.898 145.417 106.956 145.431 106.985 145.439C106.973 145.404 106.951 145.334 106.939 145.299C106.866 145.274 106.749 145.285 106.741 145.38C106.7 145.5 106.832 145.553 106.911 145.606C106.846 145.656 106.781 145.707 106.718 145.76C106.709 145.719 106.691 145.637 106.683 145.596C106.555 145.51 106.448 145.631 106.462 145.761C106.398 145.698 106.331 145.64 106.272 145.574C106.341 145.547 106.467 145.523 106.454 145.419C106.461 145.308 106.34 145.261 106.25 145.298C106.182 145.363 106.229 145.431 106.312 145.446C106.305 145.411 106.292 145.341 106.285 145.306C106.333 145.329 106.381 145.357 106.426 145.388C106.416 145.433 106.402 145.478 106.383 145.522C106.211 145.505 106.039 145.464 105.867 145.492C105.973 145.525 106.114 145.488 106.196 145.578C106.207 145.641 106.215 145.705 106.217 145.771C106.17 145.768 106.076 145.762 106.029 145.759C106.033 145.735 106.039 145.685 106.042 145.661C106.069 145.677 106.123 145.709 106.15 145.725C106.148 145.692 106.143 145.625 106.141 145.591C106.058 145.632 105.994 145.697 105.934 145.764L105.931 145.684C105.903 145.69 105.845 145.703 105.815 145.71C105.826 145.674 105.848 145.601 105.859 145.565C105.842 145.571 105.807 145.582 105.79 145.588C105.663 145.42 105.429 145.466 105.267 145.552C105.152 145.491 105.152 145.31 105.306 145.307C105.301 145.339 105.291 145.401 105.286 145.433C105.314 145.43 105.37 145.423 105.398 145.421C105.375 145.306 105.278 145.28 105.176 145.275C105.168 145.348 105.138 145.427 105.161 145.502C105.207 145.537 105.255 145.571 105.307 145.602C105.241 145.657 105.175 145.713 105.112 145.77C105.11 145.725 105.107 145.633 105.105 145.587C105.032 145.586 104.96 145.586 104.888 145.59C104.888 145.633 104.887 145.721 104.886 145.765C104.818 145.711 104.753 145.659 104.686 145.608C104.812 145.556 104.881 145.445 104.831 145.31C104.761 145.297 104.69 145.295 104.622 145.292C104.625 145.359 104.636 145.425 104.701 145.463C104.698 145.426 104.692 145.352 104.689 145.315C104.854 145.3 104.833 145.489 104.729 145.554C104.54 145.429 104.313 145.478 104.134 145.593C104.148 145.622 104.175 145.68 104.189 145.708C104.155 145.701 104.09 145.685 104.056 145.678L104.054 145.772C103.996 145.715 103.965 145.621 103.874 145.614C103.862 145.642 103.839 145.695 103.827 145.722C103.858 145.709 103.919 145.682 103.95 145.668C103.953 145.695 103.958 145.748 103.961 145.775C103.924 145.769 103.849 145.757 103.812 145.751C103.762 145.69 103.774 145.6 103.827 145.547C103.926 145.487 104.046 145.533 104.154 145.529C103.981 145.435 103.79 145.511 103.61 145.526C103.537 145.433 103.597 145.338 103.692 145.302C103.696 145.342 103.701 145.422 103.704 145.463C103.888 145.402 103.691 145.201 103.588 145.313ZM104.97 145.308C104.923 145.334 104.886 145.394 104.945 145.432C104.994 145.507 105.053 145.426 105.088 145.381C105.064 145.347 105.016 145.263 104.97 145.308ZM106.546 145.305C106.479 145.383 106.542 145.494 106.642 145.451C106.707 145.371 106.643 145.268 106.546 145.305ZM108.168 145.288C108.162 145.329 108.15 145.409 108.144 145.449C108.209 145.448 108.291 145.465 108.311 145.377C108.285 145.317 108.219 145.309 108.168 145.288ZM109.837 145.31C109.68 145.317 109.841 145.543 109.909 145.426C109.975 145.386 109.895 145.264 109.837 145.31ZM67.7328 145.597C67.6655 145.646 67.7132 145.736 67.7109 145.804C67.8507 145.808 67.9949 145.793 68.087 145.675C67.9743 145.713 67.8512 145.828 67.7319 145.746C67.7237 145.69 67.7495 145.64 67.771 145.592C67.7934 145.629 67.8383 145.703 67.8612 145.739C67.8717 145.676 67.8789 145.611 67.8851 145.548C67.8474 145.56 67.771 145.585 67.7328 145.597ZM70.4659 145.623C70.4449 145.687 70.4688 145.711 70.5375 145.695C70.5585 145.63 70.5346 145.606 70.4659 145.623ZM73.0615 145.628C73.0376 145.694 73.0601 145.715 73.1288 145.691C73.1527 145.623 73.1302 145.603 73.0615 145.628ZM77.8804 145.63C77.8594 145.696 77.8828 145.716 77.9511 145.689C77.9716 145.621 77.9482 145.601 77.8804 145.63ZM99.6763 145.624C99.6572 145.689 99.6816 145.712 99.7493 145.695C99.768 145.629 99.7436 145.605 99.6763 145.624ZM53.4421 145.976C53.3548 146.027 53.4827 146.168 53.5534 146.1C53.5682 146.042 53.4937 145.984 53.4421 145.976ZM54.1567 145.989C54.1037 146.055 54.2502 146.172 54.2813 146.082C54.2641 146.035 54.2111 145.968 54.1567 145.989ZM54.8846 145.982C54.8426 146.04 54.855 146.072 54.9218 146.078C54.9633 146.02 54.9509 145.988 54.8846 145.982ZM55.5972 146.079C55.6655 146.072 55.6798 146.041 55.6397 145.984C55.5729 145.989 55.5585 146.021 55.5972 146.079ZM56.3351 145.98C56.2979 146.003 56.1938 146.08 56.2721 146.115C56.358 146.155 56.4511 145.961 56.3351 145.98ZM57.0764 145.982C57.0349 146.04 57.0477 146.072 57.115 146.078C57.1551 146.02 57.1423 145.988 57.0764 145.982ZM52.3147 146.061C52.4555 145.985 52.3219 146.22 52.3147 146.061ZM53.0679 146.065C53.2283 146.065 52.9987 146.208 53.0679 146.065ZM54.0779 146.061C54.1056 146.087 54.1056 146.087 54.0779 146.061ZM54.7987 146.062C54.8254 146.088 54.8254 146.088 54.7987 146.062ZM54.9796 146.058C55.0063 146.084 55.0063 146.084 54.9796 146.058ZM55.5127 146.061C55.5394 146.086 55.5394 146.086 55.5127 146.061ZM55.6965 146.063C55.7256 146.088 55.7256 146.088 55.6965 146.063ZM55.9814 146.065C56.1423 146.075 55.9041 146.202 55.9814 146.065ZM56.989 146.061C57.0172 146.086 57.0172 146.086 56.989 146.061ZM57.1714 146.064C57.2005 146.087 57.2005 146.087 57.1714 146.064ZM57.4506 146.064C57.6105 146.064 57.3819 146.208 57.4506 146.064ZM53.9848 146.158C54.0116 146.183 54.0116 146.183 53.9848 146.158ZM56.8921 146.166C56.9198 146.189 56.9198 146.189 56.8921 146.166ZM53.076 146.212C53.1047 146.238 53.1047 146.238 53.076 146.212ZM53.7538 146.272C53.8125 146.305 53.8555 146.294 53.8827 146.235C53.8746 146.139 53.6956 146.188 53.7538 146.272ZM54.4459 146.257C54.4703 146.27 54.5185 146.294 54.5428 146.305C54.5662 146.294 54.6135 146.271 54.6368 146.259C54.5758 146.188 54.5089 146.19 54.4459 146.257ZM55.2244 146.21C55.3662 146.131 55.2335 146.369 55.2244 146.21ZM55.9404 146.195C55.823 146.254 55.9958 146.348 56.0492 146.27C56.0917 146.207 55.9867 146.16 55.9404 146.195ZM57.0568 146.252C57.0792 146.259 57.1232 146.273 57.1451 146.281C57.1976 146.211 57.0511 146.162 57.0568 146.252ZM57.4305 146.206C57.4582 146.231 57.4582 146.231 57.4305 146.206ZM53.6264 149.63C53.4331 149.961 53.3042 150.337 53.3085 150.723C53.3075 151.79 53.3095 152.857 53.308 153.923C54.4378 153.924 55.5676 153.923 56.6974 153.924C56.6974 153.017 56.6974 152.111 56.6974 151.205C56.696 150.822 56.7256 150.427 56.5848 150.063C56.2907 149.275 55.6697 148.662 55.0125 148.161C54.4693 148.563 53.9672 149.042 53.6264 149.63ZM70.8325 152.749C70.2902 153.562 69.886 154.506 69.886 155.498C69.8855 158.003 69.8831 160.508 69.8874 163.013C72.3718 163.012 74.8562 163.009 77.3406 163.014C77.3501 160.476 77.3439 157.938 77.3439 155.401C77.3034 154.039 76.5611 152.819 75.6982 151.813C75.0867 151.104 74.3884 150.473 73.6333 149.921C72.5579 150.705 71.5775 151.64 70.8325 152.749ZM101.518 152.931C101.046 153.686 100.702 154.55 100.692 155.451C100.691 157.971 100.691 160.491 100.692 163.011C103.178 163.012 105.665 163.012 108.151 163.011C108.151 160.729 108.151 158.448 108.151 156.166C108.148 155.674 108.176 155.175 108.064 154.692C107.825 153.556 107.161 152.563 106.406 151.703C105.816 151.04 105.154 150.439 104.433 149.921C103.304 150.752 102.273 151.743 101.518 152.931ZM125.633 150.241C125.368 150.509 125.28 150.889 125.231 151.249C125.494 151.251 125.758 151.251 126.021 151.25C126.034 150.888 125.915 150.526 125.673 150.254C125.714 150.188 125.748 150.025 125.619 150.073C125.525 150.091 125.585 150.197 125.633 150.241ZM126.915 150.125C126.927 150.175 126.943 150.226 126.963 150.275C126.722 150.542 126.642 150.904 126.602 151.25C126.864 151.251 127.127 151.251 127.39 151.25C127.404 150.891 127.282 150.537 127.041 150.27C127.053 150.223 127.063 150.176 127.073 150.131C127.021 150.086 126.969 150.085 126.915 150.125ZM128.387 150.343C128.174 150.605 128.103 150.942 128.052 151.267C128.315 151.272 128.578 151.27 128.842 151.269C128.852 150.911 128.745 150.547 128.5 150.28C128.52 150.213 128.578 150.119 128.477 150.09C128.303 150.092 128.493 150.269 128.387 150.343ZM129.854 150.279C129.612 150.552 129.523 150.916 129.476 151.269C129.739 151.27 130.002 151.27 130.265 151.269C130.275 150.911 130.164 150.55 129.921 150.282C129.95 150.212 130.011 150.13 129.912 150.087C129.784 150.084 129.837 150.201 129.854 150.279ZM131.166 150.144C131.191 150.185 131.216 150.228 131.244 150.271C130.984 150.537 130.898 150.913 130.848 151.269C131.111 151.27 131.373 151.27 131.636 151.269C131.647 150.915 131.538 150.56 131.306 150.289C131.318 150.229 131.331 150.17 131.34 150.111C131.277 150.094 131.22 150.119 131.166 150.144ZM125.375 151.914C125.32 151.897 125.265 151.883 125.211 151.87C125.275 151.939 125.367 151.948 125.456 151.954C125.453 151.889 125.452 151.824 125.446 151.761C125.356 151.733 125.395 151.862 125.375 151.914ZM126.393 151.764C126.346 151.807 126.353 151.893 126.394 151.94C126.466 151.94 126.468 151.763 126.393 151.764ZM128.336 151.777C128.34 151.811 128.348 151.879 128.352 151.914C128.291 151.9 128.23 151.888 128.17 151.879C128.239 151.932 128.324 151.948 128.41 151.956C128.41 151.886 128.41 151.818 128.412 151.75C128.393 151.757 128.355 151.77 128.336 151.777ZM129.355 151.763C129.31 151.807 129.313 151.892 129.354 151.94C129.426 151.939 129.43 151.762 129.355 151.763ZM127.343 151.909C127.305 151.9 127.23 151.88 127.192 151.871C127.293 151.984 127.488 151.974 127.595 151.873C127.538 151.884 127.483 151.898 127.429 151.913C127.425 151.868 127.415 151.778 127.41 151.733C127.377 151.787 127.355 151.846 127.343 151.909ZM130.332 151.974C130.411 151.95 130.495 151.927 130.557 151.867C130.518 151.88 130.439 151.905 130.4 151.918C130.389 151.856 130.378 151.795 130.369 151.736C130.294 151.798 130.323 151.891 130.332 151.974ZM131.317 151.918C131.282 151.902 131.214 151.872 131.18 151.857C131.198 151.887 131.235 151.947 131.253 151.976C131.265 151.966 131.288 151.945 131.299 151.934C131.397 151.951 131.505 151.965 131.557 151.856C131.501 151.877 131.447 151.9 131.394 151.925C131.393 151.877 131.39 151.781 131.389 151.733C131.34 151.784 131.315 151.845 131.317 151.918ZM124.865 151.884C124.839 151.961 124.865 151.987 124.944 151.964C124.968 151.885 124.942 151.858 124.865 151.884ZM126.251 151.877C126.235 151.942 126.26 151.965 126.328 151.947C126.342 151.88 126.317 151.857 126.251 151.877ZM126.485 151.881C126.459 151.948 126.481 151.968 126.549 151.943C126.574 151.875 126.552 151.854 126.485 151.881ZM127.679 151.888C127.839 151.88 127.609 152.032 127.679 151.888ZM127.867 151.885C127.827 151.932 127.786 151.98 127.749 152.03C127.767 152.012 127.804 151.975 127.822 151.956C127.887 151.97 127.952 151.981 128.019 151.994C127.967 151.956 127.917 151.92 127.867 151.885ZM128.48 151.866C128.406 151.881 128.429 152 128.506 151.958C128.579 151.944 128.554 151.825 128.48 151.866ZM128.829 151.902C128.808 151.98 128.835 152.005 128.913 151.977C128.932 151.898 128.904 151.873 128.829 151.902ZM129.025 151.882C129.008 151.948 129.032 151.972 129.099 151.955C129.115 151.889 129.091 151.865 129.025 151.882ZM129.213 151.876C129.196 151.941 129.221 151.964 129.289 151.947C129.304 151.88 129.279 151.857 129.213 151.876ZM129.446 151.881C129.418 151.947 129.439 151.969 129.509 151.945C129.535 151.877 129.514 151.856 129.446 151.881ZM129.592 151.96C129.631 151.947 129.711 151.922 129.75 151.91C129.738 152.015 129.671 152.051 129.572 152.036C129.566 152.058 129.555 152.101 129.55 152.123C129.49 152.139 129.434 152.158 129.376 152.177C129.447 152.177 129.52 152.178 129.593 152.179L129.602 152.099C129.659 152.131 129.718 152.163 129.779 152.195C129.875 152.184 129.969 152.163 130.064 152.14C130.143 152.153 130.216 152.185 130.293 152.208C130.314 152.201 130.356 152.187 130.377 152.18C130.376 152.153 130.374 152.099 130.372 152.071C130.329 152.048 130.286 152.027 130.244 152.006C130.273 152.039 130.33 152.106 130.358 152.139C130.312 152.14 130.219 152.141 130.173 152.141C130.168 152.115 130.16 152.063 130.156 152.037C130.119 152.036 130.043 152.033 130.006 152.032C130.009 152.018 130.017 151.992 130.021 151.979C130.037 151.966 130.07 151.939 130.086 151.926C130.042 151.908 129.989 151.888 129.949 151.876C129.969 151.963 130.014 152.043 130.029 152.133C129.942 152.127 129.862 152.053 129.777 152.112C129.659 152.095 129.756 151.939 129.764 151.87C129.703 151.895 129.645 151.923 129.592 151.96ZM130.183 151.874C130.145 151.928 130.238 151.993 130.283 151.95C130.318 151.894 130.225 151.824 130.183 151.874ZM130.625 151.952C130.689 151.971 130.715 151.947 130.702 151.882C130.634 151.862 130.608 151.885 130.625 151.952ZM131.636 151.888C131.609 151.955 131.63 151.975 131.7 151.95C131.724 151.882 131.702 151.861 131.636 151.888ZM125.498 151.916C125.522 151.943 125.522 151.943 125.498 151.916ZM126.867 151.923C127.012 151.855 126.865 152.082 126.867 151.923ZM129.823 151.908C129.795 151.983 129.821 152.009 129.901 151.987C129.927 151.911 129.901 151.884 129.823 151.908ZM130.827 151.909C130.803 151.984 130.829 152.01 130.908 151.986C130.932 151.908 130.905 151.882 130.827 151.909ZM131.834 151.908C131.807 151.983 131.833 152.01 131.913 151.988C131.938 151.911 131.912 151.884 131.834 151.908ZM126.083 152.055C126.113 152.115 126.146 152.115 126.184 152.055C126.153 151.994 126.12 151.994 126.083 152.055ZM127.652 152.039C127.602 152.099 127.539 152.143 127.48 152.192C127.534 152.185 127.589 152.18 127.645 152.175C127.678 152.126 127.714 152.079 127.749 152.03C127.724 152.033 127.676 152.037 127.652 152.039ZM128.604 152.027C128.555 152.11 128.692 152.156 128.729 152.079C128.784 152 128.639 151.964 128.604 152.027ZM129.023 152.049C129.022 152.116 129.137 152.116 129.142 152.051C129.141 151.982 129.024 151.982 129.023 152.049ZM131.581 152.055C131.59 152.114 131.701 152.12 131.708 152.055C131.7 151.991 131.584 151.986 131.581 152.055ZM126.385 152.087C126.339 152.141 126.35 152.173 126.418 152.182C126.462 152.126 126.452 152.094 126.385 152.087ZM127.761 152.19C127.842 152.188 127.924 152.186 128.007 152.183C127.97 152.137 127.934 152.093 127.896 152.051C127.842 152.087 127.803 152.141 127.761 152.19ZM128.35 152.076C128.339 152.09 128.318 152.12 128.307 152.134C128.34 152.283 128.505 152.038 128.35 152.076ZM128.778 152.2C128.843 152.21 128.906 152.211 128.973 152.214C128.952 152.163 128.93 152.113 128.907 152.065C128.811 152.037 128.8 152.133 128.778 152.2ZM131.821 152.068C131.798 152.134 131.822 152.155 131.89 152.133C131.911 152.066 131.888 152.045 131.821 152.068ZM126.206 152.113C126.168 152.17 126.264 152.228 126.309 152.186C126.343 152.13 126.247 152.065 126.206 152.113ZM126.534 152.103C126.46 152.116 126.481 152.233 126.558 152.196C126.632 152.185 126.609 152.063 126.534 152.103ZM129.164 152.115C129.13 152.173 129.227 152.23 129.27 152.186C129.301 152.128 129.204 152.065 129.164 152.115ZM131.5 152.102C131.427 152.119 131.451 152.235 131.527 152.195C131.6 152.18 131.573 152.058 131.5 152.102ZM94.098 153.714C93.772 153.945 93.5734 154.339 93.5772 154.738C93.5768 157.073 93.5744 159.408 93.5782 161.743C94.425 161.741 95.2722 161.742 96.1194 161.743C96.1218 159.423 96.1199 157.105 96.1204 154.785C96.1294 154.398 95.9643 154.005 95.6583 153.763C95.2307 153.391 94.5476 153.369 94.098 153.714ZM85.6806 154.777C85.6754 157.127 85.6797 159.478 85.6787 161.828C86.5264 161.828 87.3746 161.829 88.2228 161.828C88.2223 159.543 88.2213 157.258 88.2228 154.973C88.2261 154.745 88.2061 154.51 88.1068 154.301C87.8973 153.825 87.3713 153.513 86.8529 153.561C86.2295 153.595 85.6883 154.15 85.6806 154.777ZM82.0879 153.927C81.8149 154.161 81.6607 154.52 81.6636 154.878C81.6636 157.211 81.6626 159.544 81.6645 161.877C82.5113 161.873 83.3585 161.88 84.2053 161.873C84.2029 159.67 84.2048 157.466 84.2043 155.262C84.2019 154.971 84.2306 154.668 84.1122 154.394C83.9566 154.007 83.5976 153.706 83.1867 153.629C82.801 153.551 82.3781 153.658 82.0879 153.927ZM90.1377 153.91C89.8547 154.144 89.6915 154.509 89.6939 154.876C89.6924 157.209 89.6939 159.542 89.6934 161.876C90.5411 161.876 91.3888 161.875 92.237 161.876C92.2379 159.687 92.237 157.497 92.2374 155.308C92.2322 155.045 92.2599 154.776 92.1864 154.52C92.0694 154.101 91.7186 153.755 91.2962 153.648C90.8991 153.54 90.4466 153.635 90.1377 153.91ZM126.898 156.352C126.508 156.897 126.205 157.538 126.209 158.222C126.208 159.819 126.205 161.416 126.21 163.013C127.748 163.01 129.285 163.013 130.824 163.011C130.824 161.541 130.823 160.071 130.824 158.6C130.823 158.296 130.837 157.988 130.769 157.69C130.663 157.197 130.42 156.745 130.13 156.337C129.689 155.723 129.131 155.203 128.528 154.753C127.913 155.205 127.345 155.731 126.898 156.352Z" fill="#004B41"/>
<path d="M136.445 107.904C136.517 107.959 136.536 108.042 136.538 108.131C136.478 108.132 136.42 108.133 136.363 108.136C136.347 108.086 136.334 108.036 136.321 107.987C136.351 107.966 136.414 107.924 136.445 107.904Z" fill="#004B41"/>
<path d="M89.5001 117.138C89.5722 117.012 89.6433 116.885 89.7183 116.76C89.7913 116.885 89.8619 117.011 89.934 117.138C90.0748 117.163 90.2166 117.191 90.3578 117.22C90.2638 117.332 90.1407 117.424 90.071 117.554C90.0715 117.694 90.0982 117.832 90.1144 117.971C89.9817 117.912 89.8505 117.852 89.7197 117.79C89.586 117.85 89.4533 117.911 89.3197 117.971C89.3369 117.828 89.3555 117.684 89.3741 117.541C89.2748 117.435 89.176 117.328 89.0806 117.219C89.2199 117.19 89.3598 117.163 89.5001 117.138Z" fill="#004B41"/>
<path d="M122.16 122.65C122.162 122.568 122.218 122.53 122.29 122.51C122.292 122.543 122.298 122.607 122.301 122.64C122.266 122.642 122.196 122.647 122.16 122.65Z" fill="#004B41"/>
<path d="M49.1341 123.408C49.1818 123.427 49.2295 123.447 49.2777 123.468C49.2653 123.499 49.241 123.561 49.2286 123.592C49.1279 123.569 49.1011 123.501 49.1341 123.408Z" fill="#004B41"/>
<path d="M68.2048 145.752C68.1175 145.628 68.2559 145.487 68.3867 145.507C68.5447 145.489 68.5709 145.671 68.6087 145.782L68.485 145.799C68.4951 145.768 68.5161 145.708 68.5266 145.677C68.4974 145.682 68.4397 145.693 68.4106 145.699C68.3776 145.577 68.2664 145.633 68.2101 145.684C68.2588 145.69 68.3566 145.7 68.4058 145.705C68.3409 145.782 68.2741 145.797 68.2048 145.752Z" fill="#004B41"/>
<path d="M68.6068 145.696C68.6612 145.581 68.7643 145.456 68.907 145.52C69.0426 145.528 69.0206 145.686 69.0178 145.782C68.9486 145.787 68.8999 145.769 68.8727 145.726C68.8908 145.72 68.9271 145.707 68.9452 145.7C68.9457 145.673 68.9467 145.62 68.9471 145.593C68.8564 145.606 68.8063 145.793 68.7185 145.701C68.6903 145.7 68.6345 145.697 68.6068 145.696Z" fill="#004B41"/>
<path d="M75.1196 145.529C75.2322 145.467 75.3463 145.543 75.4399 145.604C75.4274 145.64 75.4026 145.714 75.3907 145.751C75.3205 145.796 75.2547 145.779 75.1926 145.702C75.2413 145.698 75.3387 145.691 75.3874 145.687C75.3196 145.625 75.2317 145.58 75.1855 145.7C75.1592 145.695 75.1067 145.686 75.0804 145.681C75.0824 145.701 75.0862 145.74 75.0881 145.759L75.006 145.755C75.0346 145.677 75.0308 145.565 75.1196 145.529Z" fill="#004B41"/>
<path d="M76.1261 145.614C76.2359 145.521 76.4211 145.444 76.5256 145.587C76.5476 145.628 76.6144 145.788 76.5127 145.748C76.5041 145.734 76.4874 145.705 76.4788 145.691C76.4669 145.691 76.4426 145.69 76.4301 145.69C76.3681 145.667 76.3046 145.604 76.2392 145.656C76.2912 145.697 76.3008 145.734 76.2669 145.768C76.1695 145.783 76.1624 145.675 76.1261 145.614Z" fill="#004B41"/>
<path d="M104.241 145.751C104.203 145.652 104.269 145.528 104.376 145.515C104.472 145.477 104.557 145.552 104.636 145.597C104.63 145.647 104.618 145.745 104.612 145.795C104.532 145.78 104.459 145.75 104.392 145.706C104.444 145.7 104.547 145.688 104.598 145.682C104.507 145.581 104.41 145.658 104.325 145.723C104.304 145.73 104.262 145.744 104.241 145.751Z" fill="#004B41"/>
<path d="M105.344 145.607C105.444 145.538 105.576 145.453 105.692 145.545C105.751 145.586 105.817 145.73 105.727 145.764C105.716 145.748 105.693 145.717 105.682 145.701C105.603 145.664 105.526 145.609 105.435 145.622C105.446 145.667 105.547 145.732 105.478 145.769C105.364 145.809 105.373 145.676 105.344 145.607Z" fill="#004B41"/>
<path d="M107.496 145.546C107.612 145.458 107.745 145.538 107.848 145.607C107.835 145.643 107.812 145.715 107.799 145.751C107.724 145.797 107.651 145.781 107.581 145.701C107.634 145.696 107.74 145.686 107.793 145.682C107.702 145.59 107.594 145.661 107.499 145.706C107.491 145.719 107.476 145.745 107.468 145.758C107.369 145.728 107.433 145.586 107.496 145.546Z" fill="#004B41"/>
<path d="M77.3678 145.648C77.4346 145.603 77.4847 145.724 77.4317 145.765C77.3616 145.811 77.3076 145.688 77.3678 145.648Z" fill="#004B41"/>
<path d="M108.21 145.643C108.277 145.645 108.269 145.761 108.206 145.768C108.134 145.765 108.15 145.65 108.21 145.643Z" fill="#004B41"/>
<path d="M69.3618 145.72C69.4177 145.674 69.4496 145.685 69.4582 145.753C69.4019 145.797 69.3699 145.786 69.3618 145.72Z" fill="#004B41"/>
<path d="M70.97 145.715C71.1146 145.642 70.9743 145.873 70.97 145.715Z" fill="#004B41"/>
<path d="M72.5616 145.717C72.7025 145.636 72.5774 145.874 72.5616 145.717Z" fill="#004B41"/>
<path d="M74.1583 145.719C74.3039 145.643 74.1679 145.876 74.1583 145.719Z" fill="#004B41"/>
<path d="M75.7501 145.716C75.8924 145.639 75.7601 145.875 75.7501 145.716Z" fill="#004B41"/>
<path d="M100.173 145.718C100.321 145.648 100.175 145.875 100.173 145.718Z" fill="#004B41"/>
<path d="M101.765 145.718C101.909 145.646 101.769 145.878 101.765 145.718Z" fill="#004B41"/>
<path d="M103.35 145.719C103.406 145.675 103.438 145.687 103.447 145.754C103.39 145.797 103.358 145.785 103.35 145.719Z" fill="#004B41"/>
<path d="M104.966 145.719C105.109 145.646 104.971 145.879 104.966 145.719Z" fill="#004B41"/>
<path d="M106.545 145.718C106.601 145.674 106.634 145.685 106.644 145.751C106.587 145.795 106.554 145.784 106.545 145.718Z" fill="#004B41"/>
</g>
<defs>
<clipPath id="clip0_328_216">
<rect width="163" height="191" rx="23" fill="white"/>
</clipPath>
</defs>
</svg>
